<svg width="509" height="321" viewBox="0 0 509 321" fill="none" xmlns="http://www.w3.org/2000/svg">
<rect y="1.00024" width="508.5" height="319.629" rx="17.4343" fill="#FE0000"/>
<mask id="mask0_30_29300" style="mask-type:alpha" maskUnits="userSpaceOnUse" x="0" y="-11" width="509" height="321">
<rect y="-10.1855" width="508.5" height="319.629" rx="17.4343" fill="url(#paint0_linear_30_29300)" fill-opacity="0.1"/>
</mask>
<g mask="url(#mask0_30_29300)">
<circle cx="247.713" cy="323.245" r="275.316" fill="url(#paint1_linear_30_29300)"/>
</g>
<mask id="mask1_30_29300" style="mask-type:alpha" maskUnits="userSpaceOnUse" x="0" y="0" width="509" height="322">
<rect y="0.314453" width="508.5" height="321" rx="17.4343" fill="url(#paint2_linear_30_29300)"/>
</mask>
<g mask="url(#mask1_30_29300)">
<circle cx="382.102" cy="-49.4128" r="188.871" fill="white" fill-opacity="0.2"/>
</g>
<path d="M29.1665 54.3799V44.7213H31.956C32.7231 44.7213 33.3682 44.8317 33.8912 45.0526C34.4142 45.2618 34.8385 45.5756 35.1639 45.994C35.501 46.4008 35.7392 46.9006 35.8787 47.4934C36.0298 48.0745 36.1054 48.737 36.1054 49.4809C36.1054 50.248 36.024 50.9047 35.8613 51.451C35.7102 51.9856 35.5126 52.4331 35.2685 52.7934C35.0244 53.1537 34.7455 53.4385 34.4317 53.6477C34.1295 53.8569 33.8215 54.0196 33.5077 54.1358C33.1938 54.2404 32.8975 54.3102 32.6185 54.345C32.3396 54.3683 32.1071 54.3799 31.9211 54.3799H29.1665ZM27.5103 43.3266V55.7747H31.7817C32.8161 55.7747 33.7111 55.6294 34.4665 55.3388C35.222 55.0482 35.8439 54.6298 36.332 54.0835C36.8202 53.5256 37.1805 52.8457 37.4129 52.0437C37.6454 51.2301 37.7616 50.3003 37.7616 49.2542C37.7616 47.2551 37.2444 45.7674 36.21 44.7911C35.1755 43.8147 33.6994 43.3266 31.7817 43.3266H27.5103ZM45.8006 50.4049H40.6226C40.6459 50.0562 40.7214 49.7308 40.8493 49.4286C40.9771 49.1148 41.1515 48.8416 41.3723 48.6092C41.5931 48.3767 41.8546 48.1966 42.1568 48.0687C42.4707 47.9292 42.8193 47.8595 43.2029 47.8595C43.5748 47.8595 43.9119 47.9292 44.2141 48.0687C44.5279 48.1966 44.7952 48.3767 45.0161 48.6092C45.2485 48.83 45.4287 49.0973 45.5565 49.4111C45.696 49.725 45.7774 50.0562 45.8006 50.4049ZM47.2302 52.9154H45.7657C45.6379 53.5082 45.3706 53.9499 44.9638 54.2404C44.5686 54.531 44.0572 54.6763 43.4295 54.6763C42.9414 54.6763 42.5171 54.5949 42.1568 54.4322C41.7965 54.2695 41.5001 54.0545 41.2677 53.7871C41.0352 53.5082 40.8667 53.1944 40.7621 52.8457C40.6575 52.4854 40.611 52.1076 40.6226 51.7125H47.3697C47.3929 51.1662 47.3406 50.5909 47.2128 49.9865C47.0966 49.3821 46.8757 48.8242 46.5503 48.3128C46.2365 47.8014 45.8122 47.383 45.2776 47.0575C44.7545 46.7205 44.092 46.5519 43.2901 46.5519C42.6741 46.5519 42.1045 46.6681 41.5815 46.9006C41.0701 47.1331 40.6226 47.4585 40.2391 47.8769C39.8671 48.2953 39.5766 48.7893 39.3674 49.3588C39.1581 49.9284 39.0535 50.556 39.0535 51.2417C39.0768 51.9275 39.1756 52.5609 39.3499 53.1421C39.5359 53.7232 39.809 54.223 40.1693 54.6414C40.5296 55.0599 40.9713 55.3853 41.4943 55.6177C42.029 55.8502 42.6566 55.9664 43.3772 55.9664C44.4 55.9664 45.2485 55.7107 45.9226 55.1993C46.5968 54.6879 47.0326 53.9266 47.2302 52.9154ZM48.9581 43.3266V55.7747H50.44V54.5717H50.4749C50.6376 54.839 50.8352 55.0657 51.0677 55.2516C51.3117 55.426 51.5674 55.5654 51.8348 55.6701C52.1021 55.7747 52.3694 55.8502 52.6367 55.8967C52.9157 55.9432 53.1656 55.9664 53.3864 55.9664C54.0722 55.9664 54.6707 55.8444 55.1822 55.6003C55.7052 55.3562 56.1352 55.025 56.4723 54.6066C56.821 54.1765 57.0767 53.6767 57.2394 53.1072C57.4137 52.5377 57.5009 51.9333 57.5009 51.294C57.5009 50.6548 57.4137 50.0504 57.2394 49.4809C57.0651 48.9114 56.8035 48.4116 56.4549 47.9815C56.1178 47.5399 55.6877 47.1912 55.1647 46.9355C54.6533 46.6798 54.0489 46.5519 53.3516 46.5519C52.7239 46.5519 52.1486 46.6681 51.6256 46.9006C51.1025 47.1214 50.719 47.4817 50.4749 47.9815H50.44V43.3266H48.9581ZM55.9318 51.1894C55.9318 51.6311 55.8853 52.0612 55.7924 52.4796C55.6994 52.898 55.5483 53.2699 55.3391 53.5954C55.1299 53.9208 54.8509 54.1823 54.5022 54.3799C54.1652 54.5775 53.7409 54.6763 53.2295 54.6763C52.7181 54.6763 52.2823 54.5833 51.9219 54.3973C51.5616 54.1998 51.2653 53.9441 51.0328 53.6302C50.812 53.3164 50.6492 52.9561 50.5446 52.5493C50.44 52.1309 50.3877 51.7008 50.3877 51.2592C50.3877 50.8408 50.4342 50.4281 50.5272 50.0213C50.6318 49.6145 50.7945 49.2542 51.0154 48.9404C51.2362 48.615 51.521 48.3535 51.8696 48.1559C52.2183 47.9583 52.6426 47.8595 53.1423 47.8595C53.6189 47.8595 54.0315 47.9525 54.3802 48.1384C54.7405 48.3244 55.0311 48.5743 55.2519 48.8881C55.4843 49.2019 55.6529 49.5622 55.7575 49.969C55.8737 50.3642 55.9318 50.771 55.9318 51.1894ZM60.8095 45.1397V43.3266H59.3276V45.1397H60.8095ZM59.3276 46.7611V55.7747H60.8095V46.7611H59.3276ZM65.1625 46.7611V44.0588H63.6806V46.7611H62.1463V48.0687H63.6806V53.8046C63.6806 54.223 63.7212 54.5601 63.8026 54.8158C63.884 55.0715 64.006 55.2691 64.1687 55.4085C64.3431 55.548 64.5639 55.6468 64.8312 55.7049C65.1102 55.7514 65.4414 55.7747 65.825 55.7747H66.9582V54.4671H66.2783C66.0458 54.4671 65.854 54.4613 65.7029 54.4497C65.5635 54.4264 65.453 54.3857 65.3717 54.3276C65.2903 54.2695 65.2322 54.1881 65.1973 54.0835C65.1741 53.9789 65.1625 53.8395 65.1625 53.6651V48.0687H66.9582V46.7611H65.1625ZM82.4529 47.0749H84.1092C84.0162 46.4124 83.8186 45.8313 83.5164 45.3315C83.2142 44.8201 82.8365 44.3959 82.3832 44.0588C81.9299 43.7218 81.4127 43.4661 80.8315 43.2917C80.2504 43.1174 79.6344 43.0302 78.9835 43.0302C78.0304 43.0302 77.182 43.2045 76.4381 43.5532C75.7059 43.8903 75.0898 44.3552 74.5901 44.948C74.1019 45.5407 73.73 46.2381 73.4743 47.0401C73.2186 47.8304 73.0907 48.6789 73.0907 49.5855C73.0907 50.4921 73.2069 51.3405 73.4394 52.1309C73.6835 52.9212 74.0438 53.607 74.5203 54.1881C74.9969 54.7693 75.5954 55.2284 76.3161 55.5654C77.0367 55.8909 77.8793 56.0536 78.844 56.0536C80.4364 56.0536 81.6916 55.6177 82.6098 54.746C83.528 53.8743 84.0685 52.6539 84.2312 51.0848H82.575C82.5401 51.5962 82.4355 52.0728 82.2611 52.5144C82.0868 52.9561 81.8427 53.3397 81.5289 53.6651C81.2267 53.9789 80.8606 54.2288 80.4305 54.4148C80.0121 54.5891 79.5298 54.6763 78.9835 54.6763C78.2396 54.6763 77.6004 54.5368 77.0657 54.2579C76.5311 53.9789 76.0894 53.607 75.7407 53.1421C75.4037 52.6655 75.1538 52.1135 74.991 51.4858C74.8283 50.8466 74.747 50.1724 74.747 49.4634C74.747 48.8126 74.8283 48.1849 74.991 47.5805C75.1538 46.9762 75.4037 46.4415 75.7407 45.9766C76.0894 45.5001 76.5253 45.1223 77.0483 44.8434C77.5829 44.5644 78.2222 44.4249 78.9661 44.4249C79.8378 44.4249 80.5875 44.6458 81.2151 45.0874C81.8543 45.5291 82.267 46.1916 82.4529 47.0749ZM94.0237 55.7398C93.768 55.8909 93.4135 55.9664 92.9602 55.9664C92.5767 55.9664 92.2687 55.8618 92.0362 55.6526C91.8154 55.4318 91.7049 55.0773 91.7049 54.5891C91.2981 55.0773 90.8216 55.4318 90.2753 55.6526C89.7407 55.8618 89.1595 55.9664 88.5319 55.9664C88.1251 55.9664 87.7357 55.9199 87.3638 55.827C87.0035 55.734 86.6897 55.5887 86.4224 55.3911C86.155 55.1935 85.94 54.9378 85.7773 54.624C85.6262 54.2986 85.5506 53.9092 85.5506 53.4559C85.5506 52.9445 85.6378 52.5261 85.8122 52.2006C85.9865 51.8752 86.2131 51.6137 86.4921 51.4161C86.7827 51.2069 87.1081 51.05 87.4684 50.9454C87.8403 50.8408 88.2181 50.7536 88.6016 50.6838C89.0084 50.6025 89.392 50.5444 89.7523 50.5095C90.1242 50.463 90.4497 50.4049 90.7286 50.3352C91.0076 50.2538 91.2284 50.1434 91.3911 50.0039C91.5538 49.8528 91.6352 49.6378 91.6352 49.3588C91.6352 49.0334 91.5713 48.7719 91.4434 48.5743C91.3272 48.3767 91.1703 48.2256 90.9727 48.121C90.7867 48.0164 90.5717 47.9467 90.3276 47.9118C90.0952 47.8769 89.8627 47.8595 89.6303 47.8595C89.0026 47.8595 88.4796 47.9815 88.0612 48.2256C87.6428 48.4581 87.4161 48.9055 87.3812 49.5681H85.8993C85.9226 49.0102 86.0388 48.5394 86.248 48.1559C86.4572 47.7723 86.7362 47.4643 87.0849 47.2319C87.4335 46.9878 87.8287 46.8134 88.2704 46.7088C88.7237 46.6042 89.206 46.5519 89.7174 46.5519C90.1242 46.5519 90.5252 46.581 90.9204 46.6391C91.3272 46.6972 91.6933 46.8192 92.0188 47.0052C92.3442 47.1796 92.6057 47.4294 92.8033 47.7549C93.0009 48.0803 93.0997 48.5046 93.0997 49.0276V53.6651C93.0997 54.0138 93.1171 54.2695 93.152 54.4322C93.1985 54.5949 93.338 54.6763 93.5704 54.6763C93.6983 54.6763 93.8494 54.6472 94.0237 54.5891V55.7398ZM91.6178 51.1197C91.4318 51.2592 91.1877 51.3638 90.8855 51.4335C90.5833 51.4916 90.2637 51.5439 89.9266 51.5904C89.6012 51.6253 89.27 51.6718 88.9329 51.7299C88.5958 51.7764 88.2936 51.8578 88.0263 51.974C87.759 52.0902 87.5381 52.2587 87.3638 52.4796C87.2011 52.6888 87.1197 52.9794 87.1197 53.3513C87.1197 53.5954 87.1662 53.8046 87.2592 53.9789C87.3638 54.1416 87.4917 54.2753 87.6428 54.3799C87.8055 54.4845 87.9914 54.5601 88.2007 54.6066C88.4099 54.6531 88.6307 54.6763 88.8632 54.6763C89.3513 54.6763 89.7697 54.6124 90.1184 54.4845C90.4671 54.345 90.7519 54.1765 90.9727 53.9789C91.1935 53.7697 91.3563 53.5489 91.4609 53.3164C91.5655 53.0723 91.6178 52.8457 91.6178 52.6365V51.1197ZM95.3506 46.7611V55.7747H96.8325V51.7648C96.8325 51.1836 96.8906 50.6722 97.0069 50.2306C97.1231 49.7773 97.3091 49.3937 97.5648 49.0799C97.8205 48.7661 98.1575 48.5278 98.576 48.3651C98.9944 48.2024 99.5 48.121 100.093 48.121V46.5519C99.2908 46.5287 98.6283 46.6914 98.1052 47.0401C97.5822 47.3888 97.1405 47.9292 96.7802 48.6615H96.7454V46.7611H95.3506ZM101.983 51.3463C101.983 50.9047 102.03 50.4746 102.123 50.0562C102.216 49.6378 102.367 49.2659 102.576 48.9404C102.785 48.615 103.064 48.3535 103.413 48.1559C103.761 47.9583 104.186 47.8595 104.685 47.8595C105.197 47.8595 105.633 47.9583 105.993 48.1559C106.353 48.3418 106.644 48.5917 106.865 48.9055C107.097 49.2194 107.266 49.5855 107.37 50.0039C107.475 50.4107 107.527 50.8349 107.527 51.2766C107.527 51.695 107.475 52.1076 107.37 52.5144C107.277 52.9212 107.12 53.2874 106.9 53.6128C106.679 53.9266 106.394 54.1823 106.045 54.3799C105.697 54.5775 105.272 54.6763 104.773 54.6763C104.296 54.6763 103.878 54.5833 103.517 54.3973C103.169 54.2114 102.878 53.9615 102.646 53.6477C102.425 53.3339 102.256 52.9794 102.14 52.5842C102.035 52.1774 101.983 51.7648 101.983 51.3463ZM108.957 55.7747V43.3266H107.475V47.9641H107.44C107.277 47.6968 107.074 47.4759 106.83 47.3016C106.597 47.1156 106.348 46.9703 106.08 46.8657C105.813 46.7495 105.546 46.6681 105.278 46.6217C105.011 46.5752 104.761 46.5519 104.529 46.5519C103.843 46.5519 103.238 46.6798 102.715 46.9355C102.204 47.1796 101.774 47.5166 101.425 47.9467C101.088 48.3651 100.832 48.8591 100.658 49.4286C100.495 49.9981 100.414 50.6025 100.414 51.2417C100.414 51.881 100.501 52.4854 100.676 53.0549C100.85 53.6244 101.106 54.1242 101.443 54.5543C101.791 54.9843 102.221 55.3272 102.733 55.5829C103.256 55.8386 103.866 55.9664 104.563 55.9664C105.191 55.9664 105.766 55.856 106.289 55.6352C106.812 55.4143 107.196 55.054 107.44 54.5543H107.475V55.7747H108.957Z" fill="white"/>
<g clip-path="url(#clip0_30_29300)">
<path fill-rule="evenodd" clip-rule="evenodd" d="M435.934 78.153H455.376V43.4883H435.934V78.153Z" fill="#FF5F00"/>
<path fill-rule="evenodd" clip-rule="evenodd" d="M437.168 60.8208C437.168 53.7882 440.487 47.5247 445.655 43.4884C441.875 40.5361 437.106 38.7749 431.923 38.7749C419.652 38.7749 409.705 48.6454 409.705 60.8208C409.705 72.9963 419.652 82.8667 431.923 82.8667C437.106 82.8667 441.875 81.1055 445.655 78.1532C440.487 74.1164 437.168 67.8535 437.168 60.8208Z" fill="#EB001B"/>
<path fill-rule="evenodd" clip-rule="evenodd" d="M480.912 74.4817V73.6262H480.687L480.428 74.2147L480.169 73.6262H479.944V74.4817H480.103V73.8362L480.346 74.3929H480.51L480.754 73.835V74.4817H480.912ZM479.486 74.4817V73.7719H479.775V73.6274H479.04V73.7719H479.329V74.4817H479.486ZM481.606 60.8206C481.606 72.9961 471.658 82.8665 459.388 82.8665C454.205 82.8665 449.435 81.1053 445.656 78.153C450.824 74.1167 454.143 67.8532 454.143 60.8206C454.143 53.7885 450.824 47.5251 445.656 43.4882C449.435 40.5359 454.205 38.7747 459.388 38.7747C471.658 38.7747 481.606 48.6451 481.606 60.8206Z" fill="#F79E1B"/>
</g>
<path d="M28.9681 266.677H31.1304L30.4579 269.24L32.3818 267.426L33.3778 269.299L30.7814 269.963L33.3778 270.704L32.2541 272.551L30.3983 270.704L31.0538 273.258H28.9681L29.6236 270.704L27.7253 272.551L26.5931 270.704L29.198 269.963L26.5931 269.24L27.7253 267.341L29.6236 269.24L28.9681 266.677ZM36.6467 266.677H38.809L38.1365 269.24L40.0604 267.426L41.0564 269.299L38.46 269.963L41.0564 270.704L39.9327 272.551L38.0769 270.704L38.7324 273.258H36.6467L37.3022 270.704L35.4038 272.551L34.2716 270.704L36.8766 269.963L34.2716 269.24L35.4038 267.341L37.3022 269.24L36.6467 266.677ZM44.3253 266.677H46.4876L45.815 269.24L47.7389 267.426L48.7349 269.299L46.1385 269.963L48.7349 270.704L47.6112 272.551L45.7555 270.704L46.4109 273.258H44.3253L44.9808 270.704L43.0824 272.551L41.9502 270.704L44.5551 269.963L41.9502 269.24L43.0824 267.341L44.9808 269.24L44.3253 266.677ZM52.0039 266.677H54.1661L53.4936 269.24L55.4175 267.426L56.4135 269.299L53.8171 269.963L56.4135 270.704L55.2898 272.551L53.434 270.704L54.0895 273.258H52.0039L52.6594 270.704L50.761 272.551L49.6288 270.704L52.2337 269.963L49.6288 269.24L50.761 267.341L52.6594 269.24L52.0039 266.677ZM59.6824 266.677H61.8447L61.1722 269.24L63.0961 267.426L64.0921 269.299L61.4957 269.963L64.0921 270.704L62.9684 272.551L61.1126 270.704L61.7681 273.258H59.6824L60.3379 270.704L58.4396 272.551L57.3074 270.704L59.9123 269.963L57.3074 269.24L58.4396 267.341L60.3379 269.24L59.6824 266.677ZM67.361 266.677H69.5233L68.8508 269.24L70.7747 267.426L71.7707 269.299L69.1743 269.963L71.7707 270.704L70.647 272.551L68.7912 270.704L69.4467 273.258H67.361L68.0165 270.704L66.1182 272.551L64.9859 270.704L67.5909 269.963L64.9859 269.24L66.1182 267.341L68.0165 269.24L67.361 266.677ZM75.0396 266.677H77.2019L76.5293 269.24L78.4533 267.426L79.4493 269.299L76.8528 269.963L79.4493 270.704L78.3256 272.551L76.4698 270.704L77.1252 273.258H75.0396L75.6951 270.704L73.7967 272.551L72.6645 270.704L75.2695 269.963L72.6645 269.24L73.7967 267.341L75.6951 269.24L75.0396 266.677ZM82.7182 266.677H84.8804L84.2079 269.24L86.1318 267.426L87.1278 269.299L84.5314 269.963L87.1278 270.704L86.0041 272.551L84.1483 270.704L84.8038 273.258H82.7182L83.3737 270.704L81.4753 272.551L80.3431 270.704L82.948 269.963L80.3431 269.24L81.4753 267.341L83.3737 269.24L82.7182 266.677Z" fill="white"/>
<path d="M440.126 266.677H442.289L441.616 269.24L443.54 267.426L444.536 269.299L441.94 269.963L444.536 270.704L443.412 272.551L441.556 270.704L442.212 273.258H440.126L440.782 270.704L438.883 272.551L437.751 270.704L440.356 269.963L437.751 269.24L438.883 267.341L440.782 269.24L440.126 266.677ZM447.805 266.677H449.967L449.295 269.24L451.219 267.426L452.215 269.299L449.618 269.963L452.215 270.704L451.091 272.551L449.235 270.704L449.891 273.258H447.805L448.46 270.704L446.562 272.551L445.43 270.704L448.035 269.963L445.43 269.24L446.562 267.341L448.46 269.24L447.805 266.677ZM455.483 266.677H457.646L456.973 269.24L458.897 267.426L459.893 269.299L457.297 269.963L459.893 270.704L458.769 272.551L456.914 270.704L457.569 273.258H455.483L456.139 270.704L454.241 272.551L453.108 270.704L455.713 269.963L453.108 269.24L454.241 267.341L456.139 269.24L455.483 266.677ZM463.162 266.677H465.324L464.652 269.24L466.576 267.426L467.572 269.299L464.975 269.963L467.572 270.704L466.448 272.551L464.592 270.704L465.248 273.258H463.162L463.818 270.704L461.919 272.551L460.787 270.704L463.392 269.963L460.787 269.24L461.919 267.341L463.818 269.24L463.162 266.677Z" fill="white"/>
<path d="M30.377 157.389H33.6204L32.6116 161.232L35.4975 158.512L36.9915 161.322L33.0969 162.318L36.9915 163.429L35.3059 166.2L32.5222 163.429L33.5055 167.259H30.377L31.3602 163.429L28.5127 166.2L26.8144 163.429L30.7218 162.318L26.8144 161.232L28.5127 158.385L31.3602 161.232L30.377 157.389ZM41.8949 157.389H45.1383L44.1295 161.232L47.0153 158.512L48.5094 161.322L44.6147 162.318L48.5094 163.429L46.8238 166.2L44.0401 163.429L45.0233 167.259H41.8949L42.8781 163.429L40.0306 166.2L38.3323 163.429L42.2396 162.318L38.3323 161.232L40.0306 158.385L42.8781 161.232L41.8949 157.389ZM53.4127 157.389H56.6561L55.6474 161.232L58.5332 158.512L60.0272 161.322L56.1326 162.318L60.0272 163.429L58.3417 166.2L55.558 163.429L56.5412 167.259H53.4127L54.396 163.429L51.5484 166.2L49.8501 163.429L53.7575 162.318L49.8501 161.232L51.5484 158.385L54.396 161.232L53.4127 157.389ZM64.9306 157.389H68.174L67.1652 161.232L70.0511 158.512L71.5451 161.322L67.6505 162.318L71.5451 163.429L69.8595 166.2L67.0758 163.429L68.0591 167.259H64.9306L65.9138 163.429L63.0663 166.2L61.368 163.429L65.2754 162.318L61.368 161.232L63.0663 158.385L65.9138 161.232L64.9306 157.389Z" fill="white"/>
<path d="M113.191 157.389H116.435L115.426 161.232L118.312 158.512L119.806 161.322L115.911 162.318L119.806 163.429L118.12 166.2L115.337 163.429L116.32 167.259H113.191L114.175 163.429L111.327 166.2L109.629 163.429L113.536 162.318L109.629 161.232L111.327 158.385L114.175 161.232L113.191 157.389ZM124.709 157.389H127.953L126.944 161.232L129.83 158.512L131.324 161.322L127.429 162.318L131.324 163.429L129.638 166.2L126.855 163.429L127.838 167.259H124.709L125.693 163.429L122.845 166.2L121.147 163.429L125.054 162.318L121.147 161.232L122.845 158.385L125.693 161.232L124.709 157.389ZM136.227 157.389H139.471L138.462 161.232L141.348 158.512L142.842 161.322L138.947 162.318L142.842 163.429L141.156 166.2L138.372 163.429L139.356 167.259H136.227L137.21 163.429L134.363 166.2L132.665 163.429L136.572 162.318L132.665 161.232L134.363 158.385L137.21 161.232L136.227 157.389ZM147.745 157.389H150.988L149.98 161.232L152.866 158.512L154.36 161.322L150.465 162.318L154.36 163.429L152.674 166.2L149.89 163.429L150.874 167.259H147.745L148.728 163.429L145.881 166.2L144.182 163.429L148.09 162.318L144.182 161.232L145.881 158.385L148.728 161.232L147.745 157.389Z" fill="white"/>
<path d="M197.453 157.389H200.697L199.688 161.232L202.574 158.512L204.068 161.322L200.173 162.318L204.068 163.429L202.382 166.2L199.598 163.429L200.582 167.259H197.453L198.436 163.429L195.589 166.2L193.891 163.429L197.798 162.318L193.891 161.232L195.589 158.385L198.436 161.232L197.453 157.389ZM208.971 157.389H212.214L211.206 161.232L214.092 158.512L215.586 161.322L211.691 162.318L215.586 163.429L213.9 166.2L211.116 163.429L212.1 167.259H208.971L209.954 163.429L207.107 166.2L205.408 163.429L209.316 162.318L205.408 161.232L207.107 158.385L209.954 161.232L208.971 157.389ZM220.489 157.389H223.732L222.724 161.232L225.609 158.512L227.103 161.322L223.209 162.318L227.103 163.429L225.418 166.2L222.634 163.429L223.617 167.259H220.489L221.472 163.429L218.625 166.2L216.926 163.429L220.834 162.318L216.926 161.232L218.625 158.385L221.472 161.232L220.489 157.389ZM232.007 157.389H235.25L234.241 161.232L237.127 158.512L238.621 161.322L234.727 162.318L238.621 163.429L236.936 166.2L234.152 163.429L235.135 167.259H232.007L232.99 163.429L230.142 166.2L228.444 163.429L232.352 162.318L228.444 161.232L230.142 158.385L232.99 161.232L232.007 157.389Z" fill="white"/>
<path d="M277.361 157.389H280.605L279.596 161.232L282.482 158.512L283.976 161.322L280.081 162.318L283.976 163.429L282.29 166.2L279.507 163.429L280.49 167.259H277.361L278.345 163.429L275.497 166.2L273.799 163.429L277.706 162.318L273.799 161.232L275.497 158.385L278.345 161.232L277.361 157.389ZM288.879 157.389H292.123L291.114 161.232L294 158.512L295.494 161.322L291.599 162.318L295.494 163.429L293.808 166.2L291.024 163.429L292.008 167.259H288.879L289.862 163.429L287.015 166.2L285.317 163.429L289.224 162.318L285.317 161.232L287.015 158.385L289.862 161.232L288.879 157.389ZM300.397 157.389H303.641L302.632 161.232L305.518 158.512L307.012 161.322L303.117 162.318L307.012 163.429L305.326 166.2L302.542 163.429L303.526 167.259H300.397L301.38 163.429L298.533 166.2L296.834 163.429L300.742 162.318L296.834 161.232L298.533 158.385L301.38 161.232L300.397 157.389ZM311.915 157.389H315.158L314.15 161.232L317.035 158.512L318.529 161.322L314.635 162.318L318.529 163.429L316.844 166.2L314.06 163.429L315.043 167.259H311.915L312.898 163.429L310.051 166.2L308.352 163.429L312.26 162.318L308.352 161.232L310.051 158.385L312.898 161.232L311.915 157.389Z" fill="white"/>
<defs>
<linearGradient id="paint0_linear_30_29300" x1="0" y1="149.629" x2="508.5" y2="149.629" gradientUnits="userSpaceOnUse">
<stop stop-color="#832388"/>
<stop offset="0.508333" stop-color="#932883"/>
<stop offset="1" stop-color="#A32E7E"/>
</linearGradient>
<linearGradient id="paint1_linear_30_29300" x1="82.8136" y1="105.317" x2="731.514" y2="585.486" gradientUnits="userSpaceOnUse">
<stop stop-color="white"/>
<stop offset="0.342546" stop-color="white" stop-opacity="0"/>
</linearGradient>
<linearGradient id="paint2_linear_30_29300" x1="0" y1="160.814" x2="508.5" y2="160.814" gradientUnits="userSpaceOnUse">
<stop stop-color="#832388"/>
<stop offset="0.508333" stop-color="#932883"/>
<stop offset="1" stop-color="#A32E7E"/>
</linearGradient>
<clipPath id="clip0_30_29300">
<rect width="72.6429" height="44.1555" fill="white" transform="translate(409.705 38.7747)"/>
</clipPath>
</defs>
</svg>
