<svg width="255" height="123" viewBox="0 0 255 123" fill="none" xmlns="http://www.w3.org/2000/svg">
<rect width="255" height="123" rx="4" fill="url(#paint0_linear_1_29188)"/>
<path d="M24.0664 96V81.6348H24.3789L33.9297 92.6309V81.6348H35.3457V96H35.0234L25.5508 85.1406V96H24.0664ZM47.282 92.4746L48.4344 93.0801C48.0568 93.8223 47.6206 94.4212 47.1258 94.877C46.631 95.3327 46.0743 95.681 45.4559 95.9219C44.8374 96.1562 44.1375 96.2734 43.3562 96.2734C41.6245 96.2734 40.2703 95.707 39.2937 94.5742C38.3172 93.4349 37.8289 92.1491 37.8289 90.7168C37.8289 89.3691 38.2423 88.168 39.0691 87.1133C40.1173 85.7721 41.5203 85.1016 43.2781 85.1016C45.088 85.1016 46.5333 85.7884 47.6141 87.1621C48.3823 88.1322 48.7729 89.3431 48.7859 90.7949H39.2352C39.2612 92.0319 39.6551 93.0475 40.4168 93.8418C41.1785 94.6296 42.1193 95.0234 43.2391 95.0234C43.7794 95.0234 44.3035 94.929 44.8113 94.7402C45.3257 94.5514 45.7618 94.3008 46.1199 93.9883C46.478 93.6758 46.8654 93.1712 47.282 92.4746ZM47.282 89.6133C47.0997 88.8841 46.8328 88.3014 46.4812 87.8652C46.1362 87.429 45.6772 87.0775 45.1043 86.8105C44.5314 86.5436 43.9292 86.4102 43.2977 86.4102C42.256 86.4102 41.3608 86.7454 40.6121 87.416C40.0652 87.9043 39.6518 88.6367 39.3719 89.6133H47.282ZM49.609 85.375H51.0152L54.2672 93.0898L57.6754 85.375H57.9195L61.318 93.0898L64.6285 85.375H66.0543L61.4449 96H61.1812L57.8023 88.3926L54.3941 96H54.1402L49.609 85.375ZM72.0949 85.375H73.4914V86.9277C73.9081 86.3158 74.3475 85.86 74.8098 85.5605C75.272 85.2546 75.7538 85.1016 76.2551 85.1016C76.6327 85.1016 77.0363 85.222 77.466 85.4629L76.7531 86.6152C76.4667 86.4915 76.2258 86.4297 76.0305 86.4297C75.5747 86.4297 75.1353 86.6185 74.7121 86.9961C74.2889 87.3672 73.9667 87.9466 73.7453 88.7344C73.576 89.3398 73.4914 90.5638 73.4914 92.4062V96H72.0949V85.375ZM87.2734 92.4746L88.4258 93.0801C88.0482 93.8223 87.612 94.4212 87.1172 94.877C86.6224 95.3327 86.0658 95.681 85.4473 95.9219C84.8288 96.1562 84.1289 96.2734 83.3477 96.2734C81.6159 96.2734 80.2617 95.707 79.2852 94.5742C78.3086 93.4349 77.8203 92.1491 77.8203 90.7168C77.8203 89.3691 78.2337 88.168 79.0605 87.1133C80.1087 85.7721 81.5117 85.1016 83.2695 85.1016C85.0794 85.1016 86.5247 85.7884 87.6055 87.1621C88.3737 88.1322 88.7643 89.3431 88.7773 90.7949H79.2266C79.2526 92.0319 79.6465 93.0475 80.4082 93.8418C81.1699 94.6296 82.1107 95.0234 83.2305 95.0234C83.7708 95.0234 84.2949 94.929 84.8027 94.7402C85.3171 94.5514 85.7533 94.3008 86.1113 93.9883C86.4694 93.6758 86.8568 93.1712 87.2734 92.4746ZM87.2734 89.6133C87.0911 88.8841 86.8242 88.3014 86.4727 87.8652C86.1276 87.429 85.6686 87.0775 85.0957 86.8105C84.5228 86.5436 83.9206 86.4102 83.2891 86.4102C82.2474 86.4102 81.3522 86.7454 80.6035 87.416C80.0566 87.9043 79.6432 88.6367 79.3633 89.6133H87.2734ZM101.612 85.375V99.8867H100.264V94.1738C99.6915 94.8704 99.047 95.3945 98.3309 95.7461C97.6212 96.0977 96.8432 96.2734 95.9969 96.2734C94.493 96.2734 93.2072 95.7298 92.1395 94.6426C91.0783 93.5488 90.5477 92.2207 90.5477 90.6582C90.5477 89.1283 91.0848 87.8197 92.159 86.7324C93.2332 85.6452 94.5255 85.1016 96.0359 85.1016C96.9083 85.1016 97.6961 85.2871 98.3992 85.6582C99.1089 86.0293 99.7306 86.5859 100.264 87.3281V85.375H101.612ZM96.1434 86.4199C95.3816 86.4199 94.6785 86.6087 94.034 86.9863C93.3895 87.3574 92.8751 87.8815 92.491 88.5586C92.1134 89.2357 91.9246 89.9518 91.9246 90.707C91.9246 91.4557 92.1167 92.1719 92.5008 92.8555C92.8849 93.5391 93.3992 94.0729 94.0437 94.457C94.6948 94.8346 95.3914 95.0234 96.1336 95.0234C96.8823 95.0234 97.5919 94.8346 98.2625 94.457C98.9331 94.0794 99.4474 93.5684 99.8055 92.9238C100.17 92.2793 100.352 91.5534 100.352 90.7461C100.352 89.5156 99.9454 88.487 99.1316 87.6602C98.3243 86.8333 97.3283 86.4199 96.1434 86.4199ZM104.213 85.375H105.589V90.3359C105.589 91.5469 105.655 92.3802 105.785 92.8359C105.98 93.487 106.351 94.0013 106.898 94.3789C107.451 94.7565 108.109 94.9453 108.871 94.9453C109.632 94.9453 110.277 94.763 110.804 94.3984C111.338 94.0273 111.706 93.5423 111.908 92.9434C112.045 92.5332 112.113 91.6641 112.113 90.3359V85.375H113.509V90.5898C113.509 92.0547 113.337 93.1582 112.992 93.9004C112.653 94.6426 112.139 95.2253 111.449 95.6484C110.765 96.0651 109.906 96.2734 108.871 96.2734C107.836 96.2734 106.97 96.0651 106.273 95.6484C105.583 95.2253 105.065 94.6393 104.72 93.8906C104.382 93.1354 104.213 92.0026 104.213 90.4922V85.375ZM125.202 92.4746L126.354 93.0801C125.976 93.8223 125.54 94.4212 125.045 94.877C124.551 95.3327 123.994 95.681 123.375 95.9219C122.757 96.1562 122.057 96.2734 121.276 96.2734C119.544 96.2734 118.19 95.707 117.213 94.5742C116.237 93.4349 115.748 92.1491 115.748 90.7168C115.748 89.3691 116.162 88.168 116.989 87.1133C118.037 85.7721 119.44 85.1016 121.198 85.1016C123.008 85.1016 124.453 85.7884 125.534 87.1621C126.302 88.1322 126.692 89.3431 126.705 90.7949H117.155C117.181 92.0319 117.575 93.0475 118.336 93.8418C119.098 94.6296 120.039 95.0234 121.159 95.0234C121.699 95.0234 122.223 94.929 122.731 94.7402C123.245 94.5514 123.681 94.3008 124.039 93.9883C124.398 93.6758 124.785 93.1712 125.202 92.4746ZM125.202 89.6133C125.019 88.8841 124.752 88.3014 124.401 87.8652C124.056 87.429 123.597 87.0775 123.024 86.8105C122.451 86.5436 121.849 86.4102 121.217 86.4102C120.176 86.4102 119.28 86.7454 118.532 87.416C117.985 87.9043 117.571 88.6367 117.291 89.6133H125.202ZM134.306 86.5371L133.427 87.4453C132.698 86.7357 131.985 86.3809 131.288 86.3809C130.846 86.3809 130.465 86.5273 130.146 86.8203C129.833 87.1133 129.677 87.4551 129.677 87.8457C129.677 88.1908 129.807 88.5195 130.068 88.832C130.328 89.151 130.875 89.5254 131.708 89.9551C132.724 90.4824 133.414 90.9902 133.779 91.4785C134.137 91.9733 134.316 92.5299 134.316 93.1484C134.316 94.0208 134.01 94.7598 133.398 95.3652C132.786 95.9707 132.021 96.2734 131.103 96.2734C130.491 96.2734 129.905 96.14 129.345 95.873C128.792 95.6061 128.333 95.2383 127.968 94.7695L128.827 93.793C129.524 94.5807 130.263 94.9746 131.044 94.9746C131.591 94.9746 132.057 94.7988 132.441 94.4473C132.825 94.0957 133.017 93.6823 133.017 93.207C133.017 92.8164 132.89 92.4681 132.636 92.1621C132.382 91.8626 131.809 91.485 130.917 91.0293C129.96 90.5345 129.309 90.0462 128.964 89.5645C128.619 89.0827 128.446 88.5326 128.446 87.9141C128.446 87.1068 128.72 86.4362 129.267 85.9023C129.82 85.3685 130.517 85.1016 131.357 85.1016C132.333 85.1016 133.316 85.5801 134.306 86.5371ZM137.629 81.4297H139.006V85.375H141.174V86.5469H139.006V96H137.629V86.5469H135.764V85.375H137.629V81.4297Z" fill="white"/>
<path d="M46.0013 63.8332C54.7458 63.8332 61.8346 56.7443 61.8346 47.9998C61.8346 39.2553 54.7458 32.1665 46.0013 32.1665C37.2568 32.1665 30.168 39.2553 30.168 47.9998C30.168 56.7443 37.2568 63.8332 46.0013 63.8332Z" stroke="white" stroke-linecap="round" stroke-linejoin="round"/>
<path d="M46 41.6665V54.3332" stroke="white" stroke-linecap="round" stroke-linejoin="round"/>
<path d="M39.668 48H52.3346" stroke="white" stroke-linecap="round" stroke-linejoin="round"/>
<defs>
<linearGradient id="paint0_linear_1_29188" x1="111.375" y1="5.76563" x2="111.375" y2="123" gradientUnits="userSpaceOnUse">
<stop stop-color="#E32526"/>
<stop offset="1" stop-color="#490D0D"/>
</linearGradient>
</defs>
</svg>
