<svg width="150" height="80" viewBox="0 0 150 80" fill="none" xmlns="http://www.w3.org/2000/svg">
<rect width="150" height="80" rx="8" fill="url(#paint0_linear_1_29605)"/>
<path d="M82.5 28.0834C82.5029 29.1832 82.2459 30.2683 81.75 31.25C81.162 32.4265 80.2581 33.416 79.1395 34.1078C78.021 34.7995 76.7319 35.1662 75.4167 35.1667C74.3168 35.1696 73.2318 34.9126 72.25 34.4167L67.5 36L69.0833 31.25C68.5874 30.2683 68.3305 29.1832 68.3333 28.0834C68.3338 26.7682 68.7005 25.4791 69.3923 24.3605C70.084 23.2419 71.0735 22.338 72.25 21.75C73.2318 21.2541 74.3168 20.9972 75.4167 21H75.8333C77.5703 21.0959 79.2109 21.829 80.4409 23.0591C81.671 24.2892 82.4042 25.9297 82.5 27.6667V28.0834Z" stroke="white" stroke-linecap="round" stroke-linejoin="round"/>
<path d="M67.1016 49.1406L66.1953 49.8359C65.6953 49.1849 65.0938 48.6927 64.3906 48.3594C63.6927 48.0208 62.9245 47.8516 62.0859 47.8516C61.1693 47.8516 60.3203 48.0729 59.5391 48.5156C58.7578 48.9531 58.151 49.5443 57.7188 50.2891C57.2917 51.0286 57.0781 51.862 57.0781 52.7891C57.0781 54.1901 57.5573 55.3594 58.5156 56.2969C59.4792 57.2344 60.6927 57.7031 62.1562 57.7031C63.7656 57.7031 65.112 57.0729 66.1953 55.8125L67.1016 56.5C66.5286 57.2292 65.8125 57.7943 64.9531 58.1953C64.099 58.5911 63.1432 58.7891 62.0859 58.7891C60.0755 58.7891 58.4896 58.1198 57.3281 56.7812C56.3542 55.651 55.8672 54.2865 55.8672 52.6875C55.8672 51.0052 56.4557 49.5911 57.6328 48.4453C58.8151 47.2943 60.2943 46.7188 62.0703 46.7188C63.1432 46.7188 64.112 46.9323 64.9766 47.3594C65.8411 47.7812 66.5495 48.375 67.1016 49.1406ZM69.2344 46.7188H70.3281V51.5234C70.7708 50.9401 71.2578 50.5052 71.7891 50.2188C72.3203 49.9271 72.8958 49.7812 73.5156 49.7812C74.151 49.7812 74.7135 49.9427 75.2031 50.2656C75.6979 50.5885 76.0625 51.0234 76.2969 51.5703C76.5312 52.112 76.6484 52.9635 76.6484 54.125V58.5H75.5547V54.4453C75.5547 53.4661 75.5156 52.8125 75.4375 52.4844C75.3021 51.9219 75.0547 51.5 74.6953 51.2188C74.3411 50.9323 73.875 50.7891 73.2969 50.7891C72.6354 50.7891 72.0417 51.0078 71.5156 51.4453C70.9948 51.8828 70.651 52.4245 70.4844 53.0703C70.3802 53.487 70.3281 54.2578 70.3281 55.3828V58.5H69.2344V46.7188ZM87.4688 50V58.5H86.3906V57.0391C85.9323 57.5964 85.4167 58.0156 84.8438 58.2969C84.276 58.5781 83.6536 58.7188 82.9766 58.7188C81.7734 58.7188 80.7448 58.2839 79.8906 57.4141C79.0417 56.5391 78.6172 55.4766 78.6172 54.2266C78.6172 53.0026 79.0469 51.9557 79.9062 51.0859C80.7656 50.2161 81.7995 49.7812 83.0078 49.7812C83.7057 49.7812 84.3359 49.9297 84.8984 50.2266C85.4661 50.5234 85.9635 50.9688 86.3906 51.5625V50H87.4688ZM83.0938 50.8359C82.4844 50.8359 81.9219 50.987 81.4062 51.2891C80.8906 51.5859 80.4792 52.0052 80.1719 52.5469C79.8698 53.0885 79.7188 53.6615 79.7188 54.2656C79.7188 54.8646 79.8724 55.4375 80.1797 55.9844C80.487 56.5312 80.8984 56.9583 81.4141 57.2656C81.9349 57.5677 82.4922 57.7188 83.0859 57.7188C83.6849 57.7188 84.2526 57.5677 84.7891 57.2656C85.3255 56.9635 85.737 56.5547 86.0234 56.0391C86.3151 55.5234 86.4609 54.9427 86.4609 54.2969C86.4609 53.3125 86.1354 52.4896 85.4844 51.8281C84.8385 51.1667 84.0417 50.8359 83.0938 50.8359ZM90.8906 46.8438H91.9922V50H93.7266V50.9375H91.9922V58.5H90.8906V50.9375H89.3984V50H90.8906V46.8438Z" fill="white"/>
<defs>
<linearGradient id="paint0_linear_1_29605" x1="2.23517e-06" y1="80" x2="135.114" y2="-20.0944" gradientUnits="userSpaceOnUse">
<stop stop-color="#2B2B2B"/>
<stop offset="1" stop-color="#606161"/>
</linearGradient>
</defs>
</svg>
