<svg width="150" height="80" viewBox="0 0 150 80" fill="none" xmlns="http://www.w3.org/2000/svg">
<rect width="150" height="80" rx="8" fill="url(#paint0_linear_1_29599)"/>
<path d="M68.3346 21.833H81.668C82.5846 21.833 83.3346 22.583 83.3346 23.4997V33.4997C83.3346 34.4163 82.5846 35.1663 81.668 35.1663H68.3346C67.418 35.1663 66.668 34.4163 66.668 33.4997V23.4997C66.668 22.583 67.418 21.833 68.3346 21.833Z" stroke="white" stroke-linecap="round" stroke-linejoin="round"/>
<path d="M83.3346 23.5L75.0013 29.3333L66.668 23.5" stroke="white" stroke-linecap="round" stroke-linejoin="round"/>
<path d="M59.375 58.5L61.0078 47.0078H61.1953L65.8672 56.4375L70.4922 47.0078H70.6797L72.3281 58.5H71.1953L70.0703 50.2812L66.0078 58.5H65.7188L61.6016 50.2188L60.4844 58.5H59.375ZM82.8906 50V58.5H81.8125V57.0391C81.3542 57.5964 80.8385 58.0156 80.2656 58.2969C79.6979 58.5781 79.0755 58.7188 78.3984 58.7188C77.1953 58.7188 76.1667 58.2839 75.3125 57.4141C74.4635 56.5391 74.0391 55.4766 74.0391 54.2266C74.0391 53.0026 74.4688 51.9557 75.3281 51.0859C76.1875 50.2161 77.2214 49.7812 78.4297 49.7812C79.1276 49.7812 79.7578 49.9297 80.3203 50.2266C80.888 50.5234 81.3854 50.9688 81.8125 51.5625V50H82.8906ZM78.5156 50.8359C77.9062 50.8359 77.3438 50.987 76.8281 51.2891C76.3125 51.5859 75.901 52.0052 75.5938 52.5469C75.2917 53.0885 75.1406 53.6615 75.1406 54.2656C75.1406 54.8646 75.2943 55.4375 75.6016 55.9844C75.9089 56.5312 76.3203 56.9583 76.8359 57.2656C77.3568 57.5677 77.9141 57.7188 78.5078 57.7188C79.1068 57.7188 79.6745 57.5677 80.2109 57.2656C80.7474 56.9635 81.1589 56.5547 81.4453 56.0391C81.737 55.5234 81.8828 54.9427 81.8828 54.2969C81.8828 53.3125 81.5573 52.4896 80.9062 51.8281C80.2604 51.1667 79.4635 50.8359 78.5156 50.8359ZM85.7422 46.5C85.9922 46.5 86.2057 46.5885 86.3828 46.7656C86.5599 46.9427 86.6484 47.1562 86.6484 47.4062C86.6484 47.651 86.5599 47.862 86.3828 48.0391C86.2057 48.2161 85.9922 48.3047 85.7422 48.3047C85.4974 48.3047 85.2865 48.2161 85.1094 48.0391C84.9323 47.862 84.8438 47.651 84.8438 47.4062C84.8438 47.1562 84.9323 46.9427 85.1094 46.7656C85.2865 46.5885 85.4974 46.5 85.7422 46.5ZM85.1953 50H86.2969V58.5H85.1953V50ZM88.3984 46.7188H89.4922V58.5H88.3984V46.7188Z" fill="white"/>
<defs>
<linearGradient id="paint0_linear_1_29599" x1="2.23517e-06" y1="80" x2="135.114" y2="-20.0944" gradientUnits="userSpaceOnUse">
<stop stop-color="#2B2B2B"/>
<stop offset="1" stop-color="#606161"/>
</linearGradient>
</defs>
</svg>
