<svg width="150" height="80" viewBox="0 0 150 80" fill="none" xmlns="http://www.w3.org/2000/svg">
<rect width="150" height="80" rx="8" fill="url(#paint0_linear_1_29594)"/>
<g clip-path="url(#clip0_1_29594)">
<path d="M77.5435 22.6663C78.3574 22.8251 79.1055 23.2232 79.6919 23.8096C80.2783 24.396 80.6763 25.1441 80.8351 25.958L77.5435 22.6663ZM77.5435 19.333C79.2345 19.5209 80.8115 20.2782 82.0153 21.4805C83.2192 22.6829 83.9785 24.2588 84.1685 25.9497L77.5435 19.333ZM83.3351 32.5997V35.0997C83.3361 35.3318 83.2886 35.5615 83.1956 35.7741C83.1026 35.9868 82.9662 36.1777 82.7952 36.3346C82.6242 36.4915 82.4223 36.6109 82.2024 36.6853C81.9826 36.7596 81.7496 36.7872 81.5185 36.7663C78.9542 36.4877 76.491 35.6115 74.3268 34.208C72.3133 32.9286 70.6063 31.2215 69.3268 29.208C67.9185 27.034 67.042 24.5588 66.7685 21.983C66.7477 21.7526 66.775 21.5203 66.8489 21.301C66.9228 21.0817 67.0415 20.8802 67.1975 20.7094C67.3535 20.5385 67.5433 20.4019 67.755 20.3084C67.9666 20.215 68.1954 20.1666 68.4268 20.1663H70.9268C71.3312 20.1624 71.7233 20.3056 72.03 20.5693C72.3366 20.833 72.5369 21.1992 72.5935 21.5997C72.699 22.3997 72.8947 23.1853 73.1768 23.9413C73.2889 24.2396 73.3132 24.5638 73.2467 24.8754C73.1803 25.187 73.0259 25.4731 72.8018 25.6997L71.7435 26.758C72.9298 28.8443 74.6572 30.5717 76.7435 31.758L77.8018 30.6997C78.0284 30.4756 78.3144 30.3212 78.6261 30.2548C78.9377 30.1883 79.2619 30.2126 79.5601 30.3247C80.3162 30.6068 81.1018 30.8025 81.9018 30.908C82.3066 30.9651 82.6763 31.169 82.9406 31.4809C83.2049 31.7928 83.3453 32.191 83.3351 32.5997Z" stroke="white" stroke-linecap="round" stroke-linejoin="round"/>
</g>
<path d="M71.6016 49.1406L70.6953 49.8359C70.1953 49.1849 69.5938 48.6927 68.8906 48.3594C68.1927 48.0208 67.4245 47.8516 66.5859 47.8516C65.6693 47.8516 64.8203 48.0729 64.0391 48.5156C63.2578 48.9531 62.651 49.5443 62.2188 50.2891C61.7917 51.0286 61.5781 51.862 61.5781 52.7891C61.5781 54.1901 62.0573 55.3594 63.0156 56.2969C63.9792 57.2344 65.1927 57.7031 66.6562 57.7031C68.2656 57.7031 69.612 57.0729 70.6953 55.8125L71.6016 56.5C71.0286 57.2292 70.3125 57.7943 69.4531 58.1953C68.599 58.5911 67.6432 58.7891 66.5859 58.7891C64.5755 58.7891 62.9896 58.1198 61.8281 56.7812C60.8542 55.651 60.3672 54.2865 60.3672 52.6875C60.3672 51.0052 60.9557 49.5911 62.1328 48.4453C63.3151 47.2943 64.7943 46.7188 66.5703 46.7188C67.6432 46.7188 68.612 46.9323 69.4766 47.3594C70.3411 47.7812 71.0495 48.375 71.6016 49.1406ZM82.2031 50V58.5H81.125V57.0391C80.6667 57.5964 80.151 58.0156 79.5781 58.2969C79.0104 58.5781 78.388 58.7188 77.7109 58.7188C76.5078 58.7188 75.4792 58.2839 74.625 57.4141C73.776 56.5391 73.3516 55.4766 73.3516 54.2266C73.3516 53.0026 73.7812 51.9557 74.6406 51.0859C75.5 50.2161 76.5339 49.7812 77.7422 49.7812C78.4401 49.7812 79.0703 49.9297 79.6328 50.2266C80.2005 50.5234 80.6979 50.9688 81.125 51.5625V50H82.2031ZM77.8281 50.8359C77.2188 50.8359 76.6562 50.987 76.1406 51.2891C75.625 51.5859 75.2135 52.0052 74.9062 52.5469C74.6042 53.0885 74.4531 53.6615 74.4531 54.2656C74.4531 54.8646 74.6068 55.4375 74.9141 55.9844C75.2214 56.5312 75.6328 56.9583 76.1484 57.2656C76.6693 57.5677 77.2266 57.7188 77.8203 57.7188C78.4193 57.7188 78.987 57.5677 79.5234 57.2656C80.0599 56.9635 80.4714 56.5547 80.7578 56.0391C81.0495 55.5234 81.1953 54.9427 81.1953 54.2969C81.1953 53.3125 80.8698 52.4896 80.2188 51.8281C79.5729 51.1667 78.776 50.8359 77.8281 50.8359ZM84.5078 46.7188H85.6016V58.5H84.5078V46.7188ZM87.7109 46.7188H88.8047V58.5H87.7109V46.7188Z" fill="white"/>
<defs>
<linearGradient id="paint0_linear_1_29594" x1="2.23517e-06" y1="80" x2="135.114" y2="-20.0944" gradientUnits="userSpaceOnUse">
<stop stop-color="#2B2B2B"/>
<stop offset="1" stop-color="#606161"/>
</linearGradient>
<clipPath id="clip0_1_29594">
<rect width="20" height="20" fill="white" transform="translate(65 18.5)"/>
</clipPath>
</defs>
</svg>
