<svg width="84" height="84" viewBox="0 0 84 84" fill="none" xmlns="http://www.w3.org/2000/svg">
<rect width="83.935" height="83.935" rx="41.9675" transform="matrix(-1 0 0 1 83.9355 0)" fill="#FFD7D7"/>
<path d="M60.8528 23.0859L23.082 23.0859C22.5255 23.0859 21.9918 23.307 21.5983 23.7005C21.2047 24.0941 20.9837 24.6278 20.9837 25.1843L20.9837 58.7583C20.9837 59.3148 21.2047 59.8486 21.5983 60.2421C21.9918 60.6356 22.5255 60.8567 23.082 60.8567L60.8528 60.8567C61.4093 60.8567 61.9431 60.6356 62.3366 60.2421C62.7301 59.8486 62.9512 59.3148 62.9512 58.7583L62.9512 25.1843C62.9512 24.6278 62.7301 24.0941 62.3366 23.7005C61.9431 23.307 61.4093 23.0859 60.8528 23.0859ZM36.1067 37.3402L41.2477 42.4812L45.6983 38.0285L54.6017 46.9319L51.6346 49.899L45.6983 43.9648L41.2477 48.4154L33.1395 40.3073L29.3772 44.0697V33.5778H39.869L36.1067 37.3402Z" fill="#E80000"/>
</svg>
