<svg width="84" height="84" viewBox="0 0 84 84" fill="none" xmlns="http://www.w3.org/2000/svg">
<rect width="83.935" height="83.935" rx="41.9675" transform="matrix(1 0 0 -1 0 83.9336)" fill="#FFD7D7"/>
<path d="M62.9519 52.4581H20.9844V58.7532C20.9844 59.3097 21.2055 59.8434 21.599 60.237C21.9925 60.6305 22.5262 60.8516 23.0828 60.8516H60.8535C61.41 60.8516 61.9438 60.6305 62.3373 60.237C62.7308 59.8434 62.9519 59.3097 62.9519 58.7532V52.4581ZM62.9519 48.2613V25.1792C62.9519 24.6227 62.7308 24.0889 62.3373 23.6954C61.9438 23.3019 61.41 23.0808 60.8535 23.0808H23.0828C22.5262 23.0808 21.9925 23.3019 21.599 23.6954C21.2055 24.0889 20.9844 24.6227 20.9844 25.1792V48.2613H62.9519ZM39.8698 37.7694V43.0154L30.4271 33.5727H52.46V37.7694H39.8698Z" fill="#E80000"/>
</svg>
