<svg width="84" height="84" viewBox="0 0 84 84" fill="none" xmlns="http://www.w3.org/2000/svg">
<rect width="83.935" height="83.935" rx="41.9675" transform="matrix(1 0 0 -1 0 83.9336)" fill="#FFD7D7"/>
<path d="M40.9161 47.2152L40.9182 23.0839H29.9018C28.1602 23.0838 26.4845 23.7499 25.2184 24.9458C23.9523 26.1417 23.1917 27.7767 23.0925 29.5154L23.082 29.8994V47.2173H40.9161V47.2152ZM44.0637 34.6271H61.902V29.8994C61.902 28.0907 61.1835 26.3561 59.9045 25.0772C58.6256 23.7982 56.891 23.0797 55.0823 23.0797L44.0658 23.0839L44.0637 34.6271ZM55.0844 61.906C56.826 61.9061 58.5016 61.2399 59.7677 60.0441C61.0338 58.8482 61.7944 57.2132 61.8936 55.4744L61.9041 55.0883L61.902 37.7746H44.0637L44.0658 61.9081H55.0844V61.906ZM40.9182 61.9102L40.9161 50.3628H23.082V55.0883C23.082 56.897 23.8005 58.6317 25.0795 59.9106C26.3584 61.1896 28.093 61.9081 29.9018 61.9081L40.9182 61.9102Z" fill="#E80000"/>
</svg>
