<svg width="84" height="84" viewBox="0 0 84 84" fill="none" xmlns="http://www.w3.org/2000/svg">
<rect width="83.935" height="83.935" rx="41.9675" transform="matrix(-1 0 0 1 83.9355 0)" fill="#FFD7D7"/>
<path d="M37.7707 39.8698C36.022 39.8698 34.5357 39.2577 33.3116 38.0337C32.0876 36.8096 31.4755 35.3233 31.4755 33.5746C31.4755 31.826 32.0876 30.3396 33.3116 29.1156C34.5357 27.8915 36.022 27.2795 37.7707 27.2795C39.5193 27.2795 41.0057 27.8915 42.2297 29.1156C43.4538 30.3396 44.0658 31.826 44.0658 33.5746C44.0658 35.3233 43.4538 36.8096 42.2297 38.0337C41.0057 39.2577 39.5193 39.8698 37.7707 39.8698ZM50.3609 54.5584C51.515 54.5584 52.5027 54.1478 53.3238 53.3266C54.1464 52.5041 54.5577 51.5157 54.5577 50.3616L54.5577 25.1811C54.5577 24.027 54.1464 23.0387 53.3238 22.2161C52.5027 21.395 51.515 20.9844 50.3609 20.9844L25.1804 20.9844C24.0263 20.9844 23.038 21.395 22.2154 22.2161C21.3942 23.0387 20.9837 24.027 20.9837 25.1811L20.9837 50.3616C20.9837 51.5157 21.3942 52.5041 22.2154 53.3266C23.038 54.1478 24.0263 54.5584 25.1804 54.5584L50.3609 54.5584ZM58.7544 62.9519C59.9085 62.9519 60.8962 62.5413 61.7173 61.7201C62.5399 60.8976 62.9512 59.9092 62.9512 58.7551L62.9512 31.4763C62.9512 30.8817 62.7497 30.383 62.3468 29.9801C61.9454 29.5786 61.4473 29.3779 60.8528 29.3779C60.2583 29.3779 59.7595 29.5786 59.3567 29.9801C58.9552 30.383 58.7544 30.8817 58.7544 31.4763L58.7544 58.7551L31.4755 58.7551C30.881 58.7551 30.383 58.9566 29.9815 59.3595C29.5786 59.761 29.3772 60.259 29.3772 60.8535C29.3772 61.4481 29.5786 61.9461 29.9815 62.3476C30.383 62.7504 30.881 62.9519 31.4755 62.9519L58.7544 62.9519ZM50.3609 50.3616L25.1804 50.3616C26.7192 48.2982 28.5728 46.7328 30.7411 45.6655C32.9094 44.5995 35.2526 44.0665 37.7707 44.0665C40.2887 44.0665 42.6319 44.5995 44.8002 45.6655C46.9685 46.7328 48.8221 48.2982 50.3609 50.3616Z" fill="#E80000"/>
</svg>
