<svg width="255" height="123" viewBox="0 0 255 123" fill="none" xmlns="http://www.w3.org/2000/svg">
<rect width="255" height="123" rx="4" fill="#FE0000"/>
<path d="M14.6887 81.6348H16.2512L21.007 92.7383L25.8508 81.6348H27.4133L21.1633 96H20.8508L14.6887 81.6348ZM29.7793 81C30.0918 81 30.3587 81.1107 30.5801 81.332C30.8014 81.5534 30.9121 81.8203 30.9121 82.1328C30.9121 82.4388 30.8014 82.7025 30.5801 82.9238C30.3587 83.1452 30.0918 83.2559 29.7793 83.2559C29.4733 83.2559 29.2096 83.1452 28.9883 82.9238C28.7669 82.7025 28.6563 82.4388 28.6563 82.1328C28.6563 81.8203 28.7669 81.5534 28.9883 81.332C29.2096 81.1107 29.4733 81 29.7793 81ZM29.0957 85.375H30.4727V96H29.0957V85.375ZM41.95 92.4746L43.1023 93.0801C42.7247 93.8223 42.2885 94.4212 41.7938 94.877C41.299 95.3327 40.7423 95.681 40.1238 95.9219C39.5053 96.1562 38.8055 96.2734 38.0242 96.2734C36.2925 96.2734 34.9383 95.707 33.9617 94.5742C32.9852 93.4349 32.4969 92.1491 32.4969 90.7168C32.4969 89.3691 32.9103 88.168 33.7371 87.1133C34.7853 85.7721 36.1883 85.1016 37.9461 85.1016C39.756 85.1016 41.2013 85.7884 42.282 87.1621C43.0503 88.1322 43.4409 89.3431 43.4539 90.7949H33.9031C33.9292 92.0319 34.323 93.0475 35.0848 93.8418C35.8465 94.6296 36.7872 95.0234 37.907 95.0234C38.4474 95.0234 38.9715 94.929 39.4793 94.7402C39.9936 94.5514 40.4298 94.3008 40.7879 93.9883C41.146 93.6758 41.5333 93.1712 41.95 92.4746ZM41.95 89.6133C41.7677 88.8841 41.5008 88.3014 41.1492 87.8652C40.8042 87.429 40.3452 87.0775 39.7723 86.8105C39.1994 86.5436 38.5971 86.4102 37.9656 86.4102C36.924 86.4102 36.0288 86.7454 35.2801 87.416C34.7332 87.9043 34.3198 88.6367 34.0398 89.6133H41.95ZM44.277 85.375H45.6832L48.9352 93.0898L52.3434 85.375H52.5875L55.9859 93.0898L59.2965 85.375H60.7223L56.1129 96H55.8492L52.4703 88.3926L49.0621 96H48.8082L44.277 85.375ZM67.5832 81.6348H70.4445C72.0396 81.6348 73.1203 81.6999 73.6867 81.8301C74.5396 82.0254 75.2329 82.4453 75.7668 83.0898C76.3007 83.7279 76.5676 84.5156 76.5676 85.4531C76.5676 86.2344 76.382 86.9212 76.0109 87.5137C75.6464 88.1061 75.1223 88.5553 74.4387 88.8613C73.7551 89.1608 72.8111 89.3138 71.6066 89.3203L76.7727 96H74.9953L69.8391 89.3203H69.0188V96H67.5832V81.6348ZM69.0188 83.041V87.9238L71.4895 87.9434C72.4465 87.9434 73.1529 87.8522 73.6086 87.6699C74.0708 87.4876 74.4289 87.1979 74.6828 86.8008C74.9432 86.3971 75.0734 85.9479 75.0734 85.4531C75.0734 84.9714 74.9432 84.5352 74.6828 84.1445C74.4224 83.7474 74.0806 83.4642 73.6574 83.2949C73.2342 83.1257 72.5311 83.041 71.548 83.041H69.0188ZM88.0742 92.4746L89.2266 93.0801C88.849 93.8223 88.4128 94.4212 87.918 94.877C87.4232 95.3327 86.8665 95.681 86.2481 95.9219C85.6296 96.1562 84.9297 96.2734 84.1484 96.2734C82.4167 96.2734 81.0625 95.707 80.0859 94.5742C79.1094 93.4349 78.6211 92.1491 78.6211 90.7168C78.6211 89.3691 79.0345 88.168 79.8613 87.1133C80.9095 85.7721 82.3125 85.1016 84.0703 85.1016C85.8802 85.1016 87.3255 85.7884 88.4063 87.1621C89.1745 88.1322 89.5651 89.3431 89.5781 90.7949H80.0273C80.0534 92.0319 80.4473 93.0475 81.209 93.8418C81.9707 94.6296 82.9115 95.0234 84.0313 95.0234C84.5716 95.0234 85.0957 94.929 85.6035 94.7402C86.1178 94.5514 86.554 94.3008 86.9121 93.9883C87.2702 93.6758 87.6576 93.1712 88.0742 92.4746ZM88.0742 89.6133C87.8919 88.8841 87.625 88.3014 87.2734 87.8652C86.9284 87.429 86.4694 87.0775 85.8965 86.8105C85.3236 86.5436 84.7214 86.4102 84.0898 86.4102C83.0482 86.4102 82.153 86.7454 81.4043 87.416C80.8574 87.9043 80.444 88.6367 80.1641 89.6133H88.0742ZM102.413 85.375V99.8867H101.065V94.1738C100.492 94.8704 99.8478 95.3945 99.1316 95.7461C98.422 96.0977 97.644 96.2734 96.7977 96.2734C95.2938 96.2734 94.0079 95.7298 92.9402 94.6426C91.879 93.5488 91.3484 92.2207 91.3484 90.6582C91.3484 89.1283 91.8856 87.8197 92.9598 86.7324C94.034 85.6452 95.3263 85.1016 96.8367 85.1016C97.7091 85.1016 98.4969 85.2871 99.2 85.6582C99.9096 86.0293 100.531 86.5859 101.065 87.3281V85.375H102.413ZM96.9441 86.4199C96.1824 86.4199 95.4793 86.6087 94.8348 86.9863C94.1902 87.3574 93.6759 87.8815 93.2918 88.5586C92.9142 89.2357 92.7254 89.9518 92.7254 90.707C92.7254 91.4557 92.9175 92.1719 93.3016 92.8555C93.6857 93.5391 94.2 94.0729 94.8445 94.457C95.4956 94.8346 96.1922 95.0234 96.9344 95.0234C97.6831 95.0234 98.3927 94.8346 99.0633 94.457C99.7339 94.0794 100.248 93.5684 100.606 92.9238C100.971 92.2793 101.153 91.5534 101.153 90.7461C101.153 89.5156 100.746 88.487 99.9324 87.6602C99.1251 86.8333 98.129 86.4199 96.9441 86.4199ZM105.013 85.375H106.39V90.3359C106.39 91.5469 106.455 92.3802 106.586 92.8359C106.781 93.487 107.152 94.0013 107.699 94.3789C108.252 94.7565 108.91 94.9453 109.671 94.9453C110.433 94.9453 111.078 94.763 111.605 94.3984C112.139 94.0273 112.507 93.5423 112.709 92.9434C112.845 92.5332 112.914 91.6641 112.914 90.3359V85.375H114.31V90.5898C114.31 92.0547 114.138 93.1582 113.793 93.9004C113.454 94.6426 112.94 95.2253 112.25 95.6484C111.566 96.0651 110.707 96.2734 109.671 96.2734C108.636 96.2734 107.77 96.0651 107.074 95.6484C106.384 95.2253 105.866 94.6393 105.521 93.8906C105.183 93.1354 105.013 92.0026 105.013 90.4922V85.375ZM126.002 92.4746L127.155 93.0801C126.777 93.8223 126.341 94.4212 125.846 94.877C125.351 95.3327 124.795 95.681 124.176 95.9219C123.558 96.1562 122.858 96.2734 122.077 96.2734C120.345 96.2734 118.991 95.707 118.014 94.5742C117.038 93.4349 116.549 92.1491 116.549 90.7168C116.549 89.3691 116.963 88.168 117.789 87.1133C118.838 85.7721 120.241 85.1016 121.998 85.1016C123.808 85.1016 125.254 85.7884 126.334 87.1621C127.103 88.1322 127.493 89.3431 127.506 90.7949H117.955C117.982 92.0319 118.375 93.0475 119.137 93.8418C119.899 94.6296 120.84 95.0234 121.959 95.0234C122.5 95.0234 123.024 94.929 123.532 94.7402C124.046 94.5514 124.482 94.3008 124.84 93.9883C125.198 93.6758 125.586 93.1712 126.002 92.4746ZM126.002 89.6133C125.82 88.8841 125.553 88.3014 125.202 87.8652C124.857 87.429 124.398 87.0775 123.825 86.8105C123.252 86.5436 122.649 86.4102 122.018 86.4102C120.976 86.4102 120.081 86.7454 119.332 87.416C118.786 87.9043 118.372 88.6367 118.092 89.6133H126.002ZM135.107 86.5371L134.228 87.4453C133.499 86.7357 132.786 86.3809 132.089 86.3809C131.646 86.3809 131.265 86.5273 130.946 86.8203C130.634 87.1133 130.478 87.4551 130.478 87.8457C130.478 88.1908 130.608 88.5195 130.868 88.832C131.129 89.151 131.676 89.5254 132.509 89.9551C133.525 90.4824 134.215 90.9902 134.579 91.4785C134.937 91.9733 135.116 92.5299 135.116 93.1484C135.116 94.0208 134.81 94.7598 134.198 95.3652C133.586 95.9707 132.821 96.2734 131.904 96.2734C131.292 96.2734 130.706 96.14 130.146 95.873C129.592 95.6061 129.133 95.2383 128.769 94.7695L129.628 93.793C130.325 94.5807 131.064 94.9746 131.845 94.9746C132.392 94.9746 132.857 94.7988 133.241 94.4473C133.626 94.0957 133.818 93.6823 133.818 93.207C133.818 92.8164 133.691 92.4681 133.437 92.1621C133.183 91.8626 132.61 91.485 131.718 91.0293C130.761 90.5345 130.11 90.0462 129.765 89.5645C129.42 89.0827 129.247 88.5326 129.247 87.9141C129.247 87.1068 129.521 86.4362 130.068 85.9023C130.621 85.3685 131.318 85.1016 132.157 85.1016C133.134 85.1016 134.117 85.5801 135.107 86.5371ZM138.43 81.4297H139.807V85.375H141.975V86.5469H139.807V96H138.43V86.5469H136.564V85.375H138.43V81.4297ZM149.057 86.5371L148.179 87.4453C147.449 86.7357 146.736 86.3809 146.04 86.3809C145.597 86.3809 145.216 86.5273 144.897 86.8203C144.585 87.1133 144.429 87.4551 144.429 87.8457C144.429 88.1908 144.559 88.5195 144.819 88.832C145.08 89.151 145.626 89.5254 146.46 89.9551C147.475 90.4824 148.165 90.9902 148.53 91.4785C148.888 91.9733 149.067 92.5299 149.067 93.1484C149.067 94.0208 148.761 94.7598 148.149 95.3652C147.537 95.9707 146.772 96.2734 145.854 96.2734C145.242 96.2734 144.656 96.14 144.096 95.873C143.543 95.6061 143.084 95.2383 142.72 94.7695L143.579 93.793C144.276 94.5807 145.014 94.9746 145.796 94.9746C146.343 94.9746 146.808 94.7988 147.192 94.4473C147.576 94.0957 147.768 93.6823 147.768 93.207C147.768 92.8164 147.641 92.4681 147.387 92.1621C147.134 91.8626 146.561 91.485 145.669 91.0293C144.712 90.5345 144.061 90.0462 143.716 89.5645C143.371 89.0827 143.198 88.5326 143.198 87.9141C143.198 87.1068 143.471 86.4362 144.018 85.9023C144.572 85.3685 145.268 85.1016 146.108 85.1016C147.085 85.1016 148.068 85.5801 149.057 86.5371Z" fill="white"/>
<path d="M19.582 48.6831C19.582 48.6831 25.9154 36.2275 36.9987 36.2275C48.082 36.2275 54.4154 48.6831 54.4154 48.6831C54.4154 48.6831 48.082 61.1386 36.9987 61.1386C25.9154 61.1386 19.582 48.6831 19.582 48.6831Z" stroke="white" stroke-width="2" stroke-linecap="round" stroke-linejoin="round"/>
<path d="M37 53.3544C39.6234 53.3544 41.75 51.2632 41.75 48.6835C41.75 46.1039 39.6234 44.0127 37 44.0127C34.3766 44.0127 32.25 46.1039 32.25 48.6835C32.25 51.2632 34.3766 53.3544 37 53.3544Z" stroke="white" stroke-width="2" stroke-linecap="round" stroke-linejoin="round"/>
</svg>
