<svg width="24" height="30" viewBox="0 0 24 30" fill="none" xmlns="http://www.w3.org/2000/svg">
<path d="M20.0652 16.0438C20.0515 13.7021 21.1124 11.9373 23.2549 10.636C22.0567 8.91931 20.2438 7.9751 17.8541 7.79313C15.5914 7.61459 13.1159 9.11158 12.2094 9.11158C11.2515 9.11158 9.06094 7.85493 7.33734 7.85493C3.78026 7.90987 0 10.691 0 16.3494C0 18.0215 0.305579 19.7485 0.916738 21.527C1.73391 23.8687 4.67983 29.606 7.75279 29.5133C9.35966 29.4755 10.4961 28.3734 12.5871 28.3734C14.6163 28.3734 15.667 29.5133 17.4592 29.5133C20.5597 29.4687 23.224 24.2532 24 21.9047C19.8421 19.9442 20.0652 16.1639 20.0652 16.0438ZM16.4567 5.57167C18.1974 3.50472 18.0395 1.62317 17.988 0.946777C16.4498 1.03605 14.6712 1.99399 13.6584 3.17167C12.5425 4.43519 11.8867 5.99742 12.0275 7.7588C13.6893 7.88583 15.2069 7.0309 16.4567 5.57167Z" fill="white"/>
</svg>
