<svg width="65" height="65" viewBox="0 0 65 65" fill="none" xmlns="http://www.w3.org/2000/svg">
<rect width="64.7261" height="64.7261" rx="18" fill="url(#paint0_linear_437_25783)"/>
<g clip-path="url(#clip0_437_25783)">
<path d="M46.7929 39.1251H45.9869C45.6848 39.1251 45.3852 39.148 45.0867 39.1939L36.5728 32.8091L38.6125 30.8564C39.0946 30.3949 39.1115 29.6288 38.6499 29.1479C38.1871 28.6657 37.421 28.65 36.9413 29.1104L31.899 33.9377C31.6476 34.189 31.3057 34.3183 30.9468 34.2881C30.5867 34.2591 30.2701 34.0767 30.0538 33.7746C29.7228 33.3154 29.8243 32.5964 30.2568 32.1627L35.9396 26.8109C37.0163 25.7996 38.6995 25.5519 40.0165 26.2128L42.815 27.6121C43.6488 28.0289 44.584 28.2489 45.5157 28.2489H46.7917C47.4599 28.2489 48 27.7087 48 27.0405C48 26.3723 47.4599 25.8322 46.7917 25.8322H45.5157C44.9562 25.8322 44.3943 25.7005 43.8941 25.4504L41.098 24.0511C38.894 22.9479 36.0798 23.3575 34.2818 25.0516L33.535 25.7549L32.6892 24.9839C31.5788 23.9726 30.1408 23.4155 28.593 23.4155C27.6613 23.4155 26.7321 23.6354 25.902 24.0499L23.1059 25.4492C22.6045 25.6993 22.0426 25.831 21.4831 25.831H20.2095C19.5413 25.831 19.0012 26.3711 19.0012 27.0393C19.0012 27.7075 19.5413 28.2477 20.2095 28.2477H21.4855C22.4172 28.2477 23.3524 28.0265 24.1874 27.6109L26.9859 26.2116C28.2208 25.5905 29.956 25.7585 31.0628 26.7699L31.7721 27.4163L28.5748 30.4275C27.2783 31.7228 27.0717 33.7709 28.0939 35.1859C28.7222 36.0595 29.9705 36.7072 31.0471 36.7072C32.0053 36.7072 32.9248 36.3302 33.5894 35.6644L34.805 34.5008L42.4731 40.2512C42.4356 40.2778 34.9838 45.8652 34.9838 45.8652C34.1102 46.5442 32.891 46.5442 31.9993 45.8519L24.6393 40.3322C23.6013 39.5528 22.3133 39.1239 21.0143 39.1239H20.2083C19.5401 39.1239 19 39.664 19 40.3322C19 41.0004 19.5401 41.5405 20.2083 41.5405H21.0143C21.7937 41.5405 22.5658 41.7979 23.1893 42.2655L30.5323 47.7731C31.4084 48.4546 32.4584 48.7954 33.506 48.7954C34.5476 48.7954 35.588 48.4582 36.4508 47.7864L43.8131 42.2667C44.4354 41.7991 45.2075 41.5417 45.9869 41.5417H46.7929C47.4611 41.5417 48.0012 41.0016 48.0012 40.3334C48.0012 39.6652 47.4611 39.1251 46.7929 39.1251Z" fill="white"/>
</g>
<defs>
<linearGradient id="paint0_linear_437_25783" x1="32.3631" y1="0" x2="32.3631" y2="64.7261" gradientUnits="userSpaceOnUse">
<stop stop-color="#10B165"/>
<stop offset="1" stop-color="#615F62"/>
</linearGradient>
<clipPath id="clip0_437_25783">
<rect width="29" height="29" fill="white" transform="translate(19 21)"/>
</clipPath>
</defs>
</svg>
