<svg width="65" height="65" viewBox="0 0 65 65" fill="none" xmlns="http://www.w3.org/2000/svg">
<rect width="64.7261" height="64.7261" rx="18" fill="url(#paint0_linear_150_102713)"/>
<path d="M29.4439 31.1729H25.9106C25.0706 31.1729 24.3906 31.8528 24.3906 32.6928V39.5195H29.4439V31.1729V31.1729Z" stroke="white" stroke-width="2" stroke-miterlimit="10" stroke-linecap="round" stroke-linejoin="round"/>
<path d="M32.9764 25.1055H30.9497C30.1097 25.1055 29.4297 25.7855 29.4297 26.6255V39.5055H34.483V26.6255C34.483 25.7855 33.8164 25.1055 32.9764 25.1055Z" stroke="white" stroke-width="2" stroke-miterlimit="10" stroke-linecap="round" stroke-linejoin="round"/>
<path d="M38.0255 33.4395H34.4922V39.5062H39.5455V34.9595C39.5322 34.1195 38.8522 33.4395 38.0255 33.4395Z" stroke="white" stroke-width="2" stroke-miterlimit="10" stroke-linecap="round" stroke-linejoin="round"/>
<path d="M27.9583 45.6413H35.9583C42.625 45.6413 45.2917 42.9746 45.2917 36.3079V28.3079C45.2917 21.6413 42.625 18.9746 35.9583 18.9746H27.9583C21.2917 18.9746 18.625 21.6413 18.625 28.3079V36.3079C18.625 42.9746 21.2917 45.6413 27.9583 45.6413Z" stroke="white" stroke-width="2" stroke-linecap="round" stroke-linejoin="round"/>
<defs>
<linearGradient id="paint0_linear_150_102713" x1="32.3631" y1="0" x2="32.3631" y2="64.7261" gradientUnits="userSpaceOnUse">
<stop stop-color="#FF0000"/>
<stop offset="1" stop-color="#6B1212"/>
</linearGradient>
</defs>
</svg>
