<svg width="89" height="89" viewBox="0 0 89 89" fill="none" xmlns="http://www.w3.org/2000/svg">
<path d="M80.1011 17.8008H8.90104C4.80493 17.8008 1.48438 21.1213 1.48438 25.2174V63.7841C1.48438 67.8802 4.80493 71.2008 8.90104 71.2008H80.1011C84.1972 71.2008 87.5177 67.8802 87.5177 63.7841V25.2174C87.5177 21.1213 84.1972 17.8008 80.1011 17.8008Z" fill="#FE0000"/>
<path d="M20.7651 28.1836H11.8651C10.2267 28.1836 8.89844 29.5118 8.89844 31.1503V37.0836C8.89844 38.722 10.2267 40.0503 11.8651 40.0503H20.7651C22.4035 40.0503 23.7318 38.722 23.7318 37.0836V31.1503C23.7318 29.5118 22.4035 28.1836 20.7651 28.1836Z" fill="#F9C44E"/>
<path d="M8.8974 54.8826C8.50399 54.8826 8.1267 54.7263 7.84852 54.4481C7.57034 54.1699 7.41406 53.7926 7.41406 53.3992V50.4326C7.41406 50.0391 7.57034 49.6619 7.84852 49.3837C8.1267 49.1055 8.50399 48.9492 8.8974 48.9492C9.2908 48.9492 9.66809 49.1055 9.94627 49.3837C10.2244 49.6619 10.3807 50.0391 10.3807 50.4326V53.3992C10.3807 53.7926 10.2244 54.1699 9.94627 54.4481C9.66809 54.7263 9.2908 54.8826 8.8974 54.8826Z" fill="#722626"/>
<path d="M14.8271 54.8826C14.4337 54.8826 14.0564 54.7263 13.7782 54.4481C13.5 54.1699 13.3438 53.7926 13.3438 53.3992V50.4326C13.3438 50.0391 13.5 49.6619 13.7782 49.3837C14.0564 49.1055 14.4337 48.9492 14.8271 48.9492C15.2205 48.9492 15.5978 49.1055 15.876 49.3837C16.1541 49.6619 16.3104 50.0391 16.3104 50.4326V53.3992C16.3104 53.7926 16.1541 54.1699 15.876 54.4481C15.5978 54.7263 15.2205 54.8826 14.8271 54.8826Z" fill="#722626"/>
<path d="M20.7646 54.8826C20.3712 54.8826 19.9939 54.7263 19.7157 54.4481C19.4375 54.1699 19.2812 53.7926 19.2812 53.3992V50.4326C19.2812 50.0391 19.4375 49.6619 19.7157 49.3837C19.9939 49.1055 20.3712 48.9492 20.7646 48.9492C21.158 48.9492 21.5353 49.1055 21.8135 49.3837C22.0916 49.6619 22.2479 50.0391 22.2479 50.4326V53.3992C22.2479 53.7926 22.0916 54.1699 21.8135 54.4481C21.5353 54.7263 21.158 54.8826 20.7646 54.8826Z" fill="#722626"/>
<path d="M29.663 54.8826C29.2696 54.8826 28.8923 54.7263 28.6141 54.4481C28.336 54.1699 28.1797 53.7926 28.1797 53.3992V50.4326C28.1797 50.0391 28.336 49.6619 28.6141 49.3837C28.8923 49.1055 29.2696 48.9492 29.663 48.9492C30.0564 48.9492 30.4337 49.1055 30.7119 49.3837C30.9901 49.6619 31.1464 50.0391 31.1464 50.4326V53.3992C31.1464 53.7926 30.9901 54.1699 30.7119 54.4481C30.4337 54.7263 30.0564 54.8826 29.663 54.8826Z" fill="#722626"/>
<path d="M35.6005 54.8826C35.2071 54.8826 34.8298 54.7263 34.5516 54.4481C34.2735 54.1699 34.1172 53.7926 34.1172 53.3992V50.4326C34.1172 50.0391 34.2735 49.6619 34.5516 49.3837C34.8298 49.1055 35.2071 48.9492 35.6005 48.9492C35.9939 48.9492 36.3712 49.1055 36.6494 49.3837C36.9276 49.6619 37.0839 50.0391 37.0839 50.4326V53.3992C37.0839 53.7926 36.9276 54.1699 36.6494 54.4481C36.3712 54.7263 35.9939 54.8826 35.6005 54.8826Z" fill="#722626"/>
<path d="M41.5302 54.8826C41.1368 54.8826 40.7595 54.7263 40.4813 54.4481C40.2032 54.1699 40.0469 53.7926 40.0469 53.3992V50.4326C40.0469 50.0391 40.2032 49.6619 40.4813 49.3837C40.7595 49.1055 41.1368 48.9492 41.5302 48.9492C41.9236 48.9492 42.3009 49.1055 42.5791 49.3837C42.8573 49.6619 43.0135 50.0391 43.0135 50.4326V53.3992C43.0135 53.7926 42.8573 54.1699 42.5791 54.4481C42.3009 54.7263 41.9236 54.8826 41.5302 54.8826Z" fill="#722626"/>
<path d="M50.4286 54.8826C50.0352 54.8826 49.6579 54.7263 49.3798 54.4481C49.1016 54.1699 48.9453 53.7926 48.9453 53.3992V50.4326C48.9453 50.0391 49.1016 49.6619 49.3798 49.3837C49.6579 49.1055 50.0352 48.9492 50.4286 48.9492C50.822 48.9492 51.1993 49.1055 51.4775 49.3837C51.7557 49.6619 51.912 50.0391 51.912 50.4326V53.3992C51.912 53.7926 51.7557 54.1699 51.4775 54.4481C51.1993 54.7263 50.822 54.8826 50.4286 54.8826Z" fill="#722626"/>
<path d="M56.3661 54.8826C55.9727 54.8826 55.5954 54.7263 55.3173 54.4481C55.0391 54.1699 54.8828 53.7926 54.8828 53.3992V50.4326C54.8828 50.0391 55.0391 49.6619 55.3173 49.3837C55.5954 49.1055 55.9727 48.9492 56.3661 48.9492C56.7595 48.9492 57.1368 49.1055 57.415 49.3837C57.6932 49.6619 57.8495 50.0391 57.8495 50.4326V53.3992C57.8495 53.7926 57.6932 54.1699 57.415 54.4481C57.1368 54.7263 56.7595 54.8826 56.3661 54.8826Z" fill="#722626"/>
<path d="M62.2958 54.8826C61.9024 54.8826 61.5251 54.7263 61.247 54.4481C60.9688 54.1699 60.8125 53.7926 60.8125 53.3992V50.4326C60.8125 50.0391 60.9688 49.6619 61.247 49.3837C61.5251 49.1055 61.9024 48.9492 62.2958 48.9492C62.6892 48.9492 63.0665 49.1055 63.3447 49.3837C63.6229 49.6619 63.7792 50.0391 63.7792 50.4326V53.3992C63.7792 53.7926 63.6229 54.1699 63.3447 54.4481C63.0665 54.7263 62.6892 54.8826 62.2958 54.8826Z" fill="#722626"/>
<path d="M32.6307 62.2987H8.8974C8.50399 62.2987 8.1267 62.1424 7.84852 61.8642C7.57034 61.5861 7.41406 61.2088 7.41406 60.8154C7.41406 60.422 7.57034 60.0447 7.84852 59.7665C8.1267 59.4883 8.50399 59.332 8.8974 59.332H32.6307C33.0241 59.332 33.4014 59.4883 33.6796 59.7665C33.9578 60.0447 34.1141 60.422 34.1141 60.8154C34.1141 61.2088 33.9578 61.5861 33.6796 61.8642C33.4014 62.1424 33.0241 62.2987 32.6307 62.2987Z" fill="#722626"/>
<path d="M51.9115 62.2987H38.5615C38.1681 62.2987 37.7908 62.1424 37.5126 61.8642C37.2344 61.5861 37.0781 61.2088 37.0781 60.8154C37.0781 60.422 37.2344 60.0447 37.5126 59.7665C37.7908 59.4883 38.1681 59.332 38.5615 59.332H51.9115C52.3049 59.332 52.6822 59.4883 52.9603 59.7665C53.2385 60.0447 53.3948 60.422 53.3948 60.8154C53.3948 61.2088 53.2385 61.5861 52.9603 61.8642C52.6822 62.1424 52.3049 62.2987 51.9115 62.2987Z" fill="#722626"/>
<path d="M16.3151 28.1836V32.6336H8.89844V35.6003H16.3151V40.0503H19.2818V28.1836H16.3151Z" fill="#EA9E42"/>
</svg>
