<svg width="291" height="47" viewBox="0 0 291 47" fill="none" xmlns="http://www.w3.org/2000/svg">
<g clip-path="url(#clip0_425_14491)">
<path d="M113.659 16.9052C111.399 15.3335 108.869 15.0779 106.213 15.1621C100.545 15.3626 95.7258 20.8301 96.0453 26.2018C95.9276 26.4253 95.8649 26.6737 95.8624 26.9263C95.8599 27.179 95.9176 27.4286 96.0308 27.6544C95.7403 32.4567 98.721 37.2066 104.133 38.1944C107.143 38.7406 110.191 38.636 113.125 37.5407C113.756 37.305 114.356 36.9907 114.909 36.6053C114.983 36.5683 115.049 36.5157 115.101 36.4512C115.153 36.3867 115.191 36.3118 115.212 36.2314C115.233 36.151 115.237 36.067 115.222 35.9852C115.208 35.9033 115.176 35.8255 115.129 35.757C114.548 34.6326 114.098 33.4328 113.337 32.3898C111.193 33.918 109.976 34.2375 106.568 34.0051C105.406 33.9396 104.297 33.5024 103.403 32.758C102.509 32.0136 101.878 31.0015 101.603 29.8711C101.533 29.598 101.571 29.29 101.33 29.0779C101.348 29.033 101.353 28.984 101.345 28.9363C101.337 28.8886 101.315 28.8441 101.283 28.8078C101.623 28.1715 102.228 28.4504 102.71 28.4475C107.294 28.4281 111.879 28.4281 116.463 28.4475C117.183 28.4475 117.625 28.3342 117.756 27.512C118.462 23.378 117.375 19.4879 113.659 16.9052ZM101.783 24.4209C101.908 21.3763 104.168 19.4821 107.477 19.4821C109.918 19.4821 112.608 20.9086 112.585 24.4209H101.783Z" fill="white"/>
<path d="M75.6855 23.2209C75.6826 22.0617 75.4344 20.9162 74.9573 19.8597C74.4801 18.8032 73.7847 17.8596 72.9169 17.091C69.9681 14.4589 64.4541 14.3921 61.453 16.9777C60.7761 17.5588 60.5524 17.5588 60.2503 16.725C59.8726 15.6762 59.2277 15.3421 58.1702 15.4874C57.5902 15.5332 57.0077 15.538 56.4271 15.5019C56.0175 15.5019 55.7908 15.6675 55.7996 16.0829C55.7996 16.3734 55.7996 16.664 55.7996 16.9545V36.4192C55.7996 36.7097 55.7996 37.0002 55.7996 37.2907C55.7996 37.8369 56.0697 38.0664 56.6072 38.0606C57.9581 38.0432 59.309 38.0432 60.6745 38.0287C60.843 38.0287 60.9011 37.8863 60.965 37.7527L60.9911 37.4621C61.0144 37.0787 61.055 36.6952 61.055 36.3001C61.055 31.9743 61.116 27.6455 61.026 23.3197C60.9969 21.8671 61.5663 20.9956 62.7691 20.3187C63.6406 19.8335 64.5442 19.4297 65.4883 19.4064C67.8444 19.3512 69.6224 20.1705 70.2034 22.5324C70.4112 23.4696 70.5039 24.4286 70.4794 25.3882C70.4794 29.2347 70.4794 33.0811 70.4794 36.9276C70.4794 38.017 70.5027 38.0287 71.6154 38.0403C72.6787 38.0403 73.7419 38.0199 74.8111 38.0403C75.4531 38.0606 75.7698 37.9241 75.764 37.1687C75.7117 32.5437 75.7988 27.8809 75.6855 23.2209Z" fill="white"/>
<path d="M150.323 33.003C149.068 33.8304 147.563 34.1894 146.07 34.0169C144.728 33.9065 143.949 33.2935 143.592 31.9832C143.437 31.4787 143.349 30.9562 143.33 30.4289C143.307 27.1606 143.33 23.8894 143.304 20.6211C143.304 19.8628 143.528 19.6043 144.292 19.6304C145.744 19.6769 147.197 19.6304 148.65 19.6536C149.26 19.6536 149.521 19.4764 149.492 18.8373C149.448 17.9657 149.457 17.0942 149.492 16.2401C149.512 15.6823 149.3 15.4789 148.74 15.4876C147.339 15.5138 145.936 15.4876 144.536 15.4876C143.348 15.4876 143.339 15.4731 143.333 14.3255C143.333 12.26 143.301 10.1915 143.333 8.12589C143.35 7.36473 143.089 7.10907 142.339 7.14394C141.276 7.19333 140.21 7.19333 139.144 7.14394C138.348 7.10326 138.025 7.34439 138.051 8.18979C138.107 10.0172 138.069 11.8445 138.069 13.6719C138.069 15.3975 138.069 15.415 136.326 15.4847C135.745 15.505 135.419 15.6096 135.454 16.2807C135.495 17.193 135.486 18.1081 135.44 19.0203C135.416 19.4561 135.541 19.6507 135.977 19.642C136.169 19.642 136.364 19.642 136.558 19.642C138.086 19.6711 138.089 19.6711 138.089 21.2631C138.089 24.3397 138.089 27.4163 138.089 30.4929C138.075 31.31 138.115 32.1272 138.208 32.939C138.531 35.3067 139.722 37.1486 142.008 37.9621C144.481 38.8336 147.055 38.5141 149.588 38.0521C150.169 37.9476 150.361 37.6106 150.346 37.0324C150.3 35.8094 150.323 34.5514 150.323 33.003Z" fill="white"/>
<path d="M132.366 26.2222C131.691 25.7522 130.964 25.3622 130.199 25.0601C128.885 24.5868 127.608 24.0168 126.378 23.3548C125.742 22.9829 125.176 22.5442 125.039 21.754C124.81 20.4321 125.536 19.4502 126.919 19.2904C128.908 19.0035 130.931 19.4878 132.575 20.6442C133.005 19.5257 133.319 18.5147 133.775 17.5705C134.124 16.853 133.923 16.5595 133.252 16.269C130.316 14.944 127.004 14.7101 123.912 15.6095C119.173 16.9779 118.058 21.9777 121.495 25.5772C122.819 26.9659 124.487 27.6312 126.143 28.3952C127.031 28.7659 127.883 29.2181 128.688 29.7461C129.191 30.0882 129.568 30.5866 129.76 31.1643C129.951 31.742 129.947 32.3667 129.748 32.9418C129.321 34.0778 128.316 34.2375 127.27 34.3131C125.161 34.4612 123.281 33.8308 121.46 32.4945C120.896 33.7321 120.455 34.7925 119.935 35.818C119.644 36.399 119.685 36.6895 120.321 37.0352C123.682 38.7783 127.206 38.9323 130.736 37.8865C133.118 37.1805 134.859 35.6175 135.277 32.968C135.716 30.1035 134.728 27.8723 132.366 26.2222Z" fill="white"/>
<path d="M93.0935 15.4876C92.3991 15.4615 92.0738 15.7229 91.821 16.3592C90.72 19.0784 89.5811 21.7802 88.4423 24.4937C87.7944 26.0305 87.1234 27.5557 86.4406 29.142C86.0938 28.7353 85.8409 28.2572 85.6998 27.7417C84.2162 23.994 82.7394 20.2434 81.2694 16.4899C81.0777 15.996 80.9644 15.4963 80.2323 15.5138C78.5996 15.5544 76.9639 15.5283 75.337 15.5283C75.3328 15.902 75.4335 16.2693 75.6276 16.5887C76.9194 19.4822 78.2093 22.3797 79.4973 25.281C81.3275 29.4092 83.1665 33.5346 84.9822 37.6687C85.0613 37.918 85.2222 38.1334 85.4389 38.28C85.6556 38.4266 85.9154 38.4957 86.1763 38.4763C87.2686 38.4763 87.2773 38.5083 87.8903 37.1632C90.2145 32.0442 92.5473 26.9273 94.8889 21.8122C95.8185 19.7786 96.7395 17.7188 97.7302 15.5283C96.08 15.5021 94.5838 15.537 93.0935 15.4876Z" fill="white"/>
<path d="M52.2671 8.01837C52.3028 7.92436 52.3176 7.82369 52.3106 7.72337C52.3036 7.62305 52.2749 7.52546 52.2264 7.43734C50.6547 6.84177 49.0307 7.28916 47.4299 7.19329C47.1394 7.17586 47.0349 7.42571 47.0232 7.68427C47.0232 8.02127 47.0232 8.35827 47.0232 8.69527V36.4194C47.0351 36.6129 47.0351 36.8069 47.0232 37.0004C46.9186 37.7906 47.2004 38.1335 48.0546 38.087C49.2166 38.0231 50.3787 38.087 51.5408 38.0666C51.8139 38.0666 52.1392 38.148 52.2555 37.7761L52.2816 37.4856C52.3019 36.9598 52.3368 36.4339 52.3368 35.9081C52.3368 27.9557 52.3368 20.0042 52.3368 12.0537C52.3194 10.6969 52.2845 9.37219 52.2671 8.01837Z" fill="white"/>
<path d="M290.216 39.005C290.239 36.3293 289.121 34.868 286.547 33.9935C284.182 33.1888 281.811 33.3079 279.435 33.8831C278.683 34.0613 277.903 34.0909 277.14 33.9703C276.968 33.9566 276.806 33.8868 276.679 33.7718C276.551 33.6568 276.465 33.5029 276.434 33.334C276.419 33.188 276.449 33.041 276.518 32.912C276.588 32.783 276.695 32.678 276.826 32.6106C277.523 32.2214 278.153 31.8088 279.086 31.9279C280.855 32.1545 282.639 32.1516 284.347 31.4224C288.394 29.7026 290.073 25.2547 288.877 20.9638C288.682 20.2607 287.988 19.6332 288.098 19.0086C288.229 18.262 289.237 18.0731 289.818 17.5822C290.352 17.1319 290.274 16.789 289.748 16.4579C289.089 16.0395 288.601 15.4323 288.034 14.9094C286.831 13.8083 286.843 13.7967 285.733 15.0546C284.803 16.1121 284.818 16.0656 283.357 15.6357C280.013 14.6131 276.805 14.831 273.828 16.821C269.223 19.8947 269.391 26.135 272.666 29.2145C273.098 29.6212 273.499 30.0715 274.002 30.5915L274.019 30.609H273.993C273.109 31.0358 272.354 31.6882 271.803 32.5002C270.609 34.3073 271.193 36.492 273.11 37.5001C273.934 37.9099 274.84 38.1274 275.76 38.1363C277.258 38.1755 278.757 38.0939 280.242 37.8923C281.489 37.747 282.749 37.6686 283.984 38.0317C284.338 38.1266 284.652 38.3325 284.88 38.6191C285.108 38.9056 285.238 39.2578 285.251 39.6238C285.292 39.9601 285.23 40.3009 285.075 40.6019C284.92 40.903 284.677 41.1503 284.379 41.3117C282.927 42.1832 281.297 42.3721 279.664 42.2878C277.503 42.2314 275.443 41.3621 273.894 39.8533C272.654 40.963 271.861 42.3633 270.774 43.5051C270.423 43.874 270.67 44.1122 270.986 44.2982C272.567 45.2191 274.127 46.1895 275.995 46.4538C276.285 46.8867 276.971 46.4538 277.192 47.0145H282.421C282.561 46.6717 282.892 46.724 283.159 46.6746C284.484 46.4209 285.759 45.9549 286.936 45.2947C288.269 44.5451 289.353 43.5835 289.972 42.1338C290.378 41.088 290.207 40.0334 290.216 39.005ZM275.771 23.2734C275.771 20.9841 277.514 19.3456 279.882 19.3514C282.25 19.3572 283.842 21.0945 283.819 23.5668C283.685 26.5853 282.2 27.9043 279.836 27.8374C277.352 27.7532 275.765 26.3238 275.771 23.2618V23.2734Z" fill="white"/>
<path d="M266.37 24.5923C266.37 23.0032 266.338 21.414 265.711 19.9179C264.127 16.1411 260.481 14.6479 256.428 15.0546C254.524 15.2142 252.737 16.0366 251.376 17.3787C251.064 17.0223 250.833 16.6019 250.699 16.1469C250.666 15.9554 250.564 15.7827 250.412 15.6617C250.26 15.5406 250.068 15.4797 249.874 15.4904C248.956 15.4904 248.038 15.4904 247.12 15.4904C246.618 15.4904 246.429 15.7257 246.452 16.1992C246.452 16.4897 246.452 16.7803 246.452 17.0708C246.452 23.5668 246.452 30.0608 246.452 36.5529C246.452 36.794 246.472 37.0352 246.452 37.2763C246.4 37.9096 246.702 38.113 247.324 38.0985C248.579 38.0694 249.837 38.0985 251.1 38.0985C251.347 38.0985 251.577 38.0694 251.681 37.808C252.1 37.407 251.891 36.8986 251.893 36.4454C251.911 32.1138 252.027 27.7793 251.844 23.4593C251.763 21.5418 252.597 20.6122 254.142 19.9731C254.723 19.7348 255.327 19.4356 255.926 19.4211C258.57 19.3572 260.504 20.1909 260.946 23.0264C261.083 24.0752 261.141 25.1327 261.12 26.1901C261.141 29.8449 261.149 33.5025 261.1 37.1572C261.1 37.869 261.283 38.1217 261.972 38.1101C262.985 38.0927 264.005 38.1101 265.016 38.1101C266.454 38.1101 266.469 38.1101 266.469 36.7011C266.428 32.6542 266.39 28.6247 266.37 24.5923Z" fill="white"/>
<path d="M236.107 31.7248C235.198 32.0957 234.458 32.7892 234.029 33.6723C233.6 34.5554 233.513 35.5658 233.783 36.5096C234.081 37.419 234.718 38.1787 235.561 38.6305C236.405 39.0823 237.39 39.1915 238.312 38.9354C240.538 38.4357 241.883 35.7746 240.944 33.7235C240.542 32.8392 239.818 32.1408 238.92 31.7697C238.022 31.3986 237.017 31.3825 236.107 31.7248Z" fill="white"/>
<path d="M238.016 3.36133L237.812 3.16378L237.769 3.1202L237.281 2.64376L237.252 2.62342C237.205 2.5988 237.161 2.56856 237.121 2.53336C236.54 2.09468 236.389 1.25798 235.634 0.999418C235.552 0.982433 235.466 0.99477 235.392 1.03428C235.192 0.49101 234.991 -0.0493472 234.23 0.00585125C234.044 0.354473 233.649 0.470672 233.359 0.705992C233.257 0.757861 233.153 0.802524 233.045 0.839637C232.417 1.1152 231.817 1.44983 231.253 1.83902L231.226 1.86227C231.202 1.89044 231.175 1.91576 231.145 1.93779C230.506 2.51882 229.591 2.7832 229.242 3.65185C228.83 3.70705 228.472 3.82616 228.464 4.33747C228.525 4.37224 228.59 4.39955 228.658 4.41882C229.556 4.44497 230.012 4.4624 230.207 4.67448C230.243 4.73273 230.274 4.79396 230.3 4.85751C230.333 5.2491 230.292 5.64356 230.178 6.01958L230.111 6.13868C230.095 6.17736 230.083 6.21719 230.073 6.2578C230.008 6.275 229.94 6.28473 229.873 6.28685C229.536 7.3269 229.198 8.3689 228.859 9.41282C228.826 9.42201 228.796 9.43834 228.77 9.46065C228.744 9.48295 228.724 9.51066 228.71 9.54179C228.697 9.57292 228.69 9.6067 228.691 9.64066C228.692 9.67463 228.701 9.70794 228.716 9.7382C228.629 9.85151 228.493 9.95609 228.464 10.081C227.9 12.4487 226.831 14.648 226.11 16.9605C226.11 17.0563 226.11 17.1522 226.087 17.251C226.071 17.2592 226.057 17.2708 226.046 17.285C226.035 17.2991 226.028 17.3155 226.024 17.333C226.02 17.3505 226.02 17.3685 226.024 17.386C226.028 17.4035 226.036 17.4199 226.046 17.434C225.486 18.448 225.094 19.5458 224.884 20.6849C224.045 22.458 223.374 24.3061 222.88 26.2048C222.528 26.7223 222.318 27.3235 222.273 27.9479C222.005 28.2064 221.982 28.6742 221.555 28.7933C221.489 28.2631 221.266 27.7645 220.916 27.361C220.8 26.8439 220.736 26.3035 220.3 25.9084C220.3 25.1124 219.69 24.5895 219.428 23.9097C219.414 23.3582 219.216 22.8274 218.865 22.4019C217.993 20.3189 217.104 18.2475 216.3 16.1412C216.009 15.3713 215.46 15.5137 214.899 15.4788C214.269 15.4411 213.851 15.6038 213.874 16.3271C213.33 17.1344 212.937 18.0329 212.712 18.9796C212.367 19.3749 212.162 19.8735 212.131 20.3973C211.228 22.1506 210.451 23.9661 209.807 25.83C209.492 26.1733 209.297 26.6097 209.252 27.0734C208.914 27.487 208.711 27.9938 208.671 28.526C207.93 29.8007 207.345 31.1593 206.927 32.5729C206.118 34.1513 205.41 35.7796 204.807 37.4478C204.632 37.8284 203.845 38.3978 204.824 38.543C205.986 38.7145 207.212 38.5431 208.406 38.5082C208.856 38.5082 209.141 38.2874 208.987 37.7703C209.96 36.8145 210.28 35.5391 210.704 34.3131C211.074 33.93 211.304 33.4338 211.358 32.9041C211.527 32.7562 211.66 32.5726 211.749 32.3665C211.838 32.1605 211.88 31.9373 211.872 31.713C211.966 31.1948 212.164 30.7008 212.453 30.2604C213.086 29.5314 213.506 28.6433 213.67 27.6922C214.199 27.0037 214.446 26.1728 214.812 25.4029C215.074 24.8509 215.309 25.1967 215.562 25.4029C215.889 26.5371 216.388 27.6147 217.04 28.5986C217.474 30.0205 218.074 31.3858 218.83 32.6659C219.155 33.5374 219.411 34.4584 220.009 35.2137C220.01 35.4372 220.058 35.6581 220.151 35.8615C220.244 36.0648 220.379 36.2461 220.547 36.3932C220.599 36.9339 220.809 37.4473 221.151 37.8691C221.151 38.1218 221.378 38.2235 221.523 38.3746L221.59 38.392C222.976 38.7551 223.043 38.7261 223.502 37.811C223.867 37.3246 224.077 36.7395 224.106 36.1318C224.851 34.6399 225.436 33.073 225.849 31.4573C226.177 30.96 226.377 30.389 226.43 29.7956C226.919 29.0844 227.219 28.2607 227.301 27.4017C227.301 27.2419 227.301 27.085 227.301 26.9281C227.429 26.8642 227.641 26.8323 227.673 26.7393C228.092 25.5191 228.655 24.3484 228.931 23.0817C229.163 22.8505 229.295 22.5375 229.297 22.2101C229.65 21.7042 229.857 21.1114 229.896 20.4961C230.268 19.9991 230.482 19.4021 230.512 18.782H230.494C230.687 18.5896 230.835 18.3577 230.929 18.1025C231.024 17.8472 231.062 17.5746 231.04 17.3033C231.232 16.7222 231.421 16.1412 231.621 15.5427C232.095 15.2871 232.11 14.7758 232.278 14.3545C232.731 13.2186 233.173 12.0769 233.617 10.938C234.001 9.91252 234.701 8.98867 234.625 7.81788C234.612 7.80194 234.598 7.78733 234.582 7.7743C234.589 7.75044 234.595 7.72619 234.599 7.70167L234.811 7.47797C234.649 6.70809 235.311 6.17354 235.424 5.48502C235.506 5.39937 235.595 5.32156 235.692 5.25261C236.183 4.89527 236.746 4.87784 237.327 4.87784C237.783 4.87784 238.388 5.04634 238.597 4.49436C238.739 4.00629 238.3 3.678 238.016 3.36133ZM207.25 32.5787L207.23 32.5613L207.25 32.5787ZM211.898 27.9304C211.89 27.9537 211.891 27.9575 211.901 27.9421L211.898 27.9304ZM218.685 30.1268C218.688 30.1372 218.688 30.1483 218.685 30.1587C218.687 30.1521 218.688 30.1452 218.688 30.1384L218.685 30.1268ZM223.115 37.4187C223.073 37.3949 223.04 37.3568 223.022 37.3113L223.13 37.41L223.115 37.4187Z" fill="white"/>
<path d="M204.943 30.3707C205.832 28.8891 206.395 27.2535 207.098 25.6905C207.17 25.5386 207.21 25.3736 207.216 25.2057C207.221 25.0378 207.192 24.8706 207.13 24.7143C206.096 21.844 205.274 18.904 204.097 16.0743C204.097 15.8245 204.045 15.5369 203.772 15.5282C202 15.4302 200.223 15.4409 198.453 15.5601C198.862 16.6728 199.127 17.6257 199.652 18.4798C199.894 19.5668 200.255 20.6239 200.727 21.6319L201.381 23.1339C201.509 23.715 201.605 24.296 201.982 24.7666C201.82 25.6062 202.447 26.1902 202.694 26.8932C203.214 28.3807 203.781 29.8507 204.353 31.3933C204.531 31.2884 204.679 31.139 204.783 30.9598C204.886 30.7806 204.941 30.5776 204.943 30.3707ZM202.351 22.98C202.328 23.0063 202.303 23.0306 202.276 23.0526L202.258 23.0061L202.351 22.98Z" fill="white"/>
<path d="M175.316 7.43426V7.41973C173.805 6.86194 172.245 7.27155 170.708 7.1844C170.546 7.1844 170.47 7.30351 170.418 7.44005C170.168 7.88745 170.29 8.37844 170.29 8.84617C170.278 12.1387 170.278 15.439 170.29 18.747C170.29 20.8504 170.339 22.9508 170.363 25.0542C170.363 25.2081 170.336 25.365 170.322 25.519C169.991 25.4435 169.59 25.4899 169.45 25.0542C169.254 24.4804 168.865 23.9926 168.349 23.6742C168.059 23.4447 167.945 22.9973 167.521 22.8898C167.521 22.7504 167.55 22.576 167.481 22.4773C166.513 21.1351 165.601 19.7435 164.285 18.7005C164.323 18.4275 164.061 18.3258 163.965 18.1195C163.91 17.8333 163.777 17.5679 163.581 17.3525C163.385 17.1372 163.133 16.9803 162.853 16.8993C162.853 16.8035 162.893 16.6814 162.853 16.6088C161.075 14.2847 159.34 11.9111 157.359 9.74388C157.289 9.16284 156.88 8.82583 156.487 8.47721C156.49 8.38558 156.458 8.29636 156.398 8.22666C156.339 8.15695 156.256 8.11168 156.165 8.09954C155.985 7.95428 155.895 7.69863 155.619 7.67248L155.561 7.75382L155.622 7.67537C155.189 7.18149 153.443 6.9549 153.106 7.36163C153.027 7.47876 152.984 7.61582 152.981 7.75673C152.963 8.04724 152.981 8.33776 152.981 8.62828C152.981 17.9094 152.981 27.1924 152.981 36.4773C152.981 36.7679 152.981 37.0584 152.981 37.3489C152.963 37.8079 153.132 38.0752 153.64 38.0723C154.948 38.0723 156.253 38.0723 157.557 38.0723C158.068 38.0723 158.239 37.8195 158.225 37.3576C158.225 37.0206 158.225 36.6836 158.225 36.3466V19.3368C158.855 19.4733 158.939 20.0282 159.349 20.1793C159.457 20.3594 159.567 20.5395 159.677 20.7196C160.173 21.4744 160.738 22.1815 161.365 22.8317C162.08 23.6423 162.478 24.7085 163.399 25.3389C163.463 25.9025 163.875 26.2104 164.27 26.5678C166.083 28.9733 167.882 31.3875 169.718 33.7726C170.209 34.4147 170.589 35.1584 171.263 35.6436L171.528 35.8033C171.716 36.6749 172.457 37.1775 172.96 37.837C173.027 38.1275 173.16 38.3541 173.5 38.3686C175.426 38.6737 175.534 38.6301 175.534 37.2995C175.547 27.6504 175.555 18.0014 175.557 8.35229C175.528 8.04143 175.682 7.67248 175.316 7.43426ZM153.527 36.8928V36.8172C153.556 36.8521 153.588 36.8841 153.62 36.9189L153.527 36.8928ZM174.421 10.903C174.423 10.9034 174.425 10.9034 174.427 10.903H174.421ZM172.388 7.72768V7.71025L172.402 7.72768H172.388ZM170.644 9.55503V9.45625L170.761 9.41268C170.74 9.45626 170.7 9.50274 170.662 9.55503H170.644Z" fill="white"/>
<path d="M199.447 23.8574C199.313 22.6285 199.118 21.42 198.232 20.4526C197.852 20.0052 198.046 19.2411 197.39 18.9477C197.37 18.8116 197.312 18.6841 197.221 18.5808C197.13 18.4776 197.011 18.4032 196.878 18.3666C196.794 18.1517 196.667 17.9558 196.506 17.7902C196.345 17.6246 196.153 17.4927 195.94 17.4021C195.774 17.19 195.67 16.853 195.286 17.0767C195.138 16.5219 194.65 16.4289 194.2 16.2865C192.306 15.1245 190.223 15.0053 188.084 15.1942C186.507 15.139 185.011 15.3975 183.7 16.3562C183.491 16.3754 183.289 16.4409 183.108 16.5479C182.927 16.6549 182.772 16.8008 182.655 16.975C180.987 17.7972 179.988 19.3224 179.267 20.8506C177.347 24.9178 177.483 29.1042 179.41 33.1802C179.781 33.9704 180.159 34.8448 181.083 35.2341C181.09 35.3088 181.123 35.3786 181.176 35.4316C181.229 35.4847 181.299 35.5175 181.373 35.5246C182.445 37.1719 184.148 37.7122 185.935 38.0986C187.885 38.6881 189.966 38.683 191.913 38.0841C192.268 38.2265 192.494 37.9563 192.733 37.7936L193.009 37.7674C195.205 37.076 196.643 35.4752 197.947 33.7002C198.601 32.8748 199.016 31.8861 199.147 30.8415C199.926 28.5464 199.874 26.2222 199.447 23.8574ZM191.85 33.4126L189.74 34.2609H189.02C186.196 34.2434 184.482 32.9129 183.817 30.2169C183.68 29.6591 183.573 29.0926 183.454 28.5319C183.413 27.0793 183.645 25.6441 183.41 24.2031C183.796 23.4681 183.793 22.585 184.305 21.8993C184.535 21.7904 184.735 21.6282 184.89 21.426C185.045 21.2239 185.149 20.9878 185.194 20.7373C185.586 20.0836 186.458 20.1562 186.917 19.613C188.217 19.305 189.572 19.305 190.873 19.613C191.243 19.9077 191.662 20.1339 192.111 20.2811C193.131 21.1527 193.564 22.3148 193.909 23.5408C194.429 25.4553 194.22 27.4076 194.139 29.3511C193.715 30.3796 193.413 31.4574 192.773 32.4103C192.512 32.7875 192.198 33.1251 191.841 33.4126H191.85Z" fill="white"/>
<path d="M31.3411 36.611C31.3643 27.326 31.3701 18.0401 31.3585 8.75317C31.3585 8.51495 31.3382 8.27092 31.3585 8.03269C31.4166 7.37322 31.1697 7.0304 30.4608 7.0856C30.1238 7.11175 29.7839 7.0856 29.444 7.0856C20.9357 7.0856 12.4254 7.0856 3.91326 7.0856C2.60883 7.0856 1.29859 7.12337 -0.00292969 7.14371V20.4262V34.5773C0.313735 34.3914 0.671068 34.2374 0.618774 33.7726L0.871532 33.6244C1.40318 33.2932 1.88544 32.9214 2.0336 32.2706C2.42591 32.0985 2.74916 31.7998 2.95164 31.4223C3.41711 31.1218 3.81326 30.7257 4.11371 30.2602C4.18777 30.2516 4.25674 30.2182 4.30947 30.1655C4.36219 30.1127 4.39558 30.0438 4.40423 29.9697C5.06541 29.4826 5.65254 28.9023 6.14734 28.2469C6.79476 27.7817 7.36445 27.2169 7.83525 26.5736C9.1513 25.6526 10.4034 24.6619 11.2895 23.2965C11.5811 23.2019 11.8511 23.0505 12.084 22.851C12.3168 22.6516 12.5079 22.408 12.6462 22.1344L15.1185 19.5604C15.5836 19.2595 15.9797 18.8635 16.2806 18.3984C16.4127 18.3476 16.5327 18.2696 16.6328 18.1695C16.7329 18.0695 16.8109 17.9495 16.8616 17.8173C17.3361 17.5281 17.7345 17.1297 18.0237 16.6553L18.8197 16.0074C19.607 15.8389 19.6913 14.9499 20.2723 14.5839C21.1439 14.0348 21.876 12.9744 23.1397 13.7617C23.3203 14.0036 23.4447 14.2827 23.504 14.5786C23.5633 14.8746 23.556 15.1801 23.4825 15.4729L19.7058 19.3164C19.2401 19.5417 18.8628 19.9158 18.6338 20.3797C17.9175 20.8616 17.2969 21.4724 16.8035 22.1809C16.3112 22.3902 15.9167 22.7785 15.6996 23.2675C15.1941 23.6974 14.6653 24.107 14.186 24.5661C12.3983 26.2743 10.6203 27.9922 8.85206 29.7199C6.35942 32.1544 3.87162 34.5938 1.38865 37.038C1.09814 37.1252 0.949969 37.407 0.723365 37.5784C0.607032 37.6775 0.457739 37.7293 0.305019 37.7236C0.429942 37.9851 0.549058 38.2349 0.926732 38.1158C1.49034 37.9357 2.0888 38.0374 2.64659 38.0374C11.5713 38.0374 20.4941 38.0374 29.4149 38.0374C29.9437 38.0374 30.4724 37.9996 31.0012 37.9793C31.6519 37.6684 31.3382 37.0758 31.3411 36.611ZM15.5892 18.378C15.7028 18.3804 15.8157 18.395 15.9262 18.4216C15.812 18.436 15.696 18.421 15.5892 18.378Z" fill="white"/>
</g>
<defs>
<clipPath id="clip0_425_14491">
<rect width="290.245" height="47" fill="white"/>
</clipPath>
</defs>
</svg>
