<svg width="24" height="25" viewBox="0 0 24 25" fill="none" xmlns="http://www.w3.org/2000/svg">
<g clip-path="url(#clip0_1_44790)">
<path d="M2.00316 0.3363C2.12506 0.266571 2.26316 0.230158 2.40359 0.230719C2.54402 0.231281 2.68183 0.268798 2.80316 0.3395L15.352 7.6595L11.4688 11.1539L1.60156 2.2739V1.0307C1.60145 0.889846 1.63852 0.751458 1.70904 0.629527C1.77956 0.507596 1.88102 0.406445 2.00316 0.3363ZM1.60156 4.4275V20.0339L10.2736 12.2307L1.60156 4.4275ZM1.60156 22.1875V23.4307C1.60152 23.5715 1.63862 23.7097 1.70912 23.8316C1.77961 23.9534 1.88101 24.0545 2.00306 24.1246C2.12512 24.1947 2.26352 24.2314 2.40428 24.2309C2.54504 24.2305 2.68319 24.1928 2.80476 24.1219L15.352 16.8019L11.4688 13.3075L1.60156 22.1875ZM16.8032 15.9555L22.0032 12.9219C22.124 12.8515 22.2243 12.7506 22.294 12.6293C22.3637 12.508 22.4004 12.3706 22.4004 12.2307C22.4004 12.0908 22.3637 11.9534 22.294 11.8321C22.2243 11.7108 22.124 11.6099 22.0032 11.5395L16.8032 8.5059L12.664 12.2307L16.8032 15.9555Z" fill="white"/>
</g>
<defs>
<clipPath id="clip0_1_44790">
<rect width="24" height="24" fill="white" transform="translate(0 0.230713)"/>
</clipPath>
</defs>
</svg>
