<svg width="24" height="25" viewBox="0 0 24 25" fill="none" xmlns="http://www.w3.org/2000/svg">
<path d="M22 7.85156H23V17.8516H22V20.8516C22 21.1168 21.8946 21.3711 21.7071 21.5587C21.5196 21.7462 21.2652 21.8516 21 21.8516H3C2.73478 21.8516 2.48043 21.7462 2.29289 21.5587C2.10536 21.3711 2 21.1168 2 20.8516V4.85156C2 4.58635 2.10536 4.33199 2.29289 4.14446C2.48043 3.95692 2.73478 3.85156 3 3.85156H21C21.2652 3.85156 21.5196 3.95692 21.7071 4.14446C21.8946 4.33199 22 4.58635 22 4.85156V7.85156ZM20 17.8516H14C12.6739 17.8516 11.4021 17.3248 10.4645 16.3871C9.52678 15.4494 9 14.1776 9 12.8516C9 11.5255 9.52678 10.2537 10.4645 9.31603C11.4021 8.37835 12.6739 7.85156 14 7.85156H20V5.85156H4V19.8516H20V17.8516ZM21 15.8516V9.85156H14C13.2044 9.85156 12.4413 10.1676 11.8787 10.7302C11.3161 11.2929 11 12.0559 11 12.8516C11 13.6472 11.3161 14.4103 11.8787 14.9729C12.4413 15.5355 13.2044 15.8516 14 15.8516H21ZM14 11.8516H17V13.8516H14V11.8516Z" fill="#465174"/>
</svg>
