<svg width="101" height="100" viewBox="0 0 101 100" fill="none" xmlns="http://www.w3.org/2000/svg">
<rect x="0.5" width="100" height="100" rx="50" fill="#FFD7D7"/>
<path d="M24.6055 38.7464V64.6931C24.6055 69.7598 28.2055 71.8398 32.5788 69.3331L38.8455 65.7598C40.2055 64.9864 42.4721 64.9064 43.8855 65.6264L57.8855 72.6398C59.2988 73.3331 61.5655 73.2798 62.9255 72.5064L74.4721 65.8931C75.9388 65.0398 77.1655 62.9598 77.1655 61.2531V35.3064C77.1655 30.2398 73.5655 28.1598 69.1921 30.6664L62.9255 34.2398C61.5655 35.0131 59.2988 35.0931 57.8855 34.3731L43.8855 27.3864C42.4721 26.6931 40.2055 26.7464 38.8455 27.5198L27.2988 34.1331C25.8055 34.9864 24.6055 37.0664 24.6055 38.7464Z" stroke="#E32526" stroke-width="4" stroke-linecap="round" stroke-linejoin="round"/>
<path d="M41.3281 28.6665V63.3332" stroke="#E32526" stroke-width="4" stroke-linecap="round" stroke-linejoin="round"/>
<path d="M60.4453 35.6533V71.3333" stroke="#E32526" stroke-width="4" stroke-linecap="round" stroke-linejoin="round"/>
</svg>
