<svg width="200" height="32" viewBox="0 0 200 32" fill="none" xmlns="http://www.w3.org/2000/svg">
<g clip-path="url(#clip0_90_290)">
<path d="M78.3196 11.51C76.7622 10.4399 75.0185 10.2658 73.1888 10.3232C69.2831 10.4597 65.962 14.1823 66.1822 17.8396C66.1011 17.9918 66.0579 18.1609 66.0561 18.3329C66.0544 18.5049 66.0942 18.6748 66.1722 18.8286C65.972 22.0982 68.0259 25.3322 71.7555 26.0047C73.8294 26.3766 75.9294 26.3054 77.9513 25.5597C78.3864 25.3992 78.7994 25.1852 79.1804 24.9228C79.2317 24.8976 79.2769 24.8618 79.313 24.8179C79.3491 24.774 79.3752 24.723 79.3896 24.6682C79.404 24.6135 79.4064 24.5563 79.3966 24.5006C79.3867 24.4449 79.3649 24.3919 79.3326 24.3452C78.9322 23.5797 78.6219 22.7628 78.0974 22.0527C76.62 23.0931 75.7812 23.3107 73.433 23.1525C72.6327 23.1078 71.868 22.8102 71.252 22.3033C70.636 21.7965 70.2012 21.1074 70.0118 20.3378C69.9638 20.1518 69.9898 19.9422 69.8236 19.7978C69.8361 19.7672 69.8396 19.7338 69.834 19.7013C69.8283 19.6688 69.8137 19.6386 69.7916 19.6138C70.0258 19.1807 70.4422 19.3705 70.7745 19.3686C73.9335 19.3554 77.0925 19.3554 80.2514 19.3686C80.7479 19.3686 81.0522 19.2914 81.1423 18.7316C81.6287 15.917 80.88 13.2684 78.3196 11.51ZM70.1359 16.6271C70.222 14.5541 71.7795 13.2645 74.0596 13.2645C75.7412 13.2645 77.595 14.2357 77.5789 16.6271H70.1359Z" fill="#615F62"/>
<path d="M52.153 15.8101C52.151 15.0208 51.98 14.2409 51.6512 13.5216C51.3224 12.8022 50.8432 12.1598 50.2452 11.6365C48.2133 9.84447 44.4137 9.79897 42.3458 11.5594C41.8793 11.955 41.7252 11.955 41.517 11.3873C41.2568 10.6732 40.8123 10.4458 40.0837 10.5447C39.684 10.5759 39.2826 10.5792 38.8825 10.5546C38.6003 10.5546 38.4441 10.6673 38.4501 10.9502C38.4501 11.148 38.4501 11.3458 38.4501 11.5436V24.7961C38.4501 24.9939 38.4501 25.1917 38.4501 25.3895C38.4501 25.7614 38.6363 25.9177 39.0066 25.9137C39.9375 25.9018 40.8684 25.9018 41.8093 25.8919C41.9254 25.8919 41.9654 25.795 42.0095 25.704L42.0275 25.5062C42.0435 25.2451 42.0715 24.984 42.0715 24.715C42.0715 21.7698 42.1136 18.8226 42.0515 15.8774C42.0315 14.8884 42.4239 14.295 43.2526 13.8341C43.8532 13.5038 44.4758 13.2288 45.1264 13.213C46.7499 13.1754 47.9751 13.7332 48.3755 15.3413C48.5186 15.9794 48.5825 16.6323 48.5656 17.2857C48.5656 19.9045 48.5656 22.5234 48.5656 25.1423C48.5656 25.884 48.5816 25.8919 49.3484 25.8998C50.0811 25.8998 50.8137 25.886 51.5504 25.8998C51.9928 25.9137 52.2111 25.8207 52.2071 25.3064C52.171 22.1575 52.2311 18.9828 52.153 15.8101Z" fill="#615F62"/>
<path d="M103.583 22.47C102.719 23.0334 101.681 23.2778 100.653 23.1603C99.7277 23.0852 99.1912 22.6678 98.945 21.7757C98.8386 21.4322 98.778 21.0765 98.7648 20.7175C98.7488 18.4923 98.7648 16.265 98.7468 14.0398C98.7468 13.5235 98.9009 13.3475 99.4274 13.3653C100.428 13.3969 101.429 13.3653 102.43 13.3811C102.851 13.3811 103.031 13.2605 103.011 12.8253C102.981 12.2319 102.987 11.6385 103.011 11.057C103.025 10.6772 102.879 10.5387 102.492 10.5447C101.527 10.5625 100.561 10.5447 99.5956 10.5447C98.7768 10.5447 98.7708 10.5348 98.7668 9.75348C98.7668 8.34713 98.7448 6.9388 98.7668 5.53245C98.7788 5.01421 98.5987 4.84015 98.0822 4.86388C97.3495 4.89751 96.6148 4.89751 95.8801 4.86388C95.3316 4.83619 95.1094 5.00036 95.1274 5.57596C95.1654 6.82011 95.1394 8.06427 95.1394 9.30843C95.1394 10.4834 95.1394 10.4952 93.9383 10.5427C93.5379 10.5565 93.3137 10.6278 93.3377 11.0847C93.3657 11.7058 93.3597 12.3288 93.3277 12.9499C93.3117 13.2466 93.3978 13.3791 93.6981 13.3732C93.8302 13.3732 93.9643 13.3732 94.0984 13.3732C95.1514 13.393 95.1534 13.393 95.1534 14.4769C95.1534 16.5716 95.1534 18.6663 95.1534 20.761C95.1436 21.3174 95.171 21.8737 95.2355 22.4265C95.4577 24.0386 96.2785 25.2926 97.854 25.8464C99.5576 26.4398 101.331 26.2223 103.077 25.9078C103.477 25.8366 103.609 25.6071 103.599 25.2135C103.567 24.3808 103.583 23.5243 103.583 22.47Z" fill="#615F62"/>
<path d="M91.2097 17.8534C90.7446 17.5334 90.2435 17.2679 89.7164 17.0622C88.811 16.74 87.9311 16.3519 87.0839 15.9011C86.6455 15.6479 86.2551 15.3493 86.161 14.8112C86.0029 13.9112 86.5033 13.2427 87.4562 13.1339C88.8269 12.9385 90.2213 13.2683 91.3539 14.0556C91.6502 13.2941 91.8664 12.6058 92.1807 11.9629C92.4209 11.4744 92.2828 11.2746 91.8203 11.0768C89.7975 10.1746 87.5153 10.0154 85.3843 10.6278C82.1192 11.5594 81.3505 14.9635 83.7187 17.4143C84.6316 18.3598 85.7807 18.8127 86.9217 19.3329C87.5338 19.5853 88.1209 19.8932 88.6754 20.2527C89.0223 20.4856 89.2819 20.8249 89.4139 21.2182C89.546 21.6116 89.5433 22.0369 89.4061 22.4285C89.1118 23.2019 88.4191 23.3107 87.6985 23.3621C86.2451 23.463 84.9499 23.0338 83.6947 22.1239C83.3063 22.9665 83.002 23.6885 82.6437 24.3867C82.4435 24.7823 82.4715 24.9801 82.91 25.2155C85.2261 26.4023 87.6544 26.5071 90.0867 25.795C91.7282 25.3144 92.9274 24.2502 93.2156 22.4463C93.5179 20.496 92.8373 18.9769 91.2097 17.8534Z" fill="#615F62"/>
<path d="M64.1483 10.5447C63.6699 10.5269 63.4456 10.7049 63.2715 11.1381C62.5128 12.9895 61.728 14.829 60.9433 16.6764C60.4969 17.7228 60.0344 18.7613 59.564 19.8412C59.325 19.5644 59.1507 19.2388 59.0535 18.8878C58.0312 16.3362 57.0136 13.7826 56.0006 11.2271C55.8685 10.8908 55.7905 10.5506 55.286 10.5625C54.1609 10.5902 53.0339 10.5724 51.9128 10.5724C51.9099 10.8268 51.9793 11.0769 52.113 11.2943C53.0032 13.2644 53.892 15.2371 54.7795 17.2125C56.0407 20.0232 57.3079 22.832 58.5591 25.6467C58.6135 25.8164 58.7244 25.9631 58.8737 26.0629C59.023 26.1627 59.2021 26.2098 59.3818 26.1965C60.1345 26.1965 60.1405 26.2183 60.5629 25.3025C62.1644 21.8173 63.7719 18.3334 65.3855 14.8508C66.0261 13.4662 66.6607 12.0638 67.3433 10.5724C66.2062 10.5546 65.1753 10.5783 64.1483 10.5447Z" fill="#615F62"/>
<path d="M36.0158 5.45926C36.0405 5.39525 36.0507 5.32671 36.0458 5.2584C36.041 5.1901 36.0212 5.12366 35.9878 5.06366C34.9048 4.65817 33.7857 4.96278 32.6827 4.8975C32.4825 4.88563 32.4105 5.05574 32.4024 5.23178C32.4024 5.46123 32.4024 5.69067 32.4024 5.92012V24.7961C32.4106 24.9279 32.4106 25.06 32.4024 25.1917C32.3304 25.7297 32.5246 25.9632 33.1131 25.9315C33.9139 25.888 34.7146 25.9315 35.5154 25.9177C35.7036 25.9177 35.9278 25.973 36.0078 25.7199L36.0259 25.5221C36.0399 25.164 36.0639 24.806 36.0639 24.448C36.0639 19.0336 36.0639 13.6198 36.0639 8.20668C36.0519 7.28296 36.0279 6.381 36.0158 5.45926Z" fill="#615F62"/>
<path d="M199.98 26.5565C199.996 24.7348 199.225 23.7399 197.452 23.1445C195.822 22.5966 194.189 22.6777 192.551 23.0693C192.033 23.1907 191.496 23.2108 190.97 23.1287C190.852 23.1193 190.74 23.0718 190.652 22.9935C190.564 22.9152 190.505 22.8105 190.483 22.6955C190.473 22.5961 190.493 22.496 190.542 22.4082C190.59 22.3203 190.664 22.2489 190.753 22.203C191.234 21.9379 191.668 21.6571 192.311 21.7381C193.53 21.8924 194.759 21.8905 195.936 21.394C198.725 20.223 199.882 17.1947 199.057 14.2732C198.923 13.7945 198.445 13.3673 198.521 12.942C198.611 12.4337 199.305 12.3051 199.706 11.9708C200.074 11.6642 200.02 11.4308 199.658 11.2053C199.203 10.9205 198.867 10.5071 198.477 10.1511C197.648 9.40139 197.656 9.39348 196.891 10.25C196.251 10.9699 196.261 10.9383 195.254 10.6455C192.949 9.94929 190.739 10.0976 188.687 11.4526C185.514 13.5453 185.631 17.794 187.887 19.8907C188.185 20.1676 188.461 20.4742 188.808 20.8283L188.82 20.8401H188.801C188.193 21.1307 187.672 21.5749 187.292 22.1278C186.469 23.3581 186.872 24.8456 188.193 25.5319C188.761 25.8109 189.385 25.9591 190.019 25.9651C191.051 25.9918 192.084 25.9363 193.108 25.799C193.966 25.7001 194.835 25.6467 195.686 25.8939C195.93 25.9585 196.146 26.0987 196.303 26.2938C196.46 26.4889 196.55 26.7287 196.559 26.9779C196.587 27.2068 196.545 27.4389 196.438 27.6439C196.331 27.8488 196.163 28.0172 195.958 28.1271C194.957 28.7205 193.834 28.849 192.709 28.7917C191.22 28.7533 189.8 28.1614 188.733 27.1341C187.879 27.8897 187.332 28.8431 186.583 29.6205C186.341 29.8717 186.511 30.0338 186.73 30.1604C187.819 30.7875 188.894 31.4481 190.181 31.6281C190.381 31.9228 190.853 31.6281 191.006 32.0099H194.609C194.705 31.7765 194.933 31.8121 195.117 31.7785C196.03 31.6057 196.909 31.2884 197.72 30.8389C198.639 30.3286 199.385 29.6739 199.812 28.6868C200.092 27.9748 199.974 27.2568 199.98 26.5565ZM190.027 15.8457C190.027 14.287 191.228 13.1714 192.859 13.1754C194.491 13.1794 195.588 14.3622 195.572 16.0455C195.48 18.1006 194.457 18.9986 192.827 18.9531C191.116 18.8958 190.023 17.9226 190.027 15.8378V15.8457Z" fill="#5A575A"/>
<path d="M183.549 16.7437C183.549 15.6618 183.526 14.5798 183.094 13.5611C182.003 10.9897 179.491 9.97304 176.698 10.25C175.386 10.3586 174.154 10.9186 173.217 11.8324C173.001 11.5897 172.842 11.3035 172.75 10.9937C172.728 10.8633 172.657 10.7457 172.552 10.6633C172.447 10.5809 172.316 10.5394 172.182 10.5467C171.549 10.5467 170.917 10.5467 170.284 10.5467C169.938 10.5467 169.808 10.7069 169.824 11.0293C169.824 11.2271 169.824 11.4249 169.824 11.6227C169.824 16.0455 169.824 20.467 169.824 24.8871C169.824 25.0513 169.838 25.2155 169.824 25.3796C169.788 25.8108 169.996 25.9493 170.424 25.9394C171.289 25.9196 172.156 25.9394 173.027 25.9394C173.197 25.9394 173.355 25.9196 173.427 25.7416C173.715 25.4686 173.571 25.1225 173.573 24.8139C173.585 21.8647 173.665 18.9136 173.539 15.9723C173.483 14.6668 174.058 14.0339 175.123 13.5987C175.523 13.4365 175.939 13.2328 176.352 13.2229C178.173 13.1794 179.507 13.7471 179.811 15.6776C179.905 16.3916 179.945 17.1116 179.931 17.8316C179.945 20.3199 179.951 22.8102 179.917 25.2985C179.917 25.7832 180.043 25.9552 180.518 25.9473C181.216 25.9355 181.919 25.9473 182.616 25.9473C183.607 25.9473 183.617 25.9473 183.617 24.988C183.589 22.2326 183.563 19.4892 183.549 16.7437Z" fill="#5A575A"/>
<path d="M162.695 21.5997C162.069 21.8523 161.559 22.3245 161.263 22.9257C160.968 23.527 160.907 24.2149 161.093 24.8575C161.299 25.4767 161.738 25.9939 162.319 26.3015C162.9 26.6091 163.579 26.6835 164.214 26.5091C165.748 26.1689 166.675 24.357 166.028 22.9606C165.751 22.3585 165.252 21.883 164.633 21.6303C164.014 21.3776 163.322 21.3667 162.695 21.5997Z" fill="#5A575A"/>
<path d="M164.01 2.28852L163.87 2.15402L163.84 2.12434L163.504 1.79996L163.484 1.78611C163.451 1.76935 163.421 1.74876 163.394 1.72479C162.993 1.42612 162.889 0.856448 162.369 0.680407C162.312 0.668842 162.253 0.677242 162.202 0.704142C162.064 0.334257 161.926 -0.0336461 161.402 0.00393578C161.274 0.241295 161.001 0.32041 160.801 0.480627C160.731 0.515942 160.659 0.546351 160.585 0.571619C160.152 0.759235 159.739 0.987071 159.35 1.25205L159.332 1.26788C159.315 1.28706 159.296 1.3043 159.276 1.3193C158.835 1.71489 158.205 1.8949 157.964 2.48632C157.68 2.5239 157.434 2.60499 157.428 2.95312C157.47 2.97679 157.515 2.99539 157.562 3.00851C158.181 3.02631 158.495 3.03818 158.629 3.18257C158.654 3.22224 158.675 3.26393 158.693 3.30719C158.716 3.57381 158.688 3.84237 158.609 4.09839L158.563 4.17948C158.552 4.20581 158.544 4.23293 158.537 4.26058C158.492 4.27229 158.446 4.27892 158.399 4.28036C158.167 4.98848 157.934 5.69792 157.7 6.40868C157.678 6.41494 157.657 6.42606 157.639 6.44124C157.621 6.45643 157.607 6.47529 157.598 6.49649C157.589 6.51768 157.584 6.54068 157.585 6.56381C157.586 6.58693 157.591 6.60962 157.602 6.63022C157.542 6.70736 157.448 6.77857 157.428 6.86362C157.04 8.47569 156.303 9.97303 155.806 11.5475C155.806 11.6128 155.806 11.6781 155.79 11.7453C155.779 11.7509 155.77 11.7588 155.762 11.7684C155.755 11.7781 155.75 11.7892 155.747 11.8011C155.744 11.813 155.744 11.8253 155.747 11.8372C155.75 11.8491 155.755 11.8603 155.762 11.8699C155.377 12.5603 155.106 13.3077 154.962 14.0833C154.383 15.2905 153.921 16.5488 153.58 17.8415C153.338 18.1938 153.193 18.6032 153.162 19.0283C152.978 19.2043 152.962 19.5228 152.667 19.6039C152.622 19.2429 152.468 18.9035 152.227 18.6287C152.147 18.2766 152.103 17.9087 151.803 17.6397C151.803 17.0978 151.382 16.7417 151.202 16.2789C151.192 15.9034 151.056 15.542 150.814 15.2523C150.213 13.8341 149.601 12.4238 149.046 10.9897C148.846 10.4655 148.468 10.5625 148.081 10.5387C147.647 10.513 147.359 10.6238 147.375 11.1163C147 11.6659 146.729 12.2777 146.574 12.9222C146.336 13.1914 146.195 13.5308 146.173 13.8875C145.551 15.0812 145.016 16.3173 144.572 17.5863C144.355 17.8201 144.221 18.1172 144.19 18.4329C143.957 18.7145 143.817 19.0596 143.789 19.4219C143.279 20.2898 142.876 21.2148 142.588 22.1773C142.03 23.2519 141.542 24.3605 141.127 25.4963C141.007 25.7555 140.464 26.1431 141.139 26.242C141.939 26.3587 142.784 26.242 143.607 26.2183C143.917 26.2183 144.113 26.068 144.007 25.7159C144.678 25.0651 144.898 24.1968 145.19 23.3621C145.445 23.1013 145.604 22.7634 145.641 22.4027C145.757 22.3021 145.849 22.177 145.911 22.0368C145.972 21.8965 146.001 21.7445 145.995 21.5918C146.06 21.2389 146.196 20.9026 146.396 20.6028C146.831 20.1064 147.121 19.5018 147.234 18.8542C147.599 18.3854 147.769 17.8197 148.021 17.2956C148.201 16.9197 148.363 17.1551 148.538 17.2956C148.763 18.0678 149.107 18.8014 149.557 19.4714C149.855 20.4394 150.269 21.369 150.79 22.2406C151.014 22.834 151.19 23.461 151.602 23.9753C151.603 24.1274 151.636 24.2778 151.7 24.4163C151.764 24.5547 151.857 24.6782 151.973 24.7783C152.009 25.1465 152.153 25.496 152.389 25.7831C152.389 25.9552 152.545 26.0245 152.645 26.1273L152.692 26.1392C153.646 26.3864 153.692 26.3667 154.009 25.7436C154.261 25.4124 154.406 25.0141 154.425 24.6003C154.939 23.5846 155.341 22.5177 155.626 21.4177C155.852 21.0791 155.99 20.6903 156.027 20.2863C156.364 19.8021 156.57 19.2413 156.627 18.6564C156.627 18.5476 156.627 18.4408 156.627 18.334C156.715 18.2905 156.861 18.2687 156.883 18.2054C157.172 17.3747 157.56 16.5776 157.75 15.7151C157.91 15.5578 158.001 15.3446 158.003 15.1217C158.245 14.7773 158.388 14.3736 158.415 13.9547C158.671 13.6164 158.819 13.2099 158.839 12.7877H158.827C158.96 12.6567 159.062 12.4988 159.127 12.325C159.192 12.1513 159.218 11.9656 159.204 11.7809C159.336 11.3853 159.466 10.9897 159.604 10.5822C159.93 10.4082 159.94 10.0601 160.056 9.77326C160.369 8.99986 160.673 8.22251 160.979 7.44713C161.244 6.7489 161.726 6.1199 161.674 5.32277C161.665 5.31191 161.655 5.30197 161.644 5.29309C161.649 5.27685 161.653 5.26034 161.656 5.24364L161.802 5.09133C161.69 4.56716 162.146 4.20322 162.224 3.73443C162.281 3.67612 162.342 3.62314 162.409 3.57619C162.747 3.3329 163.135 3.32104 163.536 3.32104C163.85 3.32104 164.266 3.43576 164.411 3.05994C164.509 2.72764 164.206 2.50412 164.01 2.28852ZM142.81 22.1812L142.796 22.1693L142.81 22.1812ZM146.013 19.0164C146.008 19.0322 146.009 19.0349 146.015 19.0243L146.013 19.0164ZM150.69 20.5118C150.692 20.5189 150.692 20.5264 150.69 20.5335C150.691 20.529 150.692 20.5244 150.692 20.5197L150.69 20.5118ZM153.742 25.4765C153.713 25.4603 153.69 25.4344 153.678 25.4034L153.753 25.4706L153.742 25.4765Z" fill="#E80000"/>
<path d="M141.221 20.678C141.833 19.6692 142.222 18.5556 142.706 17.4914C142.756 17.388 142.783 17.2757 142.787 17.1614C142.791 17.0471 142.771 16.9332 142.728 16.8268C142.016 14.8725 141.449 12.8708 140.638 10.9443C140.638 10.7741 140.602 10.5783 140.414 10.5724C139.193 10.5057 137.969 10.513 136.749 10.5941C137.031 11.3517 137.213 12.0005 137.575 12.582C137.742 13.3221 137.99 14.0418 138.316 14.7282L138.766 15.7508C138.855 16.1464 138.921 16.542 139.181 16.8624C139.069 17.434 139.501 17.8316 139.671 18.3103C140.03 19.323 140.42 20.3239 140.814 21.3742C140.937 21.3028 141.039 21.2011 141.11 21.079C141.182 20.957 141.22 20.8188 141.221 20.678ZM139.435 15.6459C139.419 15.6639 139.402 15.6805 139.383 15.6954L139.371 15.6637L139.435 15.6459Z" fill="#E80000"/>
<path d="M120.806 5.06168V5.05179C119.765 4.67201 118.69 4.9509 117.631 4.89156C117.518 4.89156 117.466 4.97266 117.43 5.06562C117.258 5.37024 117.342 5.70452 117.342 6.02298C117.334 8.26471 117.334 10.5117 117.342 12.764C117.342 14.1961 117.376 15.6261 117.392 17.0582C117.392 17.163 117.374 17.2699 117.364 17.3747C117.136 17.3233 116.86 17.3549 116.764 17.0582C116.629 16.6676 116.361 16.3355 116.005 16.1187C115.805 15.9624 115.727 15.6578 115.434 15.5846C115.434 15.4897 115.455 15.371 115.406 15.3037C114.74 14.3899 114.111 13.4424 113.204 12.7323C113.23 12.5464 113.05 12.4772 112.984 12.3367C112.946 12.1419 112.855 11.9612 112.719 11.8145C112.584 11.6679 112.41 11.5611 112.217 11.506C112.217 11.4407 112.245 11.3576 112.217 11.3082C110.992 9.72578 109.797 8.10977 108.432 6.63419C108.384 6.23859 108.102 6.00913 107.831 5.77177C107.833 5.70939 107.811 5.64864 107.77 5.60118C107.729 5.55373 107.672 5.5229 107.609 5.51463C107.485 5.41573 107.423 5.24168 107.233 5.22387L107.193 5.27925L107.235 5.22584C106.937 4.88958 105.733 4.73531 105.501 5.01223C105.447 5.09198 105.417 5.1853 105.415 5.28123C105.403 5.47903 105.415 5.67683 105.415 5.87463C105.415 12.1937 105.415 18.514 105.415 24.8357C105.415 25.0335 105.415 25.2313 105.415 25.4291C105.403 25.7416 105.519 25.9236 105.869 25.9216C106.77 25.9216 107.67 25.9216 108.568 25.9216C108.92 25.9216 109.038 25.7495 109.028 25.435C109.028 25.2056 109.028 24.9761 109.028 24.7467V13.1655C109.463 13.2585 109.521 13.6363 109.803 13.7391C109.877 13.8618 109.953 13.9844 110.029 14.107C110.371 14.6209 110.761 15.1023 111.192 15.5451C111.685 16.0969 111.959 16.8228 112.594 17.2521C112.638 17.6358 112.922 17.8455 113.194 18.0888C114.444 19.7265 115.683 21.3702 116.948 22.9942C117.286 23.4313 117.548 23.9377 118.013 24.268L118.195 24.3768C118.325 24.9702 118.836 25.3124 119.182 25.7614C119.228 25.9592 119.32 26.1135 119.554 26.1234C120.882 26.3311 120.956 26.3014 120.956 25.3955C120.965 18.8259 120.97 12.2563 120.972 5.68672C120.952 5.47507 121.058 5.22387 120.806 5.06168ZM105.791 25.1185V25.0671C105.811 25.0908 105.833 25.1126 105.855 25.1363L105.791 25.1185ZM120.189 7.4234C120.19 7.42367 120.192 7.42367 120.193 7.4234H120.189ZM118.788 5.26146V5.24959L118.798 5.26146H118.788ZM117.587 6.50561V6.43835L117.667 6.40869C117.653 6.43836 117.625 6.47001 117.599 6.50561H117.587Z" fill="#E80000"/>
<path d="M137.433 16.2433C137.341 15.4066 137.207 14.5837 136.596 13.9251C136.334 13.6205 136.468 13.1003 136.016 12.9005C136.002 12.8078 135.962 12.721 135.899 12.6507C135.837 12.5804 135.755 12.5297 135.664 12.5049C135.605 12.3585 135.518 12.2251 135.407 12.1124C135.296 11.9997 135.163 11.9098 135.017 11.8482C134.903 11.7038 134.831 11.4743 134.566 11.6266C134.464 11.2488 134.128 11.1855 133.818 11.0886C132.513 10.2974 131.077 10.2163 129.604 10.3449C128.517 10.3073 127.486 10.4834 126.583 11.1361C126.439 11.1491 126.299 11.1937 126.175 11.2666C126.05 11.3395 125.943 11.4388 125.862 11.5574C124.713 12.1172 124.025 13.1556 123.528 14.1961C122.205 16.9653 122.299 19.8155 123.626 22.5907C123.882 23.1287 124.143 23.7241 124.779 23.9891C124.784 24.0399 124.807 24.0875 124.843 24.1236C124.88 24.1597 124.928 24.1821 124.979 24.1869C125.718 25.3084 126.891 25.6763 128.122 25.9394C129.466 26.3407 130.901 26.3373 132.242 25.9295C132.487 26.0264 132.643 25.8425 132.807 25.7317L132.997 25.7139C134.51 25.2432 135.501 24.1533 136.4 22.9447C136.851 22.3828 137.137 21.7096 137.227 20.9984C137.763 19.4358 137.727 17.8534 137.433 16.2433ZM132.198 22.7489L130.745 23.3265H130.248C128.303 23.3146 127.121 22.4087 126.663 20.5731C126.569 20.1933 126.495 19.8076 126.413 19.4259C126.385 18.4369 126.545 17.4597 126.383 16.4787C126.649 15.9782 126.647 15.3769 126.999 14.9101C127.158 14.836 127.296 14.7255 127.403 14.5879C127.509 14.4502 127.581 14.2895 127.612 14.1189C127.882 13.6739 128.483 13.7233 128.799 13.3534C129.696 13.1437 130.629 13.1437 131.526 13.3534C131.78 13.5541 132.069 13.7081 132.378 13.8084C133.081 14.4018 133.379 15.193 133.618 16.0277C133.976 17.3312 133.832 18.6604 133.776 19.9837C133.483 20.6839 133.275 21.4177 132.835 22.0665C132.655 22.3233 132.439 22.5532 132.192 22.7489H132.198Z" fill="#E80000"/>
<path d="M21.5963 24.9267C21.6123 18.6051 21.6163 12.2827 21.6083 5.95973C21.6083 5.79753 21.5943 5.63139 21.6083 5.46919C21.6483 5.02019 21.4782 4.78678 20.9897 4.82436C20.7575 4.84216 20.5233 4.82436 20.2891 4.82436C14.4262 4.82436 8.56204 4.82436 2.69652 4.82436C1.79768 4.82436 0.894829 4.85008 -0.00201416 4.86392V13.9073V23.5421C0.216191 23.4155 0.462419 23.3107 0.426385 22.9942L0.600554 22.8933C0.966899 22.6679 1.29921 22.4147 1.40131 21.9716C1.67163 21.8544 1.89438 21.6511 2.0339 21.394C2.35464 21.1895 2.62762 20.9197 2.83466 20.6028C2.88569 20.5969 2.93321 20.5742 2.96954 20.5383C3.00587 20.5024 3.02888 20.4555 3.03484 20.405C3.49044 20.0734 3.89502 19.6783 4.23597 19.2321C4.68209 18.9153 5.07465 18.5308 5.39907 18.0928C6.30592 17.4657 7.16873 16.7912 7.7793 15.8616C7.98024 15.7971 8.1663 15.6941 8.32674 15.5583C8.48719 15.4225 8.61887 15.2567 8.71418 15.0704L10.4178 13.3179C10.7383 13.113 11.0112 12.8433 11.2185 12.5267C11.3096 12.4921 11.3923 12.439 11.4612 12.3709C11.5302 12.3027 11.5839 12.221 11.6189 12.1311C11.9458 11.9342 12.2204 11.6629 12.4197 11.3399L12.9682 10.8988C13.5107 10.7841 13.5687 10.1788 13.9691 9.92957C14.5697 9.55573 15.0742 8.83375 15.945 9.36979C16.0694 9.53449 16.1551 9.72449 16.196 9.92601C16.2369 10.1275 16.2318 10.3355 16.1812 10.5348L13.5788 13.1517C13.2578 13.3051 12.9979 13.5598 12.8401 13.8757C12.3464 14.2038 11.9188 14.6196 11.5789 15.102C11.2396 15.2445 10.9678 15.5089 10.8182 15.8418C10.4698 16.1345 10.1055 16.4134 9.77518 16.726C8.54335 17.889 7.3182 19.0587 6.09972 20.2349C4.38211 21.8925 2.66783 23.5533 0.956889 25.2175C0.756701 25.2768 0.654603 25.4687 0.498456 25.5854C0.418294 25.6529 0.31542 25.6882 0.210185 25.6843C0.296266 25.8623 0.378346 26.0324 0.638591 25.9513C1.02696 25.8287 1.43934 25.8979 1.8237 25.8979C7.97348 25.8979 14.1219 25.8979 20.269 25.8979C20.6334 25.8979 20.9977 25.8722 21.3621 25.8584C21.8105 25.6467 21.5943 25.2432 21.5963 24.9267ZM10.7421 12.5128C10.8204 12.5144 10.8982 12.5244 10.9743 12.5425C10.8956 12.5523 10.8157 12.5421 10.7421 12.5128Z" fill="#E60100"/>
</g>
<defs>
<clipPath id="clip0_90_290">
<rect width="200" height="32" fill="white"/>
</clipPath>
</defs>
</svg>
