<svg width="200" height="32" viewBox="0 0 200 32" fill="none" xmlns="http://www.w3.org/2000/svg">
<g clip-path="url(#clip0_1457_40092)">
<path d="M78.3197 11.5099C76.7622 10.4398 75.0186 10.2658 73.1889 10.3231C69.2832 10.4596 65.9621 14.1822 66.1823 17.8395C66.1012 17.9917 66.0579 18.1608 66.0562 18.3328C66.0545 18.5048 66.0943 18.6747 66.1723 18.8285C65.9721 22.0981 68.026 25.3322 71.7555 26.0047C73.8295 26.3765 75.9294 26.3053 77.9513 25.5596C78.3865 25.3991 78.7994 25.1851 79.1805 24.9227C79.2318 24.8975 79.2769 24.8618 79.313 24.8178C79.3491 24.7739 79.3752 24.7229 79.3897 24.6682C79.4041 24.6134 79.4065 24.5562 79.3966 24.5005C79.3868 24.4448 79.365 24.3918 79.3326 24.3451C78.9323 23.5797 78.622 22.7627 78.0975 22.0526C76.6201 23.0931 75.7813 23.3106 73.4331 23.1524C72.6327 23.1078 71.8681 22.8101 71.2521 22.3033C70.636 21.7965 70.2012 21.1074 70.0119 20.3377C69.9638 20.1518 69.9899 19.9421 69.8237 19.7977C69.8361 19.7671 69.8397 19.7337 69.834 19.7013C69.8284 19.6688 69.8137 19.6385 69.7917 19.6138C70.0259 19.1806 70.4423 19.3705 70.7746 19.3685C73.9336 19.3553 77.0925 19.3553 80.2515 19.3685C80.748 19.3685 81.0523 19.2914 81.1423 18.7316C81.6288 15.9169 80.8801 13.2684 78.3197 11.5099ZM70.136 16.627C70.2221 14.5541 71.7795 13.2644 74.0597 13.2644C75.7413 13.2644 77.595 14.2356 77.579 16.627H70.136Z" fill="white"/>
<path d="M52.153 15.8101C52.151 15.0208 51.98 14.2409 51.6512 13.5216C51.3224 12.8022 50.8432 12.1598 50.2452 11.6365C48.2133 9.84447 44.4137 9.79897 42.3458 11.5594C41.8793 11.955 41.7252 11.955 41.517 11.3873C41.2568 10.6732 40.8123 10.4458 40.0837 10.5447C39.684 10.5759 39.2826 10.5792 38.8825 10.5546C38.6003 10.5546 38.4441 10.6673 38.4501 10.9502C38.4501 11.148 38.4501 11.3458 38.4501 11.5436V24.7961C38.4501 24.9939 38.4501 25.1917 38.4501 25.3895C38.4501 25.7614 38.6363 25.9177 39.0066 25.9137C39.9375 25.9018 40.8684 25.9018 41.8093 25.8919C41.9254 25.8919 41.9654 25.795 42.0095 25.704L42.0275 25.5062C42.0435 25.2451 42.0715 24.984 42.0715 24.715C42.0715 21.7698 42.1136 18.8226 42.0515 15.8774C42.0315 14.8884 42.4239 14.295 43.2526 13.8341C43.8532 13.5038 44.4758 13.2288 45.1264 13.213C46.7499 13.1754 47.9751 13.7332 48.3755 15.3413C48.5186 15.9794 48.5825 16.6323 48.5656 17.2857C48.5656 19.9045 48.5656 22.5234 48.5656 25.1423C48.5656 25.884 48.5816 25.8919 49.3484 25.8998C50.0811 25.8998 50.8137 25.886 51.5504 25.8998C51.9928 25.9137 52.2111 25.8207 52.2071 25.3064C52.171 22.1575 52.2311 18.9828 52.153 15.8101Z" fill="white"/>
<path d="M103.583 22.4701C102.719 23.0335 101.681 23.2779 100.653 23.1605C99.7278 23.0853 99.1913 22.6679 98.945 21.7759C98.8387 21.4324 98.7781 21.0766 98.7649 20.7176C98.7489 18.4924 98.7649 16.2652 98.7469 14.0399C98.7469 13.5237 98.901 13.3476 99.4275 13.3654C100.428 13.3971 101.429 13.3654 102.43 13.3812C102.851 13.3812 103.031 13.2606 103.011 12.8254C102.981 12.232 102.987 11.6386 103.011 11.0571C103.025 10.6773 102.879 10.5389 102.492 10.5448C101.527 10.5626 100.561 10.5448 99.5957 10.5448C98.7769 10.5448 98.7709 10.5349 98.7669 9.7536C98.7669 8.34725 98.7448 6.93892 98.7669 5.53257C98.7789 5.01433 98.5987 4.84027 98.0822 4.864C97.3495 4.89763 96.6149 4.89763 95.8802 4.864C95.3316 4.83631 95.1094 5.00048 95.1275 5.57608C95.1655 6.82024 95.1395 8.06439 95.1395 9.30855C95.1395 10.4835 95.1395 10.4953 93.9383 10.5428C93.538 10.5567 93.3137 10.6279 93.3378 11.0848C93.3658 11.7059 93.3598 12.329 93.3278 12.95C93.3117 13.2467 93.3978 13.3793 93.6981 13.3733C93.8302 13.3733 93.9644 13.3733 94.0985 13.3733C95.1515 13.3931 95.1535 13.3931 95.1535 14.4771C95.1535 16.5718 95.1535 18.6665 95.1535 20.7611C95.1437 21.3175 95.1711 21.8739 95.2356 22.4266C95.4578 24.0387 96.2785 25.2927 97.854 25.8466C99.5576 26.44 101.331 26.2224 103.077 25.9079C103.477 25.8367 103.609 25.6072 103.599 25.2136C103.567 24.3809 103.583 23.5244 103.583 22.4701Z" fill="white"/>
<path d="M91.2096 17.8534C90.7445 17.5334 90.2434 17.2679 89.7162 17.0622C88.8109 16.74 87.931 16.3519 87.0838 15.9011C86.6453 15.6479 86.255 15.3493 86.1609 14.8112C86.0027 13.9112 86.5032 13.2427 87.4561 13.1339C88.8268 12.9385 90.2212 13.2683 91.3538 14.0556C91.65 13.2941 91.8663 12.6058 92.1805 11.9629C92.4208 11.4744 92.2826 11.2746 91.8202 11.0768C89.7974 10.1746 87.5152 10.0154 85.3842 10.6278C82.1191 11.5594 81.3504 14.9635 83.7186 17.4143C84.6314 18.3598 85.7805 18.8127 86.9216 19.3329C87.5337 19.5853 88.1207 19.8932 88.6753 20.2527C89.0222 20.4856 89.2817 20.8249 89.4138 21.2182C89.5459 21.6116 89.5431 22.0369 89.4059 22.4285C89.1117 23.2019 88.419 23.3107 87.6983 23.3621C86.245 23.463 84.9497 23.0338 83.6946 22.1239C83.3062 22.9665 83.0019 23.6885 82.6436 24.3867C82.4434 24.7823 82.4714 24.9801 82.9098 25.2155C85.226 26.4023 87.6543 26.5071 90.0866 25.795C91.7281 25.3144 92.9272 24.2502 93.2155 22.4463C93.5178 20.496 92.8372 18.9769 91.2096 17.8534Z" fill="white"/>
<path d="M64.1482 10.5447C63.6697 10.5269 63.4455 10.7049 63.2714 11.1381C62.5126 12.9895 61.7279 14.829 60.9432 16.6764C60.4967 17.7228 60.0343 18.7613 59.5639 19.8412C59.3249 19.5644 59.1506 19.2388 59.0534 18.8878C58.0311 16.3362 57.0135 13.7826 56.0005 11.2271C55.8684 10.8908 55.7903 10.5506 55.2859 10.5625C54.1608 10.5902 53.0337 10.5724 51.9127 10.5724C51.9098 10.8268 51.9791 11.0769 52.1129 11.2943C53.003 13.2644 53.8919 15.2371 54.7794 17.2125C56.0406 20.0232 57.3078 22.832 58.5589 25.6467C58.6134 25.8164 58.7243 25.9631 58.8736 26.0629C59.0229 26.1627 59.2019 26.2098 59.3817 26.1965C60.1344 26.1965 60.1404 26.2183 60.5628 25.3025C62.1643 21.8173 63.7718 18.3334 65.3853 14.8508C66.0259 13.4662 66.6605 12.0638 67.3432 10.5724C66.2061 10.5546 65.1751 10.5783 64.1482 10.5447Z" fill="white"/>
<path d="M36.0159 5.45938C36.0405 5.39537 36.0507 5.32683 36.0459 5.25853C36.0411 5.19022 36.0213 5.12378 35.9879 5.06378C34.9049 4.65829 33.7858 4.9629 32.6828 4.89762C32.4826 4.88576 32.4105 5.05586 32.4025 5.23191C32.4025 5.46135 32.4025 5.6908 32.4025 5.92024V24.7962C32.4107 24.928 32.4107 25.0601 32.4025 25.1918C32.3304 25.7299 32.5246 25.9633 33.1132 25.9316C33.9139 25.8881 34.7147 25.9316 35.5154 25.9178C35.7036 25.9178 35.9278 25.9732 36.0079 25.72L36.0259 25.5222C36.0399 25.1642 36.0639 24.8061 36.0639 24.4481C36.0639 19.0337 36.0639 13.6199 36.0639 8.2068C36.0519 7.28308 36.0279 6.38112 36.0159 5.45938Z" fill="white"/>
<path d="M199.98 26.5565C199.996 24.7347 199.225 23.7398 197.452 23.1444C195.822 22.5965 194.188 22.6776 192.551 23.0693C192.033 23.1906 191.496 23.2108 190.969 23.1286C190.851 23.1193 190.74 23.0718 190.652 22.9935C190.564 22.9152 190.505 22.8104 190.483 22.6954C190.473 22.596 190.493 22.4959 190.541 22.4081C190.59 22.3203 190.663 22.2488 190.753 22.2029C191.234 21.9379 191.668 21.657 192.311 21.7381C193.53 21.8924 194.759 21.8904 195.936 21.3939C198.725 20.2229 199.882 17.1946 199.057 14.2731C198.923 13.7945 198.445 13.3672 198.521 12.9419C198.611 12.4336 199.305 12.305 199.706 11.9707C200.074 11.6642 200.02 11.4308 199.658 11.2053C199.203 10.9204 198.867 10.507 198.477 10.151C197.648 9.40133 197.656 9.39342 196.891 10.2499C196.25 10.9699 196.26 10.9382 195.253 10.6455C192.949 9.94923 190.739 10.0976 188.687 11.4525C185.514 13.5452 185.63 17.794 187.887 19.8906C188.185 20.1676 188.461 20.4741 188.807 20.8282L188.819 20.8401H188.801C188.192 21.1307 187.672 21.5748 187.292 22.1277C186.469 23.3581 186.872 24.8455 188.193 25.5319C188.76 25.8109 189.385 25.959 190.019 25.9651C191.051 25.9918 192.084 25.9362 193.107 25.7989C193.966 25.7 194.835 25.6466 195.686 25.8939C195.93 25.9585 196.146 26.0986 196.303 26.2937C196.46 26.4889 196.55 26.7286 196.559 26.9778C196.587 27.2068 196.545 27.4388 196.438 27.6438C196.33 27.8488 196.163 28.0171 195.958 28.127C194.957 28.7204 193.834 28.849 192.709 28.7916C191.22 28.7532 189.8 28.1613 188.733 27.1341C187.879 27.8896 187.332 28.843 186.583 29.6204C186.341 29.8716 186.511 30.0338 186.729 30.1604C187.819 30.7874 188.894 31.4481 190.181 31.6281C190.381 31.9228 190.853 31.6281 191.006 32.0098H194.609C194.705 31.7764 194.933 31.812 195.117 31.7784C196.03 31.6056 196.909 31.2883 197.72 30.8388C198.639 30.3285 199.385 29.6738 199.812 28.6868C200.092 27.9747 199.974 27.2567 199.98 26.5565ZM190.027 15.8456C190.027 14.287 191.228 13.1714 192.859 13.1753C194.491 13.1793 195.588 14.3621 195.572 16.0454C195.48 18.1005 194.457 18.9986 192.827 18.9531C191.116 18.8957 190.023 17.9225 190.027 15.8377V15.8456Z" fill="white"/>
<path d="M183.548 16.7437C183.548 15.6618 183.526 14.5798 183.094 13.5611C182.003 10.9897 179.491 9.97304 176.698 10.25C175.386 10.3586 174.154 10.9186 173.217 11.8324C173.001 11.5897 172.842 11.3035 172.75 10.9937C172.727 10.8633 172.657 10.7457 172.552 10.6633C172.447 10.5809 172.316 10.5394 172.182 10.5467C171.549 10.5467 170.917 10.5467 170.284 10.5467C169.938 10.5467 169.808 10.7069 169.824 11.0293C169.824 11.2271 169.824 11.4249 169.824 11.6227C169.824 16.0455 169.824 20.467 169.824 24.8871C169.824 25.0513 169.838 25.2155 169.824 25.3796C169.788 25.8108 169.996 25.9493 170.424 25.9394C171.289 25.9196 172.156 25.9394 173.027 25.9394C173.197 25.9394 173.355 25.9196 173.427 25.7416C173.715 25.4686 173.571 25.1225 173.573 24.8139C173.585 21.8647 173.665 18.9136 173.539 15.9723C173.483 14.6668 174.058 14.0339 175.123 13.5987C175.523 13.4365 175.939 13.2328 176.352 13.2229C178.173 13.1794 179.507 13.7471 179.811 15.6776C179.905 16.3916 179.945 17.1116 179.931 17.8316C179.945 20.3199 179.951 22.8102 179.917 25.2985C179.917 25.7832 180.043 25.9552 180.518 25.9473C181.216 25.9354 181.919 25.9473 182.616 25.9473C183.607 25.9473 183.617 25.9473 183.617 24.988C183.588 22.2326 183.562 19.4892 183.548 16.7437Z" fill="white"/>
<path d="M162.695 21.5998C162.069 21.8523 161.559 22.3245 161.263 22.9258C160.968 23.527 160.907 24.215 161.093 24.8575C161.299 25.4767 161.738 25.9939 162.319 26.3015C162.9 26.6092 163.579 26.6835 164.214 26.5092C165.748 26.1689 166.675 24.3571 166.028 22.9606C165.751 22.3585 165.252 21.883 164.633 21.6304C164.014 21.3777 163.322 21.3668 162.695 21.5998Z" fill="white"/>
<path d="M164.01 2.28846L163.87 2.15395L163.84 2.12428L163.504 1.7999L163.484 1.78605C163.451 1.76929 163.421 1.7487 163.394 1.72473C162.993 1.42606 162.889 0.856387 162.369 0.680346C162.312 0.668781 162.253 0.677181 162.202 0.704081C162.064 0.334196 161.926 -0.0337072 161.402 0.00387475C161.274 0.241234 161.001 0.320349 160.801 0.480566C160.731 0.515881 160.659 0.54629 160.585 0.571558C160.152 0.759174 159.739 0.98701 159.35 1.25199L159.332 1.26782C159.315 1.287 159.296 1.30424 159.276 1.31923C158.835 1.71483 158.205 1.89484 157.964 2.48626C157.68 2.52384 157.434 2.60493 157.428 2.95306C157.47 2.97673 157.515 2.99533 157.562 3.00845C158.181 3.02625 158.495 3.03812 158.629 3.18251C158.654 3.22218 158.675 3.26387 158.693 3.30713C158.716 3.57375 158.688 3.84231 158.609 4.09833L158.563 4.17942C158.552 4.20575 158.544 4.23287 158.537 4.26052C158.492 4.27223 158.446 4.27886 158.399 4.2803C158.167 4.98842 157.934 5.69786 157.7 6.40862C157.678 6.41488 157.657 6.426 157.639 6.44118C157.621 6.45637 157.607 6.47523 157.598 6.49643C157.589 6.51762 157.584 6.54062 157.585 6.56375C157.586 6.58687 157.591 6.60955 157.602 6.63016C157.542 6.7073 157.448 6.77851 157.428 6.86356C157.04 8.47563 156.303 9.97297 155.806 11.5475C155.806 11.6127 155.806 11.678 155.79 11.7452C155.779 11.7508 155.77 11.7587 155.762 11.7684C155.755 11.778 155.75 11.7892 155.747 11.8011C155.744 11.813 155.744 11.8253 155.747 11.8372C155.75 11.8491 155.755 11.8602 155.762 11.8699C155.377 12.5602 155.106 13.3076 154.962 14.0832C154.383 15.2904 153.921 16.5487 153.58 17.8414C153.338 18.1938 153.193 18.6032 153.162 19.0282C152.978 19.2043 152.962 19.5227 152.667 19.6038C152.622 19.2428 152.468 18.9034 152.227 18.6287C152.147 18.2766 152.103 17.9087 151.803 17.6397C151.803 17.0977 151.382 16.7417 151.202 16.2788C151.192 15.9034 151.056 15.542 150.814 15.2522C150.213 13.834 149.601 12.4237 149.046 10.9897C148.846 10.4655 148.468 10.5624 148.081 10.5387C147.647 10.513 147.359 10.6237 147.375 11.1162C147 11.6659 146.729 12.2776 146.574 12.9222C146.336 13.1913 146.195 13.5308 146.173 13.8874C145.551 15.0811 145.016 16.3172 144.572 17.5863C144.355 17.82 144.221 18.1171 144.19 18.4328C143.957 18.7144 143.817 19.0595 143.789 19.4218C143.279 20.2898 142.876 21.2148 142.588 22.1772C142.03 23.2519 141.542 24.3605 141.127 25.4963C141.007 25.7554 140.464 26.1431 141.139 26.242C141.939 26.3587 142.784 26.242 143.607 26.2182C143.917 26.2182 144.113 26.0679 144.007 25.7158C144.678 25.0651 144.898 24.1967 145.19 23.362C145.445 23.1012 145.604 22.7633 145.641 22.4027C145.757 22.302 145.849 22.177 145.911 22.0367C145.972 21.8964 146.001 21.7444 145.995 21.5917C146.06 21.2389 146.196 20.9025 146.396 20.6027C146.831 20.1064 147.121 19.5017 147.234 18.8542C147.599 18.3854 147.769 17.8197 148.021 17.2955C148.201 16.9197 148.363 17.1551 148.538 17.2955C148.763 18.0677 149.107 18.8014 149.557 19.4713C149.855 20.4394 150.269 21.3689 150.79 22.2405C151.014 22.8339 151.19 23.4609 151.602 23.9752C151.603 24.1274 151.636 24.2777 151.7 24.4162C151.764 24.5547 151.857 24.6781 151.973 24.7783C152.009 25.1464 152.153 25.4959 152.389 25.7831C152.389 25.9552 152.545 26.0244 152.645 26.1273L152.692 26.1391C153.646 26.3864 153.692 26.3666 154.009 25.7435C154.261 25.4124 154.406 25.014 154.425 24.6002C154.939 23.5845 155.341 22.5177 155.626 21.4177C155.852 21.079 155.99 20.6903 156.027 20.2862C156.364 19.8021 156.57 19.2412 156.627 18.6564C156.627 18.5476 156.627 18.4408 156.627 18.334C156.715 18.2904 156.861 18.2687 156.883 18.2054C157.172 17.3746 157.56 16.5775 157.75 15.7151C157.91 15.5577 158.001 15.3445 158.003 15.1217C158.245 14.7772 158.388 14.3736 158.415 13.9547C158.671 13.6163 158.819 13.2098 158.839 12.7877H158.827C158.96 12.6566 159.062 12.4988 159.127 12.325C159.192 12.1512 159.218 11.9656 159.204 11.7809C159.336 11.3853 159.466 10.9897 159.604 10.5822C159.93 10.4081 159.94 10.06 160.056 9.77319C160.369 8.9998 160.673 8.22244 160.979 7.44707C161.244 6.74884 161.726 6.11984 161.674 5.32271C161.665 5.31185 161.655 5.3019 161.644 5.29303C161.649 5.27679 161.653 5.26028 161.656 5.24358L161.802 5.09127C161.69 4.5671 162.146 4.20316 162.224 3.73437C162.281 3.67606 162.342 3.62308 162.409 3.57613C162.747 3.33284 163.135 3.32098 163.536 3.32098C163.85 3.32098 164.266 3.4357 164.411 3.05988C164.509 2.72758 164.206 2.50406 164.01 2.28846ZM142.81 22.1812L142.796 22.1693L142.81 22.1812ZM146.013 19.0164C146.008 19.0322 146.009 19.0348 146.015 19.0243L146.013 19.0164ZM150.69 20.5117C150.692 20.5188 150.692 20.5264 150.69 20.5335C150.691 20.529 150.692 20.5243 150.692 20.5196L150.69 20.5117ZM153.742 25.4765C153.713 25.4602 153.69 25.4343 153.678 25.4033L153.753 25.4706L153.742 25.4765Z" fill="#E80000"/>
<path d="M141.221 20.678C141.833 19.6693 142.222 18.5556 142.706 17.4915C142.756 17.3881 142.783 17.2757 142.787 17.1614C142.791 17.0471 142.771 16.9332 142.728 16.8269C142.015 14.8726 141.449 12.8709 140.638 10.9443C140.638 10.7742 140.602 10.5784 140.414 10.5724C139.193 10.5058 137.969 10.513 136.749 10.5942C137.031 11.3518 137.213 12.0006 137.575 12.5821C137.742 13.3221 137.99 14.0419 138.316 14.7282L138.766 15.7508C138.855 16.1464 138.921 16.542 139.181 16.8625C139.069 17.4341 139.501 17.8317 139.671 18.3104C140.03 19.3231 140.42 20.324 140.814 21.3743C140.937 21.3028 141.039 21.2011 141.11 21.0791C141.182 20.9571 141.22 20.8189 141.221 20.678ZM139.435 15.646C139.419 15.664 139.402 15.6805 139.383 15.6955L139.371 15.6638L139.435 15.646Z" fill="#E80000"/>
<path d="M120.805 5.06162V5.05173C119.764 4.67195 118.689 4.95084 117.63 4.8915C117.518 4.8915 117.466 4.9726 117.43 5.06556C117.258 5.37017 117.342 5.70446 117.342 6.02292C117.334 8.26465 117.334 10.5117 117.342 12.7639C117.342 14.196 117.376 15.6261 117.392 17.0581C117.392 17.163 117.374 17.2698 117.364 17.3746C117.136 17.3232 116.86 17.3548 116.764 17.0581C116.629 16.6675 116.36 16.3354 116.005 16.1186C115.805 15.9623 115.727 15.6577 115.434 15.5846C115.434 15.4896 115.454 15.3709 115.406 15.3037C114.74 14.3898 114.111 13.4424 113.204 12.7323C113.23 12.5463 113.05 12.4771 112.984 12.3367C112.946 12.1418 112.855 11.9611 112.719 11.8145C112.584 11.6679 112.41 11.5611 112.217 11.5059C112.217 11.4406 112.245 11.3576 112.217 11.3081C110.992 9.72572 109.797 8.10971 108.432 6.63412C108.384 6.23853 108.102 6.00907 107.831 5.77171C107.833 5.70932 107.811 5.64858 107.77 5.60112C107.729 5.55366 107.672 5.52284 107.609 5.51457C107.485 5.41567 107.423 5.24161 107.233 5.22381L107.193 5.27919L107.235 5.22578C106.936 4.88952 105.733 4.73525 105.501 5.01217C105.447 5.09192 105.417 5.18524 105.415 5.28117C105.403 5.47897 105.415 5.67677 105.415 5.87457C105.415 12.1936 105.415 18.514 105.415 24.8356C105.415 25.0334 105.415 25.2312 105.415 25.429C105.403 25.7415 105.519 25.9235 105.869 25.9215C106.77 25.9215 107.67 25.9215 108.568 25.9215C108.92 25.9215 109.038 25.7495 109.028 25.435C109.028 25.2055 109.028 24.9761 109.028 24.7466V13.1655C109.463 13.2584 109.521 13.6362 109.803 13.7391C109.877 13.8617 109.953 13.9843 110.029 14.107C110.371 14.6209 110.761 15.1023 111.192 15.545C111.685 16.0968 111.959 16.8228 112.594 17.252C112.638 17.6357 112.922 17.8454 113.194 18.0887C114.443 19.7265 115.683 21.3702 116.948 22.9941C117.286 23.4312 117.548 23.9376 118.013 24.2679L118.195 24.3767C118.325 24.9701 118.836 25.3123 119.182 25.7613C119.228 25.9591 119.32 26.1134 119.554 26.1233C120.882 26.331 120.956 26.3013 120.956 25.3954C120.965 18.8258 120.97 12.2562 120.972 5.68666C120.952 5.47501 121.058 5.22381 120.805 5.06162ZM105.791 25.1185V25.067C105.811 25.0908 105.833 25.1125 105.855 25.1363L105.791 25.1185ZM120.189 7.42334C120.19 7.42361 120.192 7.42361 120.193 7.42334H120.189ZM118.788 5.2614V5.24953L118.798 5.2614H118.788ZM117.586 6.50555V6.43829L117.667 6.40863C117.653 6.4383 117.624 6.46995 117.598 6.50555H117.586Z" fill="#E80000"/>
<path d="M137.433 16.2432C137.341 15.4065 137.207 14.5837 136.596 13.925C136.334 13.6204 136.468 13.1002 136.016 12.9004C136.003 12.8077 135.962 12.7209 135.9 12.6507C135.837 12.5804 135.755 12.5297 135.664 12.5048C135.605 12.3585 135.518 12.2251 135.407 12.1123C135.296 11.9996 135.163 11.9098 135.017 11.8481C134.903 11.7037 134.831 11.4743 134.567 11.6266C134.465 11.2488 134.128 11.1855 133.818 11.0886C132.513 10.2974 131.077 10.2163 129.604 10.3448C128.517 10.3073 127.486 10.4833 126.583 11.136C126.439 11.1491 126.299 11.1937 126.175 11.2665C126.05 11.3394 125.943 11.4387 125.862 11.5573C124.713 12.1171 124.025 13.1556 123.528 14.196C122.205 16.9652 122.299 19.8155 123.626 22.5906C123.883 23.1286 124.143 23.724 124.779 23.989C124.784 24.0399 124.807 24.0874 124.843 24.1235C124.88 24.1596 124.928 24.182 124.98 24.1868C125.718 25.3084 126.891 25.6763 128.123 25.9394C129.466 26.3407 130.901 26.3372 132.242 25.9295C132.487 26.0264 132.643 25.8424 132.807 25.7317L132.997 25.7139C134.511 25.2431 135.501 24.1532 136.4 22.9447C136.851 22.3827 137.137 21.7096 137.227 20.9983C137.764 19.4357 137.728 17.8533 137.433 16.2432ZM132.198 22.7488L130.745 23.3264H130.249C128.303 23.3145 127.122 22.4086 126.663 20.573C126.569 20.1933 126.495 19.8076 126.413 19.4258C126.385 18.4368 126.545 17.4597 126.383 16.4786C126.649 15.9782 126.647 15.3769 126.999 14.91C127.158 14.8359 127.296 14.7254 127.403 14.5878C127.509 14.4502 127.581 14.2894 127.612 14.1189C127.882 13.6738 128.483 13.7233 128.799 13.3534C129.696 13.1437 130.629 13.1437 131.526 13.3534C131.78 13.554 132.069 13.7081 132.379 13.8083C133.081 14.4017 133.379 15.1929 133.618 16.0276C133.976 17.3311 133.832 18.6603 133.776 19.9836C133.484 20.6838 133.275 21.4177 132.835 22.0664C132.655 22.3233 132.439 22.5531 132.192 22.7488H132.198Z" fill="#E80000"/>
<path d="M21.5963 24.9266C21.6124 18.6049 21.6164 12.2826 21.6084 5.95961C21.6084 5.79741 21.5943 5.63126 21.6084 5.46907C21.6484 5.02006 21.4782 4.78666 20.9898 4.82424C20.7576 4.84204 20.5233 4.82424 20.2891 4.82424C14.4263 4.82424 8.5621 4.82424 2.69659 4.82424C1.79774 4.82424 0.89489 4.84996 -0.00195312 4.8638V13.9072V23.542C0.216252 23.4154 0.46248 23.3106 0.426446 22.9941L0.600615 22.8932C0.96696 22.6677 1.29927 22.4145 1.40137 21.9715C1.67169 21.8543 1.89444 21.6509 2.03396 21.3939C2.35471 21.1893 2.62768 20.9196 2.83472 20.6027C2.88575 20.5968 2.93327 20.5741 2.9696 20.5382C3.00593 20.5023 3.02894 20.4553 3.0349 20.4049C3.4905 20.0733 3.89508 19.6782 4.23603 19.2319C4.68215 18.9152 5.07471 18.5307 5.39913 18.0926C6.30598 17.4656 7.16879 16.7911 7.77936 15.8614C7.9803 15.797 8.16636 15.6939 8.32681 15.5581C8.48725 15.4224 8.61893 15.2565 8.71424 15.0702L10.4178 13.3177C10.7383 13.1129 11.0112 12.8432 11.2186 12.5266C11.3096 12.492 11.3923 12.4389 11.4613 12.3708C11.5303 12.3026 11.584 12.2209 11.619 12.131C11.9459 11.934 12.2204 11.6628 12.4197 11.3398L12.9682 10.8987C13.5108 10.7839 13.5688 10.1787 13.9692 9.92944C14.5697 9.5556 15.0742 8.83363 15.945 9.36967C16.0695 9.53437 16.1552 9.72437 16.1961 9.92588C16.2369 10.1274 16.2319 10.3354 16.1813 10.5347L13.5788 13.1516C13.2579 13.305 12.9979 13.5597 12.8401 13.8755C12.3465 14.2037 11.9189 14.6195 11.5789 15.1019C11.2397 15.2444 10.9678 15.5088 10.8182 15.8417C10.4699 16.1344 10.1055 16.4133 9.77524 16.7258C8.54341 17.8889 7.31826 19.0585 6.09978 20.2348C4.38217 21.8924 2.66789 23.5532 0.95695 25.2174C0.756762 25.2767 0.654664 25.4686 0.498517 25.5853C0.418355 25.6528 0.315481 25.688 0.210246 25.6842C0.296327 25.8622 0.378407 26.0323 0.638651 25.9512C1.02702 25.8286 1.4394 25.8978 1.82376 25.8978C7.97354 25.8978 14.122 25.8978 20.2691 25.8978C20.6334 25.8978 20.9978 25.8721 21.3621 25.8582C21.8106 25.6466 21.5943 25.2431 21.5963 24.9266ZM10.7421 12.5127C10.8204 12.5143 10.8983 12.5242 10.9744 12.5424C10.8957 12.5522 10.8157 12.5419 10.7421 12.5127Z" fill="#E60100"/>
</g>
<defs>
<clipPath id="clip0_1457_40092">
<rect width="200" height="32" fill="white"/>
</clipPath>
</defs>
</svg>
