<svg width="100" height="100" viewBox="0 0 100 100" fill="none" xmlns="http://www.w3.org/2000/svg">
<rect width="100" height="100" rx="50" fill="#FFD7D7"/>
<path d="M65.9454 46.7734V57.44C65.9454 58.1334 65.9187 58.8 65.8387 59.44C65.2254 66.64 60.9854 70.2133 53.172 70.2133H52.1054C51.4387 70.2133 50.7987 70.5333 50.3987 71.0666L47.1987 75.3333C45.7854 77.2267 43.492 77.2267 42.0787 75.3333L38.8787 71.0666C38.532 70.6133 37.7587 70.2133 37.172 70.2133H36.1054C27.5987 70.2133 23.332 68.1067 23.332 57.44V46.7734C23.332 38.96 26.9321 34.72 34.1054 34.1067C34.7454 34.0267 35.4121 34 36.1054 34H53.172C61.6787 34 65.9454 38.2667 65.9454 46.7734Z" stroke="#E32526" stroke-width="4" stroke-miterlimit="10" stroke-linecap="round" stroke-linejoin="round"/>
<path d="M76.6121 36.1069V46.7735C76.6121 54.6135 73.0121 58.8269 65.8388 59.4402C65.9188 58.8002 65.9455 58.1335 65.9455 57.4402V46.7735C65.9455 38.2669 61.6788 34.0002 53.1721 34.0002H36.1055C35.4121 34.0002 34.7455 34.0269 34.1055 34.1069C34.7188 26.9335 38.9588 23.3335 46.7721 23.3335H63.8388C72.3455 23.3335 76.6121 27.6002 76.6121 36.1069Z" stroke="#E32526" stroke-width="4" stroke-miterlimit="10" stroke-linecap="round" stroke-linejoin="round"/>
<path d="M53.9893 53.3333H54.0133" stroke="#E32526" stroke-width="5" stroke-linecap="round" stroke-linejoin="round"/>
<path d="M44.6534 53.3333H44.6774" stroke="#E32526" stroke-width="5" stroke-linecap="round" stroke-linejoin="round"/>
<path d="M35.3213 53.3333H35.3453" stroke="#E32526" stroke-width="5" stroke-linecap="round" stroke-linejoin="round"/>
</svg>
