<svg width="54" height="55" viewBox="0 0 54 55" fill="none" xmlns="http://www.w3.org/2000/svg">
<ellipse cx="26.9041" cy="27.4564" rx="26.2615" ry="27.1605" fill="#FE0000" fill-opacity="0.13"/>
<g clip-path="url(#clip0_572_52744)">
<path d="M38.5567 31.1682V31.0182H38.4067H36.3592V22.9296C36.3592 20.3958 35.4197 17.9639 33.7443 16.1693C32.0687 14.3744 29.7937 13.3639 27.4192 13.3639C25.0447 13.3639 22.7697 14.3744 21.094 16.1693C19.4187 17.9639 18.4791 20.3958 18.4791 22.9296V31.0182H16.4316H16.2816V31.1682V33.5221V33.6721H16.4316H38.4067H38.5567V33.5221V31.1682ZM24.1229 35.7261H23.9729V35.8761V38.23V38.38H24.1229H30.7154H30.8654V38.23V35.8761V35.7261H30.7154H24.1229ZM33.8617 22.9296V31.0182H20.9767V22.9296C20.9767 21.0932 21.6578 19.3341 22.8672 18.0385C24.0763 16.7433 25.714 16.0178 27.4192 16.0178C29.1244 16.0178 30.762 16.7433 31.9712 18.0385C33.1806 19.3341 33.8617 21.0932 33.8617 22.9296Z" fill="#FE0000" stroke="#FE0000" stroke-width="0.3"/>
</g>
<defs>
<clipPath id="clip0_572_52744">
<rect width="26.3701" height="28.2469" fill="white" transform="translate(14.2344 11.1599)"/>
</clipPath>
</defs>
</svg>
