<svg width="77" height="77" viewBox="0 0 77 77" fill="none" xmlns="http://www.w3.org/2000/svg">
<g clip-path="url(#clip0_1_43348)">
<path d="M60.2108 41.0478L76.2525 25.8083C76.7305 25.3527 77 24.7238 77 24.0629C77 23.402 76.7305 22.7732 76.2525 22.3176L60.2108 7.078C58.6708 5.62142 56.1458 6.72188 56.1458 8.82333V16.0421H26.4688C24.2582 16.0421 22.4583 17.842 22.4583 20.0525V28.0733C22.4583 30.2839 24.2582 32.0838 26.4688 32.0838H56.1458V39.3025C56.1458 41.42 58.6868 42.4916 60.2108 41.0478Z" fill="#781B1B"/>
<path d="M22.4583 24.0625H77C77 24.7234 76.7305 25.3522 76.2525 25.8078L60.2108 41.0474C59.7263 41.503 59.1424 41.7083 58.5713 41.7083C57.3329 41.7083 56.1458 40.749 56.1458 39.3021V32.0833H26.4688C24.2582 32.0833 22.4583 30.2835 22.4583 28.0729V24.0625Z" fill="#FE0000"/>
<path d="M20.8516 68.1752V60.9564H50.5286C52.7392 60.9564 54.5391 59.1566 54.5391 56.946V48.9252C54.5391 46.7147 52.7392 44.9148 50.5286 44.9148H20.8516V37.696C20.8516 35.5849 18.3138 34.5037 16.7866 35.9507L0.744942 51.1903C0.266899 51.6459 -0.00259781 52.2747 -0.00259781 52.9356C-0.00259781 53.5965 0.266899 54.2254 0.744942 54.6809L16.7866 69.9205C18.3138 71.3675 20.8516 70.2895 20.8516 68.1752Z" fill="#781B1B"/>
<path d="M-0.00259781 52.9375H54.5391V56.9479C54.5391 59.1585 52.7392 60.9583 50.5286 60.9583H20.8516V68.1771C20.8516 69.624 19.6645 70.5833 18.4261 70.5833C17.855 70.5833 17.2711 70.378 16.7898 69.9224L0.74815 54.6828C0.266899 54.2273 -0.00259781 53.5984 -0.00259781 52.9375Z" fill="#FE0000"/>
</g>
<defs>
<clipPath id="clip0_1_43348">
<rect width="77" height="77" fill="white" transform="matrix(-1 0 0 1 77 0)"/>
</clipPath>
</defs>
</svg>
