<svg width="54" height="54" viewBox="0 0 54 54" fill="none" xmlns="http://www.w3.org/2000/svg">
<rect width="54" height="54" rx="27" fill="#FF0000"/>
<g clip-path="url(#clip0_1_44302)">
<path d="M38.5647 19.0343H35.7439C35.4905 19.0343 35.2524 18.9357 35.0733 18.7566L32.5967 16.28C32.1038 15.7871 31.4486 15.5156 30.7515 15.5156H23.2525C22.5555 15.5156 21.9001 15.7871 21.4075 16.2799L18.9308 18.7566C18.7517 18.9356 18.5135 19.0343 18.2602 19.0343H15.4386C14.0003 19.0343 12.8297 20.2045 12.8291 21.6429L12.8242 35.874C12.8238 37.3156 13.9899 38.4843 15.4337 38.4843H38.5647C40.0036 38.4843 41.1742 37.3137 41.1742 35.8749V21.6438C41.1742 20.2027 40.0084 19.0343 38.5647 19.0343ZM39.5131 35.8749C39.5131 36.3977 39.0876 36.8231 38.5647 36.8231H15.4337C14.9098 36.8231 14.4851 36.3991 14.4854 35.8745L14.4903 21.6434C14.4905 21.1207 14.9159 20.6954 15.4386 20.6954H18.2602C18.9572 20.6954 19.6125 20.424 20.1054 19.9311L22.582 17.4544C22.7611 17.2754 22.9992 17.1767 23.2525 17.1767H30.7515C31.0048 17.1767 31.243 17.2753 31.4221 17.4546L33.8987 19.931C34.3914 20.4239 35.0467 20.6954 35.7439 20.6954H38.5647C39.0886 20.6954 39.5131 21.1192 39.5131 21.6437V35.8749Z" fill="white"/>
<path d="M27.0012 21.7026C23.6006 21.7026 20.834 24.4693 20.834 27.8699C20.834 31.2705 23.6006 34.0371 27.0012 34.0371C30.4018 34.0371 33.1684 31.2705 33.1684 27.8699C33.1684 24.4693 30.4018 21.7026 27.0012 21.7026ZM27.0012 32.376C24.5165 32.376 22.4951 30.3545 22.4951 27.8699C22.4951 25.3852 24.5165 23.3638 27.0012 23.3638C29.4859 23.3638 31.5073 25.3852 31.5073 27.8699C31.5073 30.3545 29.4859 32.376 27.0012 32.376Z" fill="white"/>
<path d="M15.4399 17.177H17.2188C17.6775 17.177 18.0494 16.8051 18.0494 16.3464C18.0494 15.8877 17.6775 15.5159 17.2188 15.5159H15.4399C14.9812 15.5159 14.6094 15.8877 14.6094 16.3464C14.6094 16.8051 14.9812 17.177 15.4399 17.177Z" fill="white"/>
</g>
<defs>
<clipPath id="clip0_1_44302">
<rect width="28.35" height="28.35" fill="white" transform="translate(12.8242 12.825)"/>
</clipPath>
</defs>
</svg>
