<svg width="244" height="172" viewBox="0 0 244 172" fill="none" xmlns="http://www.w3.org/2000/svg">
<rect width="244" height="172" rx="4" fill="#EBEBEB"/>
<path d="M64.5234 121.508H65.7734L69.5781 130.391L73.4531 121.508H74.7031L69.7031 133H69.4531L64.5234 121.508ZM76.8359 121C77.0859 121 77.2995 121.089 77.4766 121.266C77.6536 121.443 77.7422 121.656 77.7422 121.906C77.7422 122.151 77.6536 122.362 77.4766 122.539C77.2995 122.716 77.0859 122.805 76.8359 122.805C76.5911 122.805 76.3802 122.716 76.2031 122.539C76.026 122.362 75.9375 122.151 75.9375 121.906C75.9375 121.656 76.026 121.443 76.2031 121.266C76.3802 121.089 76.5911 121 76.8359 121ZM76.2891 124.5H77.3906V133H76.2891V124.5ZM88.125 124.5V133H87.0469V131.539C86.5885 132.096 86.0729 132.516 85.5 132.797C84.9323 133.078 84.3099 133.219 83.6328 133.219C82.4297 133.219 81.401 132.784 80.5469 131.914C79.6979 131.039 79.2734 129.977 79.2734 128.727C79.2734 127.503 79.7031 126.456 80.5625 125.586C81.4219 124.716 82.4557 124.281 83.6641 124.281C84.362 124.281 84.9922 124.43 85.5547 124.727C86.1224 125.023 86.6198 125.469 87.0469 126.062V124.5H88.125ZM83.75 125.336C83.1406 125.336 82.5781 125.487 82.0625 125.789C81.5469 126.086 81.1354 126.505 80.8281 127.047C80.526 127.589 80.375 128.161 80.375 128.766C80.375 129.365 80.5286 129.938 80.8359 130.484C81.1432 131.031 81.5547 131.458 82.0703 131.766C82.5911 132.068 83.1484 132.219 83.7422 132.219C84.3411 132.219 84.9089 132.068 85.4453 131.766C85.9818 131.464 86.3932 131.055 86.6797 130.539C86.9714 130.023 87.1172 129.443 87.1172 128.797C87.1172 127.812 86.7917 126.99 86.1406 126.328C85.4948 125.667 84.6979 125.336 83.75 125.336ZM95.2109 133V121.508H97.5938C99.3125 121.508 100.56 121.646 101.336 121.922C102.451 122.312 103.32 122.99 103.945 123.953C104.576 124.917 104.891 126.065 104.891 127.398C104.891 128.549 104.641 129.562 104.141 130.438C103.646 131.312 103 131.958 102.203 132.375C101.411 132.792 100.299 133 98.8672 133H95.2109ZM96.3125 131.914H97.6406C99.2292 131.914 100.331 131.815 100.945 131.617C101.81 131.336 102.49 130.831 102.984 130.102C103.479 129.367 103.727 128.471 103.727 127.414C103.727 126.305 103.458 125.357 102.922 124.57C102.385 123.784 101.638 123.245 100.68 122.953C99.9609 122.734 98.776 122.625 97.125 122.625H96.3125V131.914ZM114.094 130.18L115.016 130.664C114.714 131.258 114.365 131.737 113.969 132.102C113.573 132.466 113.128 132.745 112.633 132.938C112.138 133.125 111.578 133.219 110.953 133.219C109.568 133.219 108.484 132.766 107.703 131.859C106.922 130.948 106.531 129.919 106.531 128.773C106.531 127.695 106.862 126.734 107.523 125.891C108.362 124.818 109.484 124.281 110.891 124.281C112.339 124.281 113.495 124.831 114.359 125.93C114.974 126.706 115.286 127.674 115.297 128.836H107.656C107.677 129.826 107.992 130.638 108.602 131.273C109.211 131.904 109.964 132.219 110.859 132.219C111.292 132.219 111.711 132.143 112.117 131.992C112.529 131.841 112.878 131.641 113.164 131.391C113.451 131.141 113.76 130.737 114.094 130.18ZM114.094 127.891C113.948 127.307 113.734 126.841 113.453 126.492C113.177 126.143 112.81 125.862 112.352 125.648C111.893 125.435 111.411 125.328 110.906 125.328C110.073 125.328 109.357 125.596 108.758 126.133C108.32 126.523 107.99 127.109 107.766 127.891H114.094ZM117.414 133V121.219H118.5V125.961C118.958 125.398 119.471 124.979 120.039 124.703C120.607 124.422 121.229 124.281 121.906 124.281C123.109 124.281 124.135 124.719 124.984 125.594C125.839 126.464 126.266 127.521 126.266 128.766C126.266 129.995 125.836 131.044 124.977 131.914C124.117 132.784 123.083 133.219 121.875 133.219C121.182 133.219 120.555 133.07 119.992 132.773C119.43 132.477 118.932 132.031 118.5 131.438V133H117.414ZM121.789 132.164C122.398 132.164 122.961 132.016 123.477 131.719C123.992 131.417 124.401 130.995 124.703 130.453C125.01 129.911 125.164 129.339 125.164 128.734C125.164 128.13 125.01 127.555 124.703 127.008C124.396 126.461 123.982 126.036 123.461 125.734C122.945 125.427 122.393 125.273 121.805 125.273C121.206 125.273 120.635 125.427 120.094 125.734C119.557 126.036 119.143 126.445 118.852 126.961C118.565 127.477 118.422 128.057 118.422 128.703C118.422 129.688 118.745 130.51 119.391 131.172C120.042 131.833 120.841 132.164 121.789 132.164ZM128.648 121C128.898 121 129.112 121.089 129.289 121.266C129.466 121.443 129.555 121.656 129.555 121.906C129.555 122.151 129.466 122.362 129.289 122.539C129.112 122.716 128.898 122.805 128.648 122.805C128.404 122.805 128.193 122.716 128.016 122.539C127.839 122.362 127.75 122.151 127.75 121.906C127.75 121.656 127.839 121.443 128.016 121.266C128.193 121.089 128.404 121 128.648 121ZM128.102 124.5H129.203V133H128.102V124.5ZM132.422 121.344H133.523V124.5H135.258V125.438H133.523V133H132.422V125.438H130.93V124.5H132.422V121.344ZM152.211 123.641L151.305 124.336C150.805 123.685 150.203 123.193 149.5 122.859C148.802 122.521 148.034 122.352 147.195 122.352C146.279 122.352 145.43 122.573 144.648 123.016C143.867 123.453 143.26 124.044 142.828 124.789C142.401 125.529 142.188 126.362 142.188 127.289C142.188 128.69 142.667 129.859 143.625 130.797C144.589 131.734 145.802 132.203 147.266 132.203C148.875 132.203 150.221 131.573 151.305 130.312L152.211 131C151.638 131.729 150.922 132.294 150.062 132.695C149.208 133.091 148.253 133.289 147.195 133.289C145.185 133.289 143.599 132.62 142.438 131.281C141.464 130.151 140.977 128.786 140.977 127.188C140.977 125.505 141.565 124.091 142.742 122.945C143.924 121.794 145.404 121.219 147.18 121.219C148.253 121.219 149.221 121.432 150.086 121.859C150.951 122.281 151.659 122.875 152.211 123.641ZM162.812 124.5V133H161.734V131.539C161.276 132.096 160.76 132.516 160.188 132.797C159.62 133.078 158.997 133.219 158.32 133.219C157.117 133.219 156.089 132.784 155.234 131.914C154.385 131.039 153.961 129.977 153.961 128.727C153.961 127.503 154.391 126.456 155.25 125.586C156.109 124.716 157.143 124.281 158.352 124.281C159.049 124.281 159.68 124.43 160.242 124.727C160.81 125.023 161.307 125.469 161.734 126.062V124.5H162.812ZM158.438 125.336C157.828 125.336 157.266 125.487 156.75 125.789C156.234 126.086 155.823 126.505 155.516 127.047C155.214 127.589 155.062 128.161 155.062 128.766C155.062 129.365 155.216 129.938 155.523 130.484C155.831 131.031 156.242 131.458 156.758 131.766C157.279 132.068 157.836 132.219 158.43 132.219C159.029 132.219 159.596 132.068 160.133 131.766C160.669 131.464 161.081 131.055 161.367 130.539C161.659 130.023 161.805 129.443 161.805 128.797C161.805 127.812 161.479 126.99 160.828 126.328C160.182 125.667 159.385 125.336 158.438 125.336ZM164.867 124.5H165.984V125.742C166.318 125.253 166.669 124.888 167.039 124.648C167.409 124.404 167.794 124.281 168.195 124.281C168.497 124.281 168.82 124.378 169.164 124.57L168.594 125.492C168.365 125.393 168.172 125.344 168.016 125.344C167.651 125.344 167.299 125.495 166.961 125.797C166.622 126.094 166.365 126.557 166.188 127.188C166.052 127.672 165.984 128.651 165.984 130.125V133H164.867V124.5ZM178.578 121.219V133H177.5V131.539C177.042 132.096 176.526 132.516 175.953 132.797C175.385 133.078 174.763 133.219 174.086 133.219C172.883 133.219 171.854 132.784 171 131.914C170.151 131.039 169.727 129.977 169.727 128.727C169.727 127.503 170.156 126.456 171.016 125.586C171.875 124.716 172.909 124.281 174.117 124.281C174.815 124.281 175.445 124.43 176.008 124.727C176.576 125.023 177.073 125.469 177.5 126.062V121.219H178.578ZM174.203 125.336C173.594 125.336 173.031 125.487 172.516 125.789C172 126.086 171.589 126.505 171.281 127.047C170.979 127.589 170.828 128.161 170.828 128.766C170.828 129.365 170.982 129.938 171.289 130.484C171.596 131.031 172.008 131.458 172.523 131.766C173.044 132.068 173.602 132.219 174.195 132.219C174.794 132.219 175.362 132.068 175.898 131.766C176.435 131.464 176.846 131.055 177.133 130.539C177.424 130.023 177.57 129.443 177.57 128.797C177.57 127.812 177.245 126.99 176.594 126.328C175.948 125.667 175.151 125.336 174.203 125.336Z" fill="#465174"/>
<path d="M157.101 45.8008H85.901C81.8049 45.8008 78.4844 49.1213 78.4844 53.2174V91.7841C78.4844 95.8802 81.8049 99.2008 85.901 99.2008H157.101C161.197 99.2008 164.518 95.8802 164.518 91.7841V53.2174C164.518 49.1213 161.197 45.8008 157.101 45.8008Z" fill="#FE0000"/>
<path d="M97.7651 56.1836H88.8651C87.2267 56.1836 85.8984 57.5118 85.8984 59.1503V65.0836C85.8984 66.722 87.2267 68.0503 88.8651 68.0503H97.7651C99.4035 68.0503 100.732 66.722 100.732 65.0836V59.1503C100.732 57.5118 99.4035 56.1836 97.7651 56.1836Z" fill="#F9C44E"/>
<path d="M85.8974 82.8826C85.504 82.8826 85.1267 82.7263 84.8485 82.4481C84.5703 82.1699 84.4141 81.7926 84.4141 81.3992V78.4326C84.4141 78.0391 84.5703 77.6619 84.8485 77.3837C85.1267 77.1055 85.504 76.9492 85.8974 76.9492C86.2908 76.9492 86.6681 77.1055 86.9463 77.3837C87.2244 77.6619 87.3807 78.0391 87.3807 78.4326V81.3992C87.3807 81.7926 87.2244 82.1699 86.9463 82.4481C86.6681 82.7263 86.2908 82.8826 85.8974 82.8826Z" fill="#722626"/>
<path d="M91.8271 82.8826C91.4337 82.8826 91.0564 82.7263 90.7782 82.4481C90.5 82.1699 90.3438 81.7926 90.3438 81.3992V78.4326C90.3438 78.0391 90.5 77.6619 90.7782 77.3837C91.0564 77.1055 91.4337 76.9492 91.8271 76.9492C92.2205 76.9492 92.5978 77.1055 92.876 77.3837C93.1541 77.6619 93.3104 78.0391 93.3104 78.4326V81.3992C93.3104 81.7926 93.1541 82.1699 92.876 82.4481C92.5978 82.7263 92.2205 82.8826 91.8271 82.8826Z" fill="#722626"/>
<path d="M97.7646 82.8826C97.3712 82.8826 96.9939 82.7263 96.7157 82.4481C96.4375 82.1699 96.2812 81.7926 96.2812 81.3992V78.4326C96.2812 78.0391 96.4375 77.6619 96.7157 77.3837C96.9939 77.1055 97.3712 76.9492 97.7646 76.9492C98.158 76.9492 98.5353 77.1055 98.8135 77.3837C99.0916 77.6619 99.2479 78.0391 99.2479 78.4326V81.3992C99.2479 81.7926 99.0916 82.1699 98.8135 82.4481C98.5353 82.7263 98.158 82.8826 97.7646 82.8826Z" fill="#722626"/>
<path d="M106.663 82.8826C106.27 82.8826 105.892 82.7263 105.614 82.4481C105.336 82.1699 105.18 81.7926 105.18 81.3992V78.4326C105.18 78.0391 105.336 77.6619 105.614 77.3837C105.892 77.1055 106.27 76.9492 106.663 76.9492C107.056 76.9492 107.434 77.1055 107.712 77.3837C107.99 77.6619 108.146 78.0391 108.146 78.4326V81.3992C108.146 81.7926 107.99 82.1699 107.712 82.4481C107.434 82.7263 107.056 82.8826 106.663 82.8826Z" fill="#722626"/>
<path d="M112.601 82.8826C112.207 82.8826 111.83 82.7263 111.552 82.4481C111.273 82.1699 111.117 81.7926 111.117 81.3992V78.4326C111.117 78.0391 111.273 77.6619 111.552 77.3837C111.83 77.1055 112.207 76.9492 112.601 76.9492C112.994 76.9492 113.371 77.1055 113.649 77.3837C113.928 77.6619 114.084 78.0391 114.084 78.4326V81.3992C114.084 81.7926 113.928 82.1699 113.649 82.4481C113.371 82.7263 112.994 82.8826 112.601 82.8826Z" fill="#722626"/>
<path d="M118.53 82.8826C118.137 82.8826 117.76 82.7263 117.481 82.4481C117.203 82.1699 117.047 81.7926 117.047 81.3992V78.4326C117.047 78.0391 117.203 77.6619 117.481 77.3837C117.76 77.1055 118.137 76.9492 118.53 76.9492C118.924 76.9492 119.301 77.1055 119.579 77.3837C119.857 77.6619 120.014 78.0391 120.014 78.4326V81.3992C120.014 81.7926 119.857 82.1699 119.579 82.4481C119.301 82.7263 118.924 82.8826 118.53 82.8826Z" fill="#722626"/>
<path d="M127.429 82.8826C127.035 82.8826 126.658 82.7263 126.38 82.4481C126.102 82.1699 125.945 81.7926 125.945 81.3992V78.4326C125.945 78.0391 126.102 77.6619 126.38 77.3837C126.658 77.1055 127.035 76.9492 127.429 76.9492C127.822 76.9492 128.199 77.1055 128.478 77.3837C128.756 77.6619 128.912 78.0391 128.912 78.4326V81.3992C128.912 81.7926 128.756 82.1699 128.478 82.4481C128.199 82.7263 127.822 82.8826 127.429 82.8826Z" fill="#722626"/>
<path d="M133.366 82.8826C132.973 82.8826 132.595 82.7263 132.317 82.4481C132.039 82.1699 131.883 81.7926 131.883 81.3992V78.4326C131.883 78.0391 132.039 77.6619 132.317 77.3837C132.595 77.1055 132.973 76.9492 133.366 76.9492C133.76 76.9492 134.137 77.1055 134.415 77.3837C134.693 77.6619 134.849 78.0391 134.849 78.4326V81.3992C134.849 81.7926 134.693 82.1699 134.415 82.4481C134.137 82.7263 133.76 82.8826 133.366 82.8826Z" fill="#722626"/>
<path d="M139.296 82.8826C138.902 82.8826 138.525 82.7263 138.247 82.4481C137.969 82.1699 137.812 81.7926 137.812 81.3992V78.4326C137.812 78.0391 137.969 77.6619 138.247 77.3837C138.525 77.1055 138.902 76.9492 139.296 76.9492C139.689 76.9492 140.067 77.1055 140.345 77.3837C140.623 77.6619 140.779 78.0391 140.779 78.4326V81.3992C140.779 81.7926 140.623 82.1699 140.345 82.4481C140.067 82.7263 139.689 82.8826 139.296 82.8826Z" fill="#722626"/>
<path d="M109.631 90.2987H85.8974C85.504 90.2987 85.1267 90.1424 84.8485 89.8642C84.5703 89.5861 84.4141 89.2088 84.4141 88.8154C84.4141 88.422 84.5703 88.0447 84.8485 87.7665C85.1267 87.4883 85.504 87.332 85.8974 87.332H109.631C110.024 87.332 110.401 87.4883 110.68 87.7665C110.958 88.0447 111.114 88.422 111.114 88.8154C111.114 89.2088 110.958 89.5861 110.68 89.8642C110.401 90.1424 110.024 90.2987 109.631 90.2987Z" fill="#722626"/>
<path d="M128.911 90.2987H115.561C115.168 90.2987 114.791 90.1424 114.513 89.8642C114.234 89.5861 114.078 89.2088 114.078 88.8154C114.078 88.422 114.234 88.0447 114.513 87.7665C114.791 87.4883 115.168 87.332 115.561 87.332H128.911C129.305 87.332 129.682 87.4883 129.96 87.7665C130.239 88.0447 130.395 88.422 130.395 88.8154C130.395 89.2088 130.239 89.5861 129.96 89.8642C129.682 90.1424 129.305 90.2987 128.911 90.2987Z" fill="#722626"/>
<path d="M93.3151 56.1836V60.6336H85.8984V63.6003H93.3151V68.0503H96.2818V56.1836H93.3151Z" fill="#EA9E42"/>
</svg>
