<svg width="244" height="172" viewBox="0 0 244 172" fill="none" xmlns="http://www.w3.org/2000/svg">
<rect width="244" height="172" rx="4" fill="#EBEBEB"/>
<path d="M68.3906 121.508H70.6797C71.9922 121.508 72.8776 121.565 73.3359 121.68C73.9922 121.841 74.5286 122.174 74.9453 122.68C75.362 123.18 75.5703 123.81 75.5703 124.57C75.5703 125.336 75.3672 125.969 74.9609 126.469C74.5547 126.964 73.9948 127.297 73.2812 127.469C72.7604 127.594 71.7865 127.656 70.3594 127.656H69.5391V133H68.3906V121.508ZM69.5391 122.625V126.531L71.4844 126.555C72.2708 126.555 72.8464 126.484 73.2109 126.344C73.5755 126.198 73.862 125.966 74.0703 125.648C74.2786 125.326 74.3828 124.966 74.3828 124.57C74.3828 124.185 74.2786 123.833 74.0703 123.516C73.862 123.193 73.5859 122.964 73.2422 122.828C72.9036 122.693 72.3464 122.625 71.5703 122.625H69.5391ZM86.1562 124.5V133H85.0781V131.539C84.6198 132.096 84.1042 132.516 83.5312 132.797C82.9635 133.078 82.3411 133.219 81.6641 133.219C80.4609 133.219 79.4323 132.784 78.5781 131.914C77.7292 131.039 77.3047 129.977 77.3047 128.727C77.3047 127.503 77.7344 126.456 78.5938 125.586C79.4531 124.716 80.487 124.281 81.6953 124.281C82.3932 124.281 83.0234 124.43 83.5859 124.727C84.1536 125.023 84.651 125.469 85.0781 126.062V124.5H86.1562ZM81.7812 125.336C81.1719 125.336 80.6094 125.487 80.0938 125.789C79.5781 126.086 79.1667 126.505 78.8594 127.047C78.5573 127.589 78.4062 128.161 78.4062 128.766C78.4062 129.365 78.5599 129.938 78.8672 130.484C79.1745 131.031 79.5859 131.458 80.1016 131.766C80.6224 132.068 81.1797 132.219 81.7734 132.219C82.3724 132.219 82.9401 132.068 83.4766 131.766C84.013 131.464 84.4245 131.055 84.7109 130.539C85.0026 130.023 85.1484 129.443 85.1484 128.797C85.1484 127.812 84.8229 126.99 84.1719 126.328C83.526 125.667 82.7292 125.336 81.7812 125.336ZM87.7109 124.5H88.8672L91.7891 131.047L94.625 124.5H95.7891L90.7188 136.109H89.5625L91.2031 132.359L87.7109 124.5ZM100.492 124.5H101.617L104.219 130.672L106.945 124.5H107.141L109.859 130.672L112.508 124.5H113.648L109.961 133H109.75L107.047 126.914L104.32 133H104.117L100.492 124.5ZM115.32 121C115.57 121 115.784 121.089 115.961 121.266C116.138 121.443 116.227 121.656 116.227 121.906C116.227 122.151 116.138 122.362 115.961 122.539C115.784 122.716 115.57 122.805 115.32 122.805C115.076 122.805 114.865 122.716 114.688 122.539C114.51 122.362 114.422 122.151 114.422 121.906C114.422 121.656 114.51 121.443 114.688 121.266C114.865 121.089 115.076 121 115.32 121ZM114.773 124.5H115.875V133H114.773V124.5ZM119.094 121.344H120.195V124.5H121.93V125.438H120.195V133H119.094V125.438H117.602V124.5H119.094V121.344ZM123.562 121.219H124.656V126.023C125.099 125.44 125.586 125.005 126.117 124.719C126.648 124.427 127.224 124.281 127.844 124.281C128.479 124.281 129.042 124.443 129.531 124.766C130.026 125.089 130.391 125.523 130.625 126.07C130.859 126.612 130.977 127.464 130.977 128.625V133H129.883V128.945C129.883 127.966 129.844 127.312 129.766 126.984C129.63 126.422 129.383 126 129.023 125.719C128.669 125.432 128.203 125.289 127.625 125.289C126.964 125.289 126.37 125.508 125.844 125.945C125.323 126.383 124.979 126.924 124.812 127.57C124.708 127.987 124.656 128.758 124.656 129.883V133H123.562V121.219ZM137.836 133V121.219H138.922V125.961C139.38 125.398 139.893 124.979 140.461 124.703C141.029 124.422 141.651 124.281 142.328 124.281C143.531 124.281 144.557 124.719 145.406 125.594C146.26 126.464 146.688 127.521 146.688 128.766C146.688 129.995 146.258 131.044 145.398 131.914C144.539 132.784 143.505 133.219 142.297 133.219C141.604 133.219 140.977 133.07 140.414 132.773C139.852 132.477 139.354 132.031 138.922 131.438V133H137.836ZM142.211 132.164C142.82 132.164 143.383 132.016 143.898 131.719C144.414 131.417 144.823 130.995 145.125 130.453C145.432 129.911 145.586 129.339 145.586 128.734C145.586 128.13 145.432 127.555 145.125 127.008C144.818 126.461 144.404 126.036 143.883 125.734C143.367 125.427 142.815 125.273 142.227 125.273C141.628 125.273 141.057 125.427 140.516 125.734C139.979 126.036 139.565 126.445 139.273 126.961C138.987 127.477 138.844 128.057 138.844 128.703C138.844 129.688 139.167 130.51 139.812 131.172C140.464 131.833 141.263 132.164 142.211 132.164ZM157.156 124.5V133H156.078V131.539C155.62 132.096 155.104 132.516 154.531 132.797C153.964 133.078 153.341 133.219 152.664 133.219C151.461 133.219 150.432 132.784 149.578 131.914C148.729 131.039 148.305 129.977 148.305 128.727C148.305 127.503 148.734 126.456 149.594 125.586C150.453 124.716 151.487 124.281 152.695 124.281C153.393 124.281 154.023 124.43 154.586 124.727C155.154 125.023 155.651 125.469 156.078 126.062V124.5H157.156ZM152.781 125.336C152.172 125.336 151.609 125.487 151.094 125.789C150.578 126.086 150.167 126.505 149.859 127.047C149.557 127.589 149.406 128.161 149.406 128.766C149.406 129.365 149.56 129.938 149.867 130.484C150.174 131.031 150.586 131.458 151.102 131.766C151.622 132.068 152.18 132.219 152.773 132.219C153.372 132.219 153.94 132.068 154.477 131.766C155.013 131.464 155.424 131.055 155.711 130.539C156.003 130.023 156.148 129.443 156.148 128.797C156.148 127.812 155.823 126.99 155.172 126.328C154.526 125.667 153.729 125.336 152.781 125.336ZM159.625 124.5H160.719V126.023C161.156 125.44 161.641 125.005 162.172 124.719C162.703 124.427 163.281 124.281 163.906 124.281C164.542 124.281 165.104 124.443 165.594 124.766C166.089 125.089 166.453 125.523 166.688 126.07C166.922 126.617 167.039 127.469 167.039 128.625V133H165.953V128.945C165.953 127.966 165.911 127.312 165.828 126.984C165.698 126.422 165.453 126 165.094 125.719C164.734 125.432 164.266 125.289 163.688 125.289C163.026 125.289 162.432 125.508 161.906 125.945C161.385 126.383 161.042 126.924 160.875 127.57C160.771 127.992 160.719 128.763 160.719 129.883V133H159.625V124.5ZM169.383 121.219H170.484V127.922L174.414 124.5H176.023L171.359 128.555L176.297 133H174.75L170.484 129.18V133H169.383V121.219Z" fill="#465174"/>
<g clip-path="url(#clip0_1_37750)">
<path d="M143.211 69.0478L159.252 53.8083C159.731 53.3527 160 52.7238 160 52.0629C160 51.402 159.731 50.7732 159.252 50.3176L143.211 35.078C141.671 33.6214 139.146 34.7219 139.146 36.8233V44.0421H109.469C107.258 44.0421 105.458 45.842 105.458 48.0525V56.0733C105.458 58.2839 107.258 60.0838 109.469 60.0838H139.146V67.3025C139.146 69.42 141.687 70.4916 143.211 69.0478Z" fill="#781B1B"/>
<path d="M105.458 52.0625H160C160 52.7234 159.731 53.3522 159.252 53.8078L143.211 69.0474C142.726 69.503 142.142 69.7083 141.571 69.7083C140.333 69.7083 139.146 68.749 139.146 67.3021V60.0833H109.469C107.258 60.0833 105.458 58.2835 105.458 56.0729V52.0625Z" fill="#FE0000"/>
<path d="M103.852 96.1752V88.9564H133.529C135.739 88.9564 137.539 87.1566 137.539 84.946V76.9252C137.539 74.7147 135.739 72.9148 133.529 72.9148H103.852V65.696C103.852 63.5849 101.314 62.5037 99.7866 63.9507L83.7449 79.1903C83.2669 79.6459 82.9974 80.2747 82.9974 80.9356C82.9974 81.5965 83.2669 82.2254 83.7449 82.6809L99.7866 97.9205C101.314 99.3675 103.852 98.2895 103.852 96.1752Z" fill="#781B1B"/>
<path d="M82.9974 80.9375H137.539V84.9479C137.539 87.1585 135.739 88.9583 133.529 88.9583H103.852V96.1771C103.852 97.624 102.664 98.5833 101.426 98.5833C100.855 98.5833 100.271 98.378 99.7898 97.9224L83.7481 82.6828C83.2669 82.2273 82.9974 81.5984 82.9974 80.9375Z" fill="#FE0000"/>
</g>
<defs>
<clipPath id="clip0_1_37750">
<rect width="77" height="77" fill="white" transform="matrix(-1 0 0 1 160 28)"/>
</clipPath>
</defs>
</svg>
