<svg width="23" height="20" viewBox="0 0 23 20" fill="none" xmlns="http://www.w3.org/2000/svg">
<path d="M1.61536 13.7726H2.0207V17.2194C2.0207 18.2008 2.83717 19.0016 3.82763 19.0016C4.84045 19.0016 5.68707 18.2509 5.68707 17.2194V13.7726H5.99338L16.3771 18.3815L16.3772 18.3815C16.8904 18.6092 17.4474 18.2328 17.4554 17.6951H17.4554V17.6928V1.45787C17.4554 0.880334 16.8364 0.531653 16.3384 0.786301L5.99312 5.37808H1.61536C1.19496 5.37808 0.85 5.71466 0.85 6.13424V13.0165C0.85 13.436 1.19496 13.7726 1.61536 13.7726ZM20.4214 4.66067L20.4214 4.6607L18.5145 6.53906C18.3419 6.70902 18.2712 6.9103 18.2843 7.10676C18.2972 7.29919 18.3895 7.47475 18.5206 7.60389C18.6517 7.73308 18.8291 7.82316 19.0225 7.8357C19.2196 7.84849 19.4226 7.77979 19.5951 7.60989L21.502 5.73153C21.6745 5.56157 21.7453 5.36031 21.7322 5.16386C21.7193 4.97145 21.627 4.79591 21.4959 4.66679C21.3647 4.53762 21.1874 4.44755 20.994 4.43499C20.7969 4.42219 20.5939 4.49084 20.4214 4.66067ZM21.3568 10.3312L21.3582 10.3312C21.6385 10.3286 21.8525 10.2414 21.9896 10.0877C22.1257 9.93497 22.1669 9.73777 22.144 9.55322C22.0997 9.19545 21.8012 8.81919 21.3568 8.81919H18.6599C18.417 8.81919 18.2237 8.91164 18.0926 9.05883C17.964 9.20328 17.9029 9.39168 17.9029 9.57521C17.9029 9.75875 17.964 9.94715 18.0926 10.0916C18.2237 10.2388 18.417 10.3312 18.6599 10.3312L21.3568 10.3312ZM20.4214 14.4895C20.5938 14.6594 20.7969 14.7281 20.994 14.7153C21.1874 14.7027 21.3648 14.6127 21.4959 14.4835C21.627 14.3543 21.7193 14.1788 21.7322 13.9863C21.7453 13.7899 21.6745 13.5886 21.502 13.4186L19.5951 11.5403C19.4226 11.3704 19.2196 11.3017 19.0225 11.3145C18.8291 11.327 18.6517 11.4171 18.5206 11.5463C18.3895 11.6754 18.2972 11.851 18.2843 12.0434C18.2712 12.2399 18.3419 12.4411 18.5145 12.6111L20.4214 14.4895ZM3.55114 17.2194V13.7726H4.15636V17.2194C4.15636 17.3146 4.1213 17.3761 4.07132 17.4167C4.01757 17.4604 3.93404 17.4895 3.82763 17.4895C3.67185 17.4895 3.55114 17.3673 3.55114 17.2194ZM15.925 16.5253L6.85751 12.5009V6.64951L15.925 2.62509V16.5253ZM2.38071 6.89013H5.32706V12.2603H2.38071V6.89013Z" fill="#465174" stroke="#465174" stroke-width="0.3"/>
</svg>
