<svg width="56" height="56" viewBox="0 0 56 56" fill="none" xmlns="http://www.w3.org/2000/svg">
<path d="M39.5567 12.9689L37.1876 15.2785C36.4582 15.9893 36.125 17.0133 36.2975 18.0171L36.8567 21.2777C37.2901 23.8052 34.6379 25.7324 32.3677 24.5391L29.4395 22.9998C28.5382 22.5255 27.4616 22.5255 26.5604 22.9998L23.6322 24.5391C21.362 25.7324 18.7098 23.8052 19.1433 21.2777L19.7024 18.0171C19.8749 17.0133 19.5418 15.9894 18.8123 15.2785L16.4432 12.9689C14.6074 11.1791 15.6208 8.06138 18.1579 7.69257L21.4318 7.21668C22.4394 7.07023 23.3109 6.43738 23.7614 5.52432L25.2255 2.55741C25.793 1.40777 26.8965 0.833008 28 0.833008C29.1035 0.833008 30.207 1.40777 30.7743 2.5573L32.2384 5.52421C32.689 6.43727 33.5605 7.07012 34.568 7.21657L37.8419 7.69246C40.3791 8.06127 41.3925 11.1791 39.5567 12.9689Z" fill="#F9DA41"/>
<path d="M20.4936 13.3704C21.4624 15.8331 22.8991 17.4802 21.89 19.8053C20.881 22.1312 21.391 25.1858 26.5604 22.9997L23.6322 24.5389C21.362 25.7323 18.7098 23.805 19.1433 21.2776L19.7024 18.017C19.8749 17.0132 19.5418 15.9893 18.8123 15.2784L16.4432 12.9688C14.6074 11.179 15.6208 8.06127 18.1579 7.69246L21.4318 7.21657C22.4394 7.07012 23.3109 6.43727 23.7614 5.52421L25.2255 2.5573C25.793 1.40777 26.8965 0.833008 28 0.833008C25.8228 0.833008 26.7278 7.11179 23.6107 8.75876C20.4936 10.4066 19.5248 10.9078 20.4936 13.3704Z" fill="#EDC932"/>
<path d="M16.0298 22.2015L14.5462 23.6477C14.0895 24.0929 13.8808 24.7341 13.9889 25.3627L14.339 27.4046C14.6104 28.9873 12.9495 30.1943 11.5279 29.4469L9.69424 28.483C9.12987 28.1859 8.45568 28.1859 7.8913 28.483L6.05763 29.4469C4.63598 30.1943 2.97512 28.9873 3.24659 27.4046L3.59669 25.3627C3.70476 24.7342 3.49607 24.0929 3.03932 23.6477L1.55576 22.2015C0.406117 21.0807 1.04071 19.1283 2.62949 18.8973L4.67973 18.5992C5.31071 18.5075 5.85638 18.1112 6.13857 17.5394L7.05546 15.6814C7.41071 14.9615 8.10174 14.6016 8.79277 14.6016C9.4838 14.6016 10.1748 14.9615 10.5301 15.6814L11.447 17.5394C11.7292 18.1112 12.2749 18.5075 12.9058 18.5992L14.9561 18.8973C16.5448 19.1283 17.1794 21.0807 16.0298 22.2015Z" fill="#F9DA41"/>
<path d="M4.09216 22.4529C4.69887 23.9951 5.59848 25.0265 4.96662 26.4826C4.33476 27.9392 4.65413 29.852 7.8913 28.483L6.05763 29.4469C4.63598 30.1943 2.97512 28.9873 3.24659 27.4046L3.59669 25.3627C3.70476 24.7342 3.49607 24.0929 3.03932 23.6477L1.55576 22.2015C0.406117 21.0807 1.04071 19.1283 2.62949 18.8973L4.67973 18.5992C5.31071 18.5075 5.85638 18.1112 6.13857 17.5394L7.05546 15.6814C7.41071 14.9615 8.10174 14.6016 8.79277 14.6016C7.42941 14.6016 7.99609 18.5335 6.04407 19.5649C4.09216 20.5969 3.48535 20.9107 4.09216 22.4529Z" fill="#EDC932"/>
<path d="M54.5287 6.52695L53.2546 7.76902C52.8622 8.15128 52.6831 8.70198 52.7758 9.24186L53.0766 10.9955C53.3098 12.3548 51.8833 13.3913 50.6624 12.7495L49.0875 11.9217C48.6028 11.6665 48.0237 11.6665 47.5391 11.9217L45.9642 12.7495C44.7432 13.3913 43.3168 12.3548 43.5499 10.9955L43.8507 9.24186C43.9435 8.70198 43.7643 8.15128 43.372 7.76902L42.0979 6.52684C41.1105 5.56423 41.6556 3.88741 43.02 3.68911L44.7808 3.43317C45.3227 3.35442 45.7915 3.01405 46.0337 2.52295L46.8211 0.927281C47.1264 0.309094 47.7199 0 48.3133 0C48.9068 0 49.5003 0.309094 49.8054 0.927391L50.5928 2.52306C50.8352 3.01416 51.3039 3.35442 51.8457 3.43328L53.6065 3.68922C54.971 3.88752 55.5161 5.56434 54.5287 6.52695Z" fill="#F9DA41"/>
<path d="M44.2762 6.74286C44.7973 8.06739 45.5699 8.95322 45.0273 10.2037C44.4845 11.4546 44.759 13.0974 47.5391 11.9218L45.9642 12.7496C44.7432 13.3914 43.3168 12.3549 43.5499 10.9956L43.8507 9.24197C43.9435 8.70209 43.7643 8.15139 43.372 7.76912L42.0979 6.52695C41.1105 5.56434 41.6556 3.88752 43.02 3.68922L44.7808 3.43328C45.3227 3.35453 45.7915 3.01416 46.0337 2.52306L46.8211 0.927391C47.1264 0.309094 47.7199 0 48.3133 0C47.1424 0 47.6291 3.37684 45.9527 4.26267C44.2762 5.14883 43.7551 5.41844 44.2762 6.74286Z" fill="#EDC932"/>
<path d="M38.9451 56C47.1771 56 51.8275 47.5747 51.8275 40.3254V34.3407C51.8275 33.4095 51.4493 32.5671 50.8404 31.9568C50.2301 31.3465 49.3863 30.9697 48.4565 30.9697C46.5941 30.9697 45.0854 32.4783 45.0854 34.3407V30.7471C45.0854 29.8159 44.7072 28.9735 44.0983 28.3631C43.488 27.7528 42.6442 27.376 41.7144 27.376C40.7832 27.376 39.9408 27.7528 39.3305 28.3631C38.7201 28.9735 38.3433 29.8159 38.3433 30.7471V30.4054C38.3433 29.4742 37.9651 28.6318 37.3562 28.0215C36.7459 27.4111 35.9021 27.0344 34.9723 27.0344C33.1099 27.0344 31.6013 28.5444 31.6013 30.4054V18.6031C31.5998 16.7435 30.0912 15.2349 28.2302 15.2349C27.3004 15.2349 26.4566 15.6117 25.8463 16.2234C25.236 16.8337 24.8592 17.6761 24.8592 18.6059V34.4702C24.8592 34.4702 24.7015 33.3227 23.4165 31.0061C22.385 29.1465 20.0426 28.476 18.183 29.5075C16.3248 30.5391 15.6544 32.8814 16.6845 34.7396C17.673 36.5219 17.6758 40.5089 17.6758 40.5547V44.6671C17.6758 50.9262 22.7498 56.0001 29.0088 56.0001L38.9451 56Z" fill="#FFDDCE"/>
<path d="M41.3077 54.892C42.5642 54.892 43.7364 54.6956 44.8221 54.3371C43.1392 55.3815 41.1734 55.9998 38.9445 55.9998H29.0088C22.7495 55.9998 17.6757 50.926 17.6757 44.6667V40.5541C17.6757 40.5086 17.6725 36.5214 16.6845 34.7388C15.6544 32.8806 16.3248 30.5386 18.183 29.5074C18.6648 29.2399 19.1788 29.0867 19.6937 29.04C18.506 30.2245 18.1941 32.0937 19.0465 33.6322C20.0356 35.4137 20.0378 39.4008 20.0378 39.4474V43.5588C20.0378 49.8181 25.1116 54.8919 31.3709 54.8919H41.3077V54.892Z" fill="#FFCBBE"/>
<path d="M32.7217 36.0651C33.3403 36.0651 33.8419 35.5636 33.8419 34.9448V30.4051C33.8419 29.4751 34.2188 28.6325 34.8294 28.0218C35.1823 27.669 35.6129 27.3949 36.0927 27.2257C35.7421 27.1021 35.3653 27.0342 34.9724 27.0342C34.0425 27.0342 33.1997 27.4111 32.5891 28.0217C31.9785 28.6324 31.6016 29.4751 31.6016 30.405V34.9447C31.6016 35.5636 32.103 36.0651 32.7217 36.0651Z" fill="#FFCBBE"/>
<path d="M46.206 35.461C46.8247 35.461 47.3263 34.9595 47.3263 34.3408V34.3407C47.3263 33.4107 47.7032 32.568 48.3138 31.9574C48.6667 31.6045 49.0973 31.3304 49.5771 31.1612C49.2264 31.0376 48.8496 30.9697 48.4568 30.9697C47.5269 30.9697 46.6841 31.3466 46.0735 31.9573C45.4628 32.5679 45.0859 33.4106 45.0859 34.3406V34.3407C45.0858 34.9594 45.5873 35.461 46.206 35.461Z" fill="#FFCBBE"/>
<path d="M39.4639 36.4068C40.0825 36.4068 40.5841 35.9054 40.5841 35.2866V30.7469C40.5841 29.8169 40.961 28.9743 41.5716 28.3636C41.9245 28.0108 42.3551 27.7367 42.8349 27.5675C42.4843 27.4439 42.1075 27.376 41.7146 27.376C40.7847 27.376 39.9419 27.7529 39.3313 28.3635C38.7207 28.9742 38.3438 29.8169 38.3438 30.7468V35.2865C38.3436 35.9054 38.8452 36.4068 39.4639 36.4068Z" fill="#FFCBBE"/>
<path d="M25.9795 42.7591C26.5981 42.7591 27.0997 42.2576 27.0997 41.6389V18.6058C27.0997 17.6758 27.4766 16.8332 28.0872 16.2225C28.4401 15.8697 28.8707 15.5956 29.3505 15.4264C28.9999 15.3028 28.6231 15.2349 28.2302 15.2349C27.3003 15.2349 26.4576 15.6118 25.8469 16.2224C25.2363 16.8331 24.8594 17.6758 24.8594 18.6057V41.6389C24.8593 42.2576 25.3609 42.7591 25.9795 42.7591Z" fill="#FFCBBE"/>
</svg>
