<svg width="38" height="38" viewBox="0 0 38 38" fill="none" xmlns="http://www.w3.org/2000/svg">
<g clip-path="url(#clip0_1_44335)">
<path d="M24.1533 31.5277C24.1533 31.5277 23.5061 32.8229 20.9407 34.2753C20.5388 34.5037 20.2901 34.9299 20.2889 35.3921V36.7118C20.2889 37.4232 19.7122 37.9999 19.0008 37.9999H11.272C10.5606 37.9999 9.98385 37.4232 9.98385 36.7118V36.0677C9.98385 34.8878 9.15236 33.8889 8.56175 32.9305C7.43978 31.1097 6.93547 31.0247 6.7809 28.9514C6.70103 27.8861 6.92324 24.9814 6.95093 23.9065C6.96639 23.312 6.93741 21.2793 6.91486 19.4115C6.90852 18.5311 7.25243 17.6842 7.87083 17.0575C8.48923 16.4307 9.3314 16.0755 10.2118 16.0701C11.9315 16.0662 12.4423 17.0458 13.8483 17.4465C14.7438 17.6926 15.6567 17.8708 16.5791 17.9797C17.2219 18.0492 17.7099 18.5905 17.7127 19.237V19.351C17.7127 19.351 17.7127 22.1804 13.8483 22.1804C13.4618 22.2763 10.6279 21.8583 9.98385 20.5702" fill="#F9C795"/>
<path d="M25.8482 0.953196C22.7116 1.51998 11.0604 5.32642 11.0604 30.5932L10.9509 30.664C10.7427 30.3462 10.6309 29.9749 10.6289 29.5949V2.57625C10.6289 1.50912 11.494 0.644043 12.5611 0.644043H24.7984C25.1707 0.644709 25.535 0.75199 25.8482 0.953196Z" fill="#FE0000"/>
<path d="M26.7289 2.57642V29.5951C26.7289 30.6622 25.8638 31.5273 24.7967 31.5273H12.5594C11.9116 31.529 11.3064 31.2046 10.9492 30.6642L11.0587 30.5934C11.0587 -0.684495 22.7099 1.52015 25.8465 0.953369C26.0341 1.07241 26.1979 1.22529 26.3296 1.40422C26.5902 1.7392 26.7308 2.15199 26.7289 2.57642Z" fill="url(#paint0_linear_1_44335)"/>
<path d="M24.7979 32.1712H12.5606C11.1378 32.1712 9.98438 31.0178 9.98438 29.5949V2.57627C9.98438 1.15344 11.1378 0 12.5606 0H24.7979C26.2208 0 27.3742 1.15344 27.3742 2.57627V29.5949C27.3742 31.0178 26.2208 32.1712 24.7979 32.1712ZM12.5606 1.28814C11.8492 1.28814 11.2725 1.86485 11.2725 2.57627V29.5949C11.2725 30.3063 11.8492 30.8831 12.5606 30.8831H24.7979C25.5094 30.8831 26.0861 30.3063 26.0861 29.5949V2.57627C26.0861 1.86485 25.5094 1.28814 24.7979 1.28814H12.5606Z" fill="#464F5D"/>
<path d="M23.5087 0.644043L22.5767 2.50798C22.3586 2.94451 21.9125 3.2203 21.4245 3.22031H15.9319C15.4439 3.2203 14.9978 2.94451 14.7796 2.50798L13.8477 0.644043H23.5087Z" fill="#464F5D"/>
<path d="M22.221 29.6272H15.1363C14.7805 29.6272 14.4922 29.3389 14.4922 28.9832C14.4922 28.6275 14.7805 28.3391 15.1363 28.3391H22.221C22.5767 28.3391 22.8651 28.6275 22.8651 28.9832C22.8651 29.3389 22.5767 29.6272 22.221 29.6272Z" fill="#464F5D"/>
<path d="M22.2206 11.5931C22.2206 11.7154 22.2142 11.8378 22.2077 11.9537L15.2969 12.1972C16.1148 11.5074 20.2884 9.049 20.7521 8.41138C21.7215 9.1767 22.2671 10.3589 22.2206 11.5931Z" fill="#A56A43"/>
<path d="M22.2076 11.9539C22.0853 14.1309 20.8164 16.1017 18.6781 16.1017C16.6236 16.1017 15.3676 14.2726 15.168 12.1987C16.5294 12.0104 17.8045 11.4232 18.8327 10.5112L22.2076 11.9539Z" fill="#F9C795"/>
<path d="M23.5087 21.1254V24.4745C23.5087 24.8302 23.2203 25.1186 22.8646 25.1186H14.4917C14.136 25.1186 13.8477 24.8302 13.8477 24.4745V22.1816L15.0714 17.7376C16.0176 16.6499 17.405 16.0485 18.8456 16.1016C21.4924 16.2617 23.5459 18.474 23.5087 21.1254Z" fill="white"/>
<path d="M21.5772 21.8985V25.1188H20.2891V21.8985C20.2891 21.5428 20.5774 21.2544 20.9331 21.2544C21.2888 21.2544 21.5772 21.5428 21.5772 21.8985Z" fill="#7B839C"/>
<path d="M17.0694 21.8985V25.1188H15.7812V21.8985C15.7812 21.5428 16.0696 21.2544 16.4253 21.2544C16.781 21.2544 17.0694 21.5428 17.0694 21.8985Z" fill="#7B839C"/>
<path d="M20.753 8.41154C20.1996 9.18579 19.5552 9.89073 18.8337 10.5112C17.8055 11.4232 16.5303 12.0104 15.1689 12.1987C15.1496 11.999 15.1367 11.7993 15.1367 11.5932C15.1367 9.28104 16.7211 7.72883 18.6791 7.72883C19.4264 7.72398 20.1547 7.96375 20.753 8.41154Z" fill="#CB8252"/>
<path d="M27.3859 15.7364L30.0195 14.6479C31.0119 14.2531 31.4964 13.1285 31.1016 12.136C30.7067 11.1436 29.5821 10.6592 28.5897 11.054L27.373 11.5371" fill="#F9C795"/>
<path d="M31.238 19.9344C31.238 21.0015 30.3729 21.8666 29.3058 21.8666H27.3736C26.3065 21.8666 25.4414 21.0015 25.4414 19.9344C25.4414 18.8673 26.3065 18.0022 27.3736 18.0022H29.3058C30.3729 18.0022 31.238 18.8673 31.238 19.9344Z" fill="#F9C795"/>
<path d="M30.5948 23.7989C30.5948 24.866 29.7297 25.7311 28.6626 25.7311H27.3744C27.1544 25.7325 26.9361 25.6932 26.7304 25.6152C25.8512 25.2962 25.3267 24.3934 25.4851 23.4716C25.6435 22.5499 26.4392 21.874 27.3744 21.8667H28.6626C29.7297 21.8667 30.5948 22.7318 30.5948 23.7989Z" fill="#F9C795"/>
<path d="M29.9692 27.6634C29.9692 28.7305 29.1041 29.5956 28.037 29.5956H27.3736C26.3065 29.5956 25.4414 28.7305 25.4414 27.6634C25.4414 26.5963 26.3065 25.7312 27.3736 25.7312H28.037C29.1041 25.7312 29.9692 26.5963 29.9692 27.6634Z" fill="#F9C795"/>
<path d="M9.96662 16.0818C11.6863 16.0779 12.4424 17.0479 13.8484 17.4466C14.744 17.6927 15.6569 17.8709 16.5793 17.9799C17.222 18.0494 17.71 18.5906 17.7128 19.2371V19.3511C17.7128 19.3511 17.7128 22.1805 13.8484 22.1805C13.462 22.2764 10.6281 21.8584 9.98401 20.5703L8.6875 18.4661L9.96662 16.0818Z" fill="#F9C795"/>
</g>
<defs>
<linearGradient id="paint0_linear_1_44335" x1="17.8412" y1="2.38652" x2="17.8412" y2="31.5273" gradientUnits="userSpaceOnUse">
<stop stop-color="#E32526"/>
<stop offset="1" stop-color="#490D0D"/>
</linearGradient>
<clipPath id="clip0_1_44335">
<rect width="38" height="38" fill="white"/>
</clipPath>
</defs>
</svg>
