<svg width="20" height="20" viewBox="0 0 20 20" fill="none" xmlns="http://www.w3.org/2000/svg">
<g clip-path="url(#clip0_1_44917)">
<path d="M9.99844 0.400024C4.69644 0.400024 0.398438 4.69802 0.398438 10C0.398438 15.302 4.69644 19.6 9.99844 19.6C15.3004 19.6 19.5984 15.302 19.5984 10C19.5984 4.69802 15.3004 0.400024 9.99844 0.400024ZM13.9034 8.26402C13.9074 8.34602 13.9084 8.42803 13.9084 8.50803C13.9084 11.008 12.0074 13.889 8.52944 13.889C7.50173 13.8907 6.4954 13.5956 5.63144 13.039C5.77844 13.057 5.92944 13.064 6.08244 13.064C6.96844 13.064 7.78344 12.763 8.43044 12.255C8.03615 12.2473 7.65411 12.1167 7.33755 11.8815C7.02099 11.6464 6.78569 11.3183 6.66444 10.943C6.94759 10.9969 7.23929 10.9856 7.51744 10.91C7.08949 10.8235 6.70464 10.5916 6.42815 10.2537C6.15166 9.91578 6.00054 9.49264 6.00044 9.05602V9.03302C6.25544 9.17402 6.54744 9.26003 6.85744 9.27003C6.45624 9.00295 6.17222 8.59269 6.06348 8.12316C5.95474 7.65362 6.02949 7.16028 6.27244 6.74402C6.74739 7.32802 7.3397 7.80577 8.01101 8.14634C8.68231 8.4869 9.41766 8.68269 10.1694 8.72102C10.0739 8.31533 10.115 7.88943 10.2864 7.50953C10.4579 7.12963 10.7501 6.81701 11.1175 6.62029C11.485 6.42356 11.9071 6.35375 12.3183 6.4217C12.7296 6.48964 13.1068 6.69155 13.3914 6.99602C13.8146 6.9123 14.2204 6.75708 14.5914 6.53702C14.4504 6.97516 14.1551 7.3472 13.7604 7.58402C14.1353 7.53888 14.5013 7.4381 14.8464 7.28502C14.5929 7.66492 14.2736 7.99646 13.9034 8.26402V8.26402Z" fill="white"/>
</g>
<defs>
<clipPath id="clip0_1_44917">
<rect width="20" height="20" fill="white"/>
</clipPath>
</defs>
</svg>
