<svg width="42" height="40" viewBox="0 0 42 40" fill="none" xmlns="http://www.w3.org/2000/svg">
<path d="M18.5391 12.2883H0V39.3586H18.5391H42V12.2883H18.5391Z" fill="#F0F7FF"/>
<path d="M18.5391 12.2883H42V39.3586H18.5391V12.2883Z" fill="#DFE7F4"/>
<path d="M18.5391 29.5149H16.6057C16.4038 28.9045 16.1947 27.6536 16.0613 26.8521C15.6047 24.1112 15.2742 22.1321 13.6172 22.1321C11.9602 22.1321 11.6297 24.1112 11.1731 26.8521C11.1334 27.09 11.0865 27.3676 11.0361 27.656C10.6551 26.1564 10.1625 24.593 8.69531 24.593C7.11875 24.593 6.66816 26.3955 6.27162 27.9864C6.15743 28.4394 5.98205 29.14 5.82701 29.5149H5.00391V31.9758H6.23438C7.87623 31.9758 8.28844 30.0262 8.69531 28.4359C9.10161 30.024 9.51439 31.9758 11.1562 31.9758C12.8133 31.9758 13.1438 29.9967 13.6004 27.2558C13.6064 27.2233 13.6112 27.1897 13.6172 27.1561C13.6232 27.1897 13.628 27.2233 13.634 27.2558C14.0906 29.9967 14.4211 31.9758 16.0781 31.9758H18.5391H19.7291L22.1074 29.5149H18.5391Z" fill="#FE0000"/>
<path d="M22.1074 29.5149H18.5391V31.9758H19.7291L22.1074 29.5149Z" fill="url(#paint0_linear_1_32661)"/>
<path d="M29.7231 32.6619L31.0828 29.9426L33.2831 31.0428L31.9234 33.762L29.7231 32.6619Z" fill="#465174"/>
<path d="M33.2837 31.0298L35.484 29.9296L36.8436 32.6489L34.6433 33.749L33.2837 31.0298Z" fill="#465174"/>
<path d="M36.4529 19.4059L34.2227 18.3653L36.5995 13.2668C37.5824 11.1591 36.6668 8.64529 34.5591 7.66239L35.5998 5.43213C38.9367 6.98826 40.3859 10.9692 38.8298 14.3073L36.4529 19.4059Z" fill="url(#paint1_linear_1_32661)"/>
<path d="M33.3047 31.9758C31.2692 31.9758 29.6133 30.3199 29.6133 28.2844C29.6133 26.2489 31.2692 24.593 33.3047 24.593C35.3402 24.593 36.9961 26.2489 36.9961 28.2844C36.9961 30.3199 35.3402 31.9758 33.3047 31.9758Z" fill="#FFB64C"/>
<path d="M33.3047 29.5149C33.9843 29.5149 34.5352 28.964 34.5352 28.2844C34.5352 27.6049 33.9843 27.054 33.3047 27.054C32.6251 27.054 32.0742 27.6049 32.0742 28.2844C32.0742 28.964 32.6251 29.5149 33.3047 29.5149Z" fill="#FF9100"/>
<path d="M23.4332 26.9109L22.3313 26.3967L19.729 31.9759H21.0682H22.4446L24.5615 27.4373L23.4332 26.9109Z" fill="#FE0000"/>
<path d="M24.5617 27.4373L23.4333 26.9109L21.0684 31.9759H22.4447L24.5617 27.4373Z" fill="url(#paint2_linear_1_32661)"/>
<path d="M35.9265 0.153114C32.5217 -1.42886 27.4059 9.69122 25.8208 13.0899C25.5884 13.5879 24.8106 15.3209 24.3369 16.4713L26.224 18.5816L27.0388 19.1884L28.2844 20.1161L30.8751 19.52C31.4641 18.3943 32.2821 16.702 32.5115 16.2105C39.2718 1.71286 36.8409 0.579677 35.9265 0.153114Z" fill="#FE0000"/>
<path d="M30.8754 19.5199C31.4644 18.3943 32.2823 16.702 32.5118 16.2104C39.2721 1.71282 36.8411 0.579639 35.9267 0.153076L27.0391 19.1884L28.2847 20.1161L30.8754 19.5199Z" fill="url(#paint3_linear_1_32661)"/>
<path d="M27.5975 17.9916L24.3368 16.4712C23.224 19.1726 20.8018 25.7971 21.77 28.4527C21.8842 28.7666 22.1144 29.0032 22.3934 29.1376C22.6816 29.2766 23.022 29.3061 23.3466 29.1881C25.9866 28.2304 29.4864 22.1747 30.8751 19.52L27.5975 17.9916Z" fill="#465174"/>
<path d="M23.3468 29.1879C25.9868 28.2302 29.4866 22.1745 30.8753 19.5198L27.5977 17.9915L22.3936 29.1375C22.6818 29.2764 23.0222 29.3059 23.3468 29.1879Z" fill="#C8CBD5"/>
<defs>
<linearGradient id="paint0_linear_1_32661" x1="20.0976" y1="29.6302" x2="20.0976" y2="31.9758" gradientUnits="userSpaceOnUse">
<stop stop-color="#E32526"/>
<stop offset="1" stop-color="#490D0D"/>
</linearGradient>
<linearGradient id="paint1_linear_1_32661" x1="36.508" y1="6.08715" x2="36.508" y2="19.4059" gradientUnits="userSpaceOnUse">
<stop stop-color="#E32526"/>
<stop offset="1" stop-color="#490D0D"/>
</linearGradient>
<linearGradient id="paint2_linear_1_32661" x1="22.5941" y1="27.1483" x2="22.5941" y2="31.9759" gradientUnits="userSpaceOnUse">
<stop stop-color="#E32526"/>
<stop offset="1" stop-color="#490D0D"/>
</linearGradient>
<linearGradient id="paint3_linear_1_32661" x1="31.4375" y1="1.08884" x2="31.4375" y2="20.1161" gradientUnits="userSpaceOnUse">
<stop stop-color="#E32526"/>
<stop offset="1" stop-color="#490D0D"/>
</linearGradient>
</defs>
</svg>
