<svg width="46" height="46" viewBox="0 0 46 46" fill="none" xmlns="http://www.w3.org/2000/svg">
<rect width="46" height="46" rx="23" fill="#FE0000"/>
<path d="M18.3343 34.6667H27.6676C32.3576 34.6667 33.1976 32.7883 33.4426 30.5017L34.3176 21.1683C34.6326 18.3217 33.8159 16 28.8343 16H17.1676C12.1859 16 11.3693 18.3217 11.6843 21.1683L12.5593 30.5017C12.8043 32.7883 13.6443 34.6667 18.3343 34.6667Z" stroke="white" stroke-width="1.68" stroke-miterlimit="10" stroke-linecap="round" stroke-linejoin="round"/>
<path d="M18.332 16.0002V15.0668C18.332 13.0018 18.332 11.3335 22.0654 11.3335H23.932C27.6654 11.3335 27.6654 13.0018 27.6654 15.0668V16.0002" stroke="white" stroke-width="1.68" stroke-miterlimit="10" stroke-linecap="round" stroke-linejoin="round"/>
<path d="M25.3346 24.1667V25.3333C25.3346 25.345 25.3346 25.345 25.3346 25.3567C25.3346 26.6283 25.323 27.6667 23.0013 27.6667C20.6913 27.6667 20.668 26.64 20.668 25.3683V24.1667C20.668 23 20.668 23 21.8346 23H24.168C25.3346 23 25.3346 23 25.3346 24.1667Z" stroke="white" stroke-width="1.68" stroke-miterlimit="10" stroke-linecap="round" stroke-linejoin="round"/>
<path d="M34.2609 21.8335C31.5659 23.7935 28.4859 24.9602 25.3359 25.3568" stroke="white" stroke-width="1.68" stroke-miterlimit="10" stroke-linecap="round" stroke-linejoin="round"/>
<path d="M12.0547 22.1484C14.6797 23.9451 17.643 25.0301 20.6647 25.3684" stroke="white" stroke-width="1.68" stroke-miterlimit="10" stroke-linecap="round" stroke-linejoin="round"/>
</svg>
