<svg width="46" height="46" viewBox="0 0 46 46" fill="none" xmlns="http://www.w3.org/2000/svg">
<rect width="46" height="46" rx="23" fill="#FE0000"/>
<path d="M36 31.75H10C9.53587 31.75 9.09075 31.5656 8.76256 31.2374C8.43437 30.9092 8.25 30.4641 8.25 30V16C8.25 15.5359 8.43437 15.0908 8.76256 14.7626C9.09075 14.4344 9.53587 14.25 10 14.25H36C36.4641 14.25 36.9092 14.4344 37.2374 14.7626C37.5656 15.0908 37.75 15.5359 37.75 16V30C37.75 30.4641 37.5656 30.9092 37.2374 31.2374C36.9092 31.5656 36.4641 31.75 36 31.75ZM17.2875 15.75L9.75 22.3375V23.6625L17.2875 30.25H28.7125L36.25 23.6625V22.3375L28.7125 15.75H17.2875ZM36.25 30V25.65L31 30.25H36C36.0663 30.25 36.1299 30.2237 36.1768 30.1768C36.2237 30.1299 36.25 30.0663 36.25 30ZM10 30.25H15L9.75 25.65V30C9.75 30.0663 9.77634 30.1299 9.82322 30.1768C9.87011 30.2237 9.9337 30.25 10 30.25ZM9.75 16V20.35L15 15.75H10C9.9337 15.75 9.87011 15.7763 9.82322 15.8232C9.77634 15.8701 9.75 15.9337 9.75 16ZM36 15.75H31L36.25 20.35V16C36.25 15.9337 36.2237 15.8701 36.1768 15.8232C36.1299 15.7763 36.0663 15.75 36 15.75ZM23 27.75C22.0605 27.75 21.1422 27.4714 20.361 26.9495C19.5799 26.4275 18.9711 25.6857 18.6116 24.8177C18.2521 23.9498 18.158 22.9947 18.3413 22.0733C18.5245 21.1519 18.9769 20.3055 19.6412 19.6412C20.3055 18.9769 21.1519 18.5246 22.0733 18.3413C22.9947 18.158 23.9498 18.2521 24.8177 18.6116C25.6857 18.9711 26.4275 19.5799 26.9495 20.361C27.4714 21.1422 27.75 22.0605 27.75 23C27.75 24.2598 27.2496 25.468 26.3588 26.3588C25.468 27.2496 24.2598 27.75 23 27.75ZM23 19.75C22.3572 19.75 21.7289 19.9406 21.1944 20.2977C20.6599 20.6548 20.2434 21.1624 19.9974 21.7563C19.7514 22.3501 19.687 23.0036 19.8124 23.634C19.9378 24.2645 20.2474 24.8436 20.7019 25.2981C21.1564 25.7526 21.7355 26.0622 22.366 26.1876C22.9964 26.313 23.6499 26.2486 24.2437 26.0026C24.8376 25.7566 25.3452 25.3401 25.7023 24.8056C26.0594 24.2711 26.25 23.6428 26.25 23C26.2467 22.1391 25.9032 21.3143 25.2945 20.7055C24.6857 20.0968 23.8609 19.7533 23 19.75Z" fill="white"/>
</svg>
