<svg width="20" height="21" viewBox="0 0 20 21" fill="none" xmlns="http://www.w3.org/2000/svg">
<path d="M10 20.8516C4.477 20.8516 0 16.3746 0 10.8516C0 6.37356 2.943 2.58356 7 1.30956V3.43356C5.28092 4.13161 3.8578 5.40527 2.97406 7.03668C2.09032 8.66809 1.80088 10.5559 2.15525 12.3771C2.50963 14.1983 3.48579 15.8399 4.91676 17.0209C6.34774 18.2019 8.14461 18.849 10 18.8516C11.5938 18.8515 13.1513 18.3756 14.4728 17.4848C15.7944 16.594 16.82 15.3289 17.418 13.8516H19.542C18.268 17.9086 14.478 20.8516 10 20.8516ZM19.95 11.8516H9V0.901562C9.329 0.868562 9.663 0.851562 10 0.851562C15.523 0.851562 20 5.32856 20 10.8516C20 11.1886 19.983 11.5226 19.95 11.8516ZM11 2.91356V9.85156H17.938C17.7154 8.08917 16.9129 6.4509 15.6568 5.1948C14.4007 3.9387 12.7624 3.13615 11 2.91356Z" fill="#465174"/>
</svg>
