<svg width="17" height="17" viewBox="0 0 17 17" fill="none" xmlns="http://www.w3.org/2000/svg">
<path d="M8.94015 2.86719C6.73348 2.86719 4.94015 4.66052 4.94015 6.86719V8.79385C4.94015 9.20052 4.76682 9.82052 4.56015 10.1672L3.79348 11.4405C3.32015 12.2272 3.64682 13.1005 4.51348 13.3939C7.38682 14.3539 10.4868 14.3539 13.3601 13.3939C14.1668 13.1272 14.5201 12.1739 14.0801 11.4405L13.3135 10.1672C13.1135 9.82052 12.9402 9.20052 12.9402 8.79385V6.86719C12.9402 4.66719 11.1402 2.86719 8.94015 2.86719Z" stroke="white" stroke-width="1.5" stroke-miterlimit="10" stroke-linecap="round"/>
<path d="M10.1737 3.0607C9.96703 3.0007 9.7537 2.95404 9.5337 2.92737C8.8937 2.84737 8.28036 2.89404 7.70703 3.0607C7.90036 2.56737 8.38036 2.2207 8.94036 2.2207C9.50036 2.2207 9.98036 2.56737 10.1737 3.0607Z" stroke="white" stroke-width="1.5" stroke-miterlimit="10" stroke-linecap="round" stroke-linejoin="round"/>
<path d="M10.9414 13.6338C10.9414 14.7338 10.0414 15.6338 8.94141 15.6338C8.39474 15.6338 7.88807 15.4071 7.52807 15.0471C7.16807 14.6871 6.94141 14.1805 6.94141 13.6338" stroke="white" stroke-width="1.5" stroke-miterlimit="10"/>
</svg>
