<svg width="33" height="34" viewBox="0 0 33 34" fill="none" xmlns="http://www.w3.org/2000/svg">
<path d="M26.2325 24.3359C26.774 24.3359 27.1993 23.9105 27.1993 23.3691V22.151L22.3653 11.7676L14.0168 13.8547C14.4047 13.2522 14.6309 12.5361 14.6309 11.7676C14.6309 9.63476 12.8956 7.90039 10.7637 7.90039C8.63189 7.90039 6.89655 9.63476 6.89655 11.7676C6.89655 13.2144 7.69564 14.4771 8.87487 15.1402L6.89655 15.6348L0.193359 28.2225C0.580143 29.3439 1.64355 30.1367 2.90045 30.1367H20.4317C20.9732 30.1367 21.3985 29.7113 21.3985 29.1699C21.3985 26.5016 23.5641 24.3359 26.2325 24.3359ZM29.5257 27.8094L27.6619 25.9533C27.3096 25.5137 26.7441 25.3084 26.2325 25.3084C25.6341 25.3084 25.0792 25.6019 24.8729 25.8759L22.9582 27.7915C22.1518 28.5536 22.196 29.8303 22.9223 30.5125C23.2773 30.8882 23.7796 31.1035 24.2989 31.1035C24.2989 32.1874 25.1486 33.0371 26.2325 33.0371C27.3163 33.0371 28.1661 32.1874 28.1661 31.1035C28.7043 31.1035 29.2141 30.8807 29.5068 30.5484C30.301 29.7978 30.286 28.5278 29.5257 27.8094Z" fill="url(#paint0_linear_1_44357)"/>
<path d="M21.1867 9.64386L27.1992 17.151V2.90039C27.1992 1.29854 25.9007 0 24.2988 0H2.90039C1.29854 0 0 1.29854 0 2.90039V22.2363C0 22.5844 0.0580723 22.913 0.193295 23.2225L8.07527 13.5136C8.46212 13.0291 9.19843 13.0288 9.58566 13.5129L12.329 16.9421C12.7161 17.4259 13.4519 17.4259 13.8389 16.9421L19.6771 9.64431C20.064 9.16066 20.7995 9.16047 21.1867 9.64386ZM10.7637 9.66797C9.15872 9.66797 7.86328 8.3724 7.86328 6.76758C7.86328 5.16263 9.15872 3.86719 10.7637 3.86719C12.3686 3.86719 13.6641 5.16263 13.6641 6.76758C13.6641 8.3724 12.3686 9.66797 10.7637 9.66797ZM26.2324 17.4023C22.5006 17.4023 19.4648 20.4381 19.4648 24.1699C19.4648 27.9018 22.5006 30.9375 26.2324 30.9375C29.9643 30.9375 33 27.9018 33 24.1699C33 20.4381 29.9643 17.4023 26.2324 17.4023ZM28.8427 24.8466C28.4949 25.2333 27.8372 25.2335 27.4893 24.8466L27.1992 24.5759V26.1035C27.1992 26.6449 26.7738 27.0703 26.2324 27.0703C25.6909 27.0703 25.2656 26.6449 25.2656 26.1035V24.5759L24.9755 24.8466C24.6081 25.2333 23.9895 25.2333 23.622 24.8466C23.2353 24.4792 23.2353 23.8605 23.622 23.4931L25.5556 21.5595C25.8433 21.1997 26.5953 21.1672 26.909 21.5595L28.8426 23.4931C29.2295 23.8605 29.2295 24.4792 28.8427 24.8466Z" fill="url(#paint1_linear_1_44357)"/>
<defs>
<linearGradient id="paint0_linear_1_44357" x1="15.1463" y1="33.0371" x2="15.1463" y2="7.90039" gradientUnits="userSpaceOnUse">
<stop stop-color="#FFC2CC"/>
<stop offset="1" stop-color="#FFF2F4"/>
</linearGradient>
<linearGradient id="paint1_linear_1_44357" x1="14.4132" y1="1.4502" x2="14.4132" y2="30.9375" gradientUnits="userSpaceOnUse">
<stop stop-color="#E32526"/>
<stop offset="1" stop-color="#490D0D"/>
</linearGradient>
</defs>
</svg>
