<svg width="149" height="24" viewBox="0 0 149 24" fill="none" xmlns="http://www.w3.org/2000/svg">
<g clip-path="url(#clip0_1_40303)">
<path d="M58.0371 8.63244C56.883 7.82987 55.5908 7.69932 54.2349 7.74235C51.3406 7.84471 48.8795 10.6366 49.0427 13.3796C48.9826 13.4938 48.9505 13.6206 48.9493 13.7496C48.948 13.8786 48.9775 14.0061 49.0353 14.1214C48.8869 16.5736 50.409 18.9991 53.1727 19.5035C54.7096 19.7824 56.2658 19.729 57.7642 19.1697C58.0866 19.0493 58.3926 18.8888 58.675 18.692C58.713 18.6731 58.7465 18.6463 58.7732 18.6134C58.8 18.5804 58.8193 18.5422 58.83 18.5011C58.8407 18.4601 58.8425 18.4172 58.8352 18.3754C58.8279 18.3336 58.8117 18.2939 58.7878 18.2589C58.4911 17.6847 58.2611 17.0721 57.8724 16.5395C56.7776 17.3198 56.156 17.483 54.4159 17.3643C53.8228 17.3308 53.2562 17.1076 52.7997 16.7275C52.3431 16.3473 52.0209 15.8305 51.8806 15.2533C51.845 15.1138 51.8643 14.9566 51.7412 14.8483C51.7504 14.8254 51.753 14.8003 51.7488 14.7759C51.7446 14.7516 51.7338 14.7289 51.7174 14.7103C51.891 14.3854 52.1996 14.5279 52.4458 14.5264C54.7868 14.5165 57.1277 14.5165 59.4687 14.5264C59.8366 14.5264 60.0621 14.4685 60.1288 14.0487C60.4893 11.9377 59.9345 9.95127 58.0371 8.63244ZM51.9726 12.4702C52.0364 10.9155 53.1905 9.9483 54.8802 9.9483C56.1264 9.9483 57.5001 10.6767 57.4882 12.4702H51.9726Z" fill="white"/>
<path d="M38.6468 11.8575C38.6454 11.2655 38.5186 10.6806 38.275 10.1411C38.0313 9.60162 37.6762 9.11981 37.2331 8.72734C35.7273 7.38329 32.9116 7.34917 31.3792 8.66948C31.0335 8.96618 30.9193 8.96618 30.765 8.54041C30.5722 8.00487 30.2428 7.83427 29.7028 7.90844C29.4067 7.93184 29.1093 7.93432 28.8128 7.91586C28.6036 7.91586 28.4879 8.00042 28.4923 8.21256C28.4923 8.36091 28.4923 8.50926 28.4923 8.65761V18.597C28.4923 18.7454 28.4923 18.8937 28.4923 19.0421C28.4923 19.321 28.6303 19.4382 28.9047 19.4352C29.5946 19.4263 30.2844 19.4263 30.9816 19.4189C31.0677 19.4189 31.0973 19.3462 31.13 19.278L31.1433 19.1296C31.1552 18.9338 31.176 18.738 31.176 18.5362C31.176 16.3273 31.2071 14.1169 31.1611 11.908C31.1463 11.1662 31.437 10.7212 32.0512 10.3755C32.4963 10.1278 32.9576 9.92155 33.4398 9.90968C34.6429 9.88149 35.5508 10.2998 35.8475 11.5059C35.9536 11.9845 36.0009 12.4742 35.9884 12.9642C35.9884 14.9283 35.9884 16.8925 35.9884 18.8566C35.9884 19.413 36.0003 19.4189 36.5685 19.4248C37.1114 19.4248 37.6544 19.4144 38.2003 19.4248C38.5282 19.4352 38.6899 19.3655 38.6869 18.9798C38.6602 16.618 38.7047 14.237 38.6468 11.8575Z" fill="white"/>
<path d="M76.7615 16.8525C76.1209 17.2751 75.3519 17.4584 74.5896 17.3703C73.9043 17.3139 73.5067 17.0009 73.3242 16.3318C73.2454 16.0742 73.2005 15.8074 73.1907 15.5382C73.1788 13.8692 73.1907 12.1988 73.1773 10.5299C73.1773 10.1427 73.2916 10.0107 73.6817 10.024C74.4235 10.0477 75.1652 10.024 75.907 10.0359C76.2185 10.0359 76.352 9.94538 76.3372 9.61901C76.3149 9.17397 76.3194 8.72892 76.3372 8.29277C76.3476 8.00794 76.2393 7.90409 75.953 7.90854C75.2379 7.92189 74.5214 7.90854 73.8063 7.90854C73.1996 7.90854 73.1951 7.90112 73.1922 7.31514C73.1922 6.26037 73.1759 5.20413 73.1922 4.14936C73.2011 3.76069 73.0676 3.63014 72.6848 3.64794C72.1419 3.67316 71.5974 3.67316 71.053 3.64794C70.6465 3.62717 70.4818 3.7503 70.4952 4.182C70.5234 5.11512 70.5041 6.04823 70.5041 6.98135C70.5041 7.86255 70.5041 7.87145 69.614 7.90705C69.3173 7.91744 69.1511 7.97085 69.1689 8.31354C69.1897 8.77936 69.1853 9.24666 69.1615 9.71248C69.1496 9.935 69.2134 10.0344 69.436 10.0299C69.5339 10.0299 69.6333 10.0299 69.7327 10.0299C70.513 10.0448 70.5145 10.0448 70.5145 10.8577C70.5145 12.4288 70.5145 13.9998 70.5145 15.5708C70.5072 15.9881 70.5275 16.4053 70.5753 16.8199C70.74 18.029 71.3482 18.9695 72.5157 19.3849C73.7782 19.8299 75.0925 19.6667 76.3861 19.4309C76.6828 19.3774 76.7807 19.2054 76.7733 18.9102C76.7496 18.2856 76.7615 17.6432 76.7615 16.8525Z" fill="white"/>
<path d="M67.5916 13.39C67.2469 13.15 66.8755 12.9509 66.4849 12.7966C65.814 12.5549 65.162 12.2639 64.5341 11.9258C64.2092 11.7359 63.9199 11.5119 63.8502 11.1084C63.733 10.4334 64.1039 9.93196 64.81 9.85037C65.8258 9.70385 66.8591 9.95116 67.6984 10.5417C67.918 9.97052 68.0782 9.45427 68.3111 8.97213C68.4891 8.60571 68.3868 8.45588 68.0441 8.30753C66.5451 7.63092 64.8538 7.51151 63.2746 7.97077C60.855 8.6695 60.2854 11.2226 62.0403 13.0607C62.7168 13.7698 63.5684 14.1095 64.4139 14.4996C64.8675 14.6889 65.3026 14.9198 65.7135 15.1895C65.9706 15.3641 66.1629 15.6186 66.2608 15.9136C66.3587 16.2086 66.3566 16.5276 66.255 16.8213C66.0369 17.4014 65.5236 17.4829 64.9895 17.5215C63.9125 17.5972 62.9527 17.2753 62.0225 16.5929C61.7347 17.2248 61.5093 17.7663 61.2437 18.29C61.0954 18.5867 61.1161 18.735 61.441 18.9116C63.1574 19.8017 64.9569 19.8803 66.7594 19.3462C67.9758 18.9857 68.8644 18.1876 69.0781 16.8347C69.3021 15.3719 68.7977 14.2326 67.5916 13.39Z" fill="white"/>
<path d="M47.5359 7.90862C47.1814 7.89527 47.0152 8.02878 46.8862 8.35367C46.3239 9.74222 45.7424 11.1219 45.1609 12.5075C44.83 13.2922 44.4874 14.0711 44.1387 14.8811C43.9616 14.6734 43.8325 14.4293 43.7604 14.166C43.0029 12.2523 42.2488 10.3371 41.4981 8.42043C41.4002 8.16823 41.3424 7.91308 40.9685 7.92198C40.1348 7.94275 39.2996 7.92939 38.4688 7.92939C38.4667 8.1202 38.5181 8.3078 38.6172 8.47087C39.2768 9.94843 39.9355 11.428 40.5932 12.9095C41.5278 15.0175 42.4668 17.1241 43.394 19.2351C43.4344 19.3625 43.5166 19.4724 43.6272 19.5473C43.7379 19.6221 43.8705 19.6574 44.0037 19.6475C44.5615 19.6475 44.566 19.6638 44.879 18.977C46.0658 16.3631 47.257 13.7501 48.4527 11.1382C48.9275 10.0997 49.3977 9.04795 49.9036 7.92939C49.061 7.91604 48.297 7.93384 47.5359 7.90862Z" fill="white"/>
<path d="M26.6883 4.09453C26.7066 4.04653 26.7141 3.99512 26.7106 3.94389C26.707 3.89267 26.6923 3.84284 26.6676 3.79784C25.865 3.49372 25.0357 3.72217 24.2183 3.67322C24.07 3.66432 24.0166 3.7919 24.0106 3.92393C24.0106 4.09601 24.0106 4.2681 24.0106 4.44018V18.5972C24.0167 18.696 24.0167 18.7951 24.0106 18.8939C23.9572 19.2974 24.1011 19.4725 24.5373 19.4487C25.1307 19.4161 25.7241 19.4487 26.3175 19.4383C26.4569 19.4383 26.623 19.4799 26.6824 19.29L26.6957 19.1416C26.7061 18.8731 26.7239 18.6046 26.7239 18.3361C26.7239 14.2753 26.7239 10.2149 26.7239 6.1551C26.715 5.46231 26.6972 4.78584 26.6883 4.09453Z" fill="white"/>
<path d="M148.195 19.9174C148.207 18.5511 147.636 17.8049 146.322 17.3583C145.114 16.9474 143.904 17.0082 142.69 17.302C142.306 17.393 141.908 17.4081 141.518 17.3465C141.431 17.3395 141.348 17.3038 141.283 17.2451C141.218 17.1864 141.174 17.1078 141.158 17.0216C141.15 16.947 141.165 16.8719 141.201 16.8061C141.237 16.7402 141.291 16.6866 141.358 16.6522C141.714 16.4534 142.036 16.2427 142.512 16.3036C143.416 16.4193 144.327 16.4178 145.199 16.0454C147.265 15.1672 148.123 12.896 147.512 10.7049C147.412 10.3458 147.058 10.0254 147.114 9.70645C147.181 9.32519 147.696 9.22877 147.992 8.97806C148.265 8.74812 148.225 8.57307 147.957 8.40395C147.62 8.19032 147.371 7.88027 147.081 7.61324C146.467 7.051 146.473 7.04506 145.906 7.68742C145.432 8.22741 145.439 8.20367 144.693 7.98412C142.985 7.46193 141.348 7.57319 139.827 8.58938C137.476 10.1589 137.562 13.3455 139.234 14.918C139.455 15.1257 139.659 15.3556 139.916 15.6212L139.925 15.6301H139.912C139.46 15.848 139.075 16.1811 138.793 16.5958C138.183 17.5185 138.482 18.6341 139.461 19.1489C139.881 19.3582 140.344 19.4692 140.814 19.4738C141.579 19.4938 142.344 19.4522 143.103 19.3492C143.739 19.275 144.383 19.235 145.013 19.4204C145.194 19.4688 145.354 19.574 145.471 19.7203C145.587 19.8666 145.654 20.0465 145.66 20.2333C145.681 20.4051 145.65 20.5791 145.57 20.7328C145.491 20.8866 145.367 21.0128 145.215 21.0953C144.473 21.5403 143.641 21.6367 142.807 21.5937C141.704 21.5649 140.652 21.121 139.861 20.3505C139.228 20.9172 138.823 21.6323 138.268 22.2153C138.088 22.4037 138.215 22.5253 138.376 22.6203C139.183 23.0906 139.98 23.586 140.934 23.721C141.082 23.9421 141.432 23.721 141.545 24.0074H144.215C144.286 23.8323 144.456 23.859 144.592 23.8338C145.269 23.7042 145.92 23.4663 146.521 23.1291C147.202 22.7464 147.755 22.2554 148.071 21.5151C148.279 20.981 148.191 20.4425 148.195 19.9174ZM140.82 11.8842C140.82 10.7152 141.71 9.87854 142.919 9.8815C144.128 9.88447 144.941 10.7716 144.929 12.0341C144.861 13.5754 144.102 14.2489 142.895 14.2148C141.627 14.1718 140.817 13.4419 140.82 11.8783V11.8842Z" fill="white"/>
<path d="M136.018 12.5577C136.018 11.7463 136.001 10.9348 135.681 10.1708C134.872 8.24223 133.011 7.47972 130.941 7.68741C129.969 7.76889 129.056 8.18887 128.361 8.8742C128.202 8.69222 128.084 8.47755 128.016 8.2452C127.999 8.1474 127.946 8.05922 127.869 7.99741C127.791 7.93561 127.693 7.90447 127.594 7.90993C127.125 7.90993 126.657 7.90993 126.188 7.90993C125.931 7.90993 125.835 8.03009 125.847 8.2719C125.847 8.42025 125.847 8.5686 125.847 8.71695C125.847 12.034 125.847 15.3502 125.847 18.6653C125.847 18.7884 125.857 18.9115 125.847 19.0347C125.82 19.3581 125.974 19.4619 126.292 19.4545C126.933 19.4397 127.575 19.4545 128.22 19.4545C128.346 19.4545 128.464 19.4397 128.517 19.3061C128.731 19.1014 128.624 18.8418 128.625 18.6104C128.634 16.3985 128.694 14.1851 128.6 11.9792C128.559 11.0001 128.984 10.5253 129.774 10.199C130.07 10.0773 130.379 9.92452 130.684 9.9171C132.034 9.88447 133.022 10.3102 133.248 11.7581C133.318 12.2937 133.347 12.8337 133.337 13.3736C133.347 15.2399 133.352 17.1076 133.326 18.9738C133.326 19.3373 133.42 19.4664 133.772 19.4604C134.289 19.4515 134.81 19.4604 135.326 19.4604C136.061 19.4604 136.068 19.4604 136.068 18.7409C136.047 16.6744 136.028 14.6168 136.018 12.5577Z" fill="white"/>
<path d="M120.566 16.1998C120.102 16.3892 119.724 16.7434 119.505 17.1943C119.286 17.6453 119.241 18.1612 119.379 18.6431C119.532 19.1075 119.857 19.4954 120.288 19.7262C120.718 19.9569 121.221 20.0126 121.692 19.8819C122.829 19.6267 123.515 18.2678 123.036 17.2205C122.831 16.7689 122.461 16.4123 122.003 16.2228C121.544 16.0333 121.031 16.0251 120.566 16.1998Z" fill="white"/>
<path d="M121.539 1.7164L121.435 1.61553L121.413 1.59327L121.163 1.34998L121.149 1.3396C121.125 1.32703 121.102 1.31158 121.082 1.29361C120.785 1.0696 120.708 0.642351 120.322 0.51032C120.28 0.501647 120.237 0.507947 120.199 0.528121C120.097 0.250708 119.994 -0.0252193 119.606 0.00296709C119.511 0.180987 119.309 0.240323 119.161 0.360486C119.109 0.386972 119.055 0.409779 119 0.42873C118.68 0.569441 118.373 0.740318 118.085 0.939053L118.072 0.950923C118.059 0.965309 118.046 0.978241 118.03 0.989487C117.704 1.28619 117.237 1.42119 117.059 1.86475C116.848 1.89294 116.665 1.95376 116.661 2.21486C116.692 2.23261 116.726 2.24656 116.76 2.2564C117.219 2.26975 117.452 2.27865 117.551 2.38695C117.57 2.41669 117.585 2.44796 117.599 2.48041C117.616 2.68037 117.595 2.8818 117.536 3.07381L117.502 3.13463C117.494 3.15438 117.488 3.17471 117.483 3.19545C117.449 3.20423 117.415 3.2092 117.38 3.21028C117.208 3.74138 117.036 4.27346 116.863 4.80653C116.846 4.81122 116.831 4.81956 116.817 4.83095C116.804 4.84234 116.794 4.85648 116.787 4.87238C116.78 4.88828 116.777 4.90553 116.777 4.92287C116.778 4.94021 116.782 4.95723 116.79 4.97268C116.746 5.03054 116.676 5.08394 116.661 5.14773C116.373 6.35678 115.827 7.47978 115.459 8.66065C115.459 8.7096 115.459 8.75856 115.447 8.809C115.439 8.81318 115.432 8.8191 115.427 8.82634C115.421 8.83357 115.417 8.84195 115.415 8.85087C115.413 8.85978 115.413 8.86902 115.415 8.87794C115.417 8.88686 115.421 8.89523 115.427 8.90246C115.141 9.42022 114.94 9.98079 114.833 10.5625C114.405 11.4679 114.062 12.4116 113.81 13.3811C113.63 13.6454 113.523 13.9524 113.5 14.2712C113.363 14.4033 113.351 14.6421 113.133 14.7029C113.099 14.4322 112.986 14.1776 112.807 13.9716C112.748 13.7075 112.715 13.4316 112.492 13.2298C112.492 12.8233 112.181 12.5563 112.047 12.2092C112.04 11.9276 111.939 11.6565 111.76 11.4392C111.314 10.3756 110.861 9.31784 110.45 8.2423C110.301 7.84917 110.021 7.92187 109.735 7.90407C109.413 7.88478 109.199 7.96786 109.211 8.33725C108.933 8.74946 108.732 9.20825 108.617 9.69168C108.441 9.89356 108.337 10.1481 108.321 10.4156C107.86 11.3109 107.463 12.238 107.134 13.1898C106.973 13.3651 106.874 13.5879 106.851 13.8247C106.678 14.0359 106.575 14.2947 106.554 14.5664C106.176 15.2174 105.877 15.9111 105.664 16.633C105.251 17.439 104.889 18.2704 104.581 19.1223C104.492 19.3166 104.09 19.6074 104.59 19.6815C105.183 19.7691 105.809 19.6815 106.419 19.6637C106.649 19.6637 106.794 19.551 106.716 19.2869C107.213 18.7989 107.376 18.1476 107.592 17.5216C107.781 17.326 107.899 17.0726 107.926 16.8021C108.012 16.7266 108.081 16.6328 108.126 16.5276C108.171 16.4224 108.193 16.3084 108.189 16.1938C108.237 15.9292 108.338 15.677 108.485 15.4521C108.808 15.0798 109.023 14.6263 109.107 14.1407C109.377 13.7891 109.503 13.3648 109.69 12.9717C109.824 12.6898 109.944 12.8664 110.073 12.9717C110.24 13.5508 110.495 14.1011 110.828 14.6035C111.049 15.3296 111.356 16.0268 111.742 16.6804C111.908 17.1255 112.038 17.5957 112.344 17.9815C112.344 18.0956 112.369 18.2083 112.416 18.3122C112.464 18.4161 112.533 18.5086 112.618 18.5838C112.645 18.8599 112.752 19.122 112.927 19.3374C112.927 19.4664 113.043 19.5184 113.117 19.5955L113.151 19.6044C113.859 19.7898 113.893 19.775 114.127 19.3077C114.314 19.0593 114.421 18.7606 114.436 18.4502C114.816 17.6885 115.115 16.8883 115.326 16.0633C115.493 15.8093 115.595 15.5178 115.623 15.2147C115.872 14.8516 116.025 14.431 116.068 13.9923C116.068 13.9107 116.068 13.8306 116.068 13.7505C116.133 13.7179 116.241 13.7016 116.257 13.6541C116.471 13.031 116.759 12.4332 116.9 11.7864C117.018 11.6683 117.085 11.5085 117.087 11.3413C117.267 11.083 117.372 10.7802 117.392 10.4661C117.582 10.2123 117.692 9.90743 117.707 9.5908H117.698C117.796 9.49252 117.872 9.37414 117.92 9.2438C117.968 9.11345 117.988 8.97423 117.977 8.8357C118.075 8.539 118.171 8.2423 118.274 7.9367C118.515 7.80615 118.523 7.54506 118.609 7.32996C118.84 6.74991 119.066 6.16689 119.293 5.58536C119.489 5.06169 119.846 4.58994 119.807 3.99209C119.801 3.98395 119.793 3.97649 119.785 3.96983C119.789 3.95765 119.792 3.94527 119.794 3.93275L119.902 3.81851C119.819 3.42539 120.158 3.15243 120.215 2.80084C120.257 2.7571 120.303 2.71737 120.352 2.68216C120.603 2.49969 120.89 2.49079 121.187 2.49079C121.42 2.49079 121.729 2.57683 121.835 2.29497C121.908 2.04574 121.684 1.8781 121.539 1.7164ZM105.829 16.6359L105.818 16.627L105.829 16.6359ZM108.202 14.2623C108.198 14.2742 108.199 14.2762 108.204 14.2683L108.202 14.2623ZM111.668 15.3839C111.669 15.3892 111.669 15.3948 111.668 15.4002C111.668 15.3968 111.669 15.3933 111.669 15.3898L111.668 15.3839ZM113.93 19.1074C113.908 19.0952 113.891 19.0758 113.882 19.0525L113.937 19.103L113.93 19.1074Z" fill="white"/>
<path d="M104.65 15.5085C105.104 14.7519 105.392 13.9167 105.751 13.1186C105.787 13.041 105.808 12.9568 105.811 12.8711C105.813 12.7853 105.799 12.6999 105.767 12.6201C105.239 11.1545 104.819 9.65316 104.218 8.20823C104.218 8.08065 104.192 7.93379 104.052 7.92934C103.147 7.87932 102.24 7.88477 101.336 7.94565C101.545 8.51383 101.68 9.00042 101.949 9.43656C102.072 9.99161 102.256 10.5314 102.498 11.0462L102.831 11.8131C102.897 12.1098 102.946 12.4065 103.138 12.6469C103.055 13.0756 103.376 13.3738 103.502 13.7328C103.767 14.4923 104.057 15.243 104.349 16.0307C104.44 15.9771 104.516 15.9008 104.568 15.8093C104.621 15.7178 104.649 15.6142 104.65 15.5085ZM103.327 11.7345C103.315 11.748 103.302 11.7604 103.288 11.7716L103.279 11.7479L103.327 11.7345Z" fill="white"/>
<path d="M89.5224 3.79627V3.78886C88.7509 3.50403 87.9543 3.71319 87.1695 3.66869C87.0865 3.66869 87.0479 3.72951 87.0212 3.79923C86.8936 4.02769 86.9559 4.27841 86.9559 4.51725C86.95 6.19855 86.95 7.8838 86.9559 9.57301C86.9559 10.6471 86.9811 11.7196 86.993 12.7937C86.993 12.8723 86.9796 12.9524 86.9722 13.031C86.8031 12.9925 86.5984 13.0162 86.5272 12.7937C86.4271 12.5007 86.2284 12.2516 85.9649 12.089C85.8166 11.9718 85.7587 11.7434 85.5421 11.6885C85.5421 11.6173 85.557 11.5283 85.5214 11.4778C85.0274 10.7924 84.5615 10.0818 83.8895 9.54927C83.9088 9.40982 83.7753 9.3579 83.7263 9.25257C83.6983 9.10642 83.6304 8.97088 83.5301 8.86092C83.4298 8.75096 83.3011 8.67087 83.1582 8.6295C83.1582 8.58054 83.1789 8.51823 83.1582 8.48115C82.2503 7.29435 81.3646 6.08234 80.3529 4.97565C80.3173 4.67895 80.1081 4.50686 79.9078 4.32884C79.909 4.28205 79.8928 4.2365 79.8624 4.2009C79.832 4.16531 79.7895 4.14219 79.7432 4.13599C79.6512 4.06182 79.6052 3.93127 79.4643 3.91792L79.4346 3.95945L79.4657 3.9194C79.2447 3.6672 78.3531 3.5515 78.181 3.75919C78.141 3.819 78.1189 3.88899 78.1172 3.96094C78.1083 4.10929 78.1172 4.25764 78.1172 4.40599C78.1172 9.14526 78.1172 13.8855 78.1172 18.6268C78.1172 18.7751 78.1172 18.9235 78.1172 19.0718C78.1083 19.3062 78.1944 19.4427 78.454 19.4412C79.1216 19.4412 79.7881 19.4412 80.4537 19.4412C80.7148 19.4412 80.8024 19.3122 80.7949 19.0763C80.7949 18.9042 80.7949 18.7321 80.7949 18.56V9.87415C81.1169 9.94388 81.1599 10.2272 81.3691 10.3044C81.4239 10.3963 81.4803 10.4883 81.5367 10.5803C81.79 10.9657 82.0785 11.3268 82.3986 11.6588C82.7635 12.0727 82.9668 12.6171 83.4371 12.9391C83.4697 13.2269 83.6803 13.3841 83.8821 13.5666C84.8078 14.7949 85.7261 16.0277 86.6637 17.2456C86.9144 17.5735 87.1087 17.9533 87.4529 18.201L87.5879 18.2826C87.6843 18.7277 88.0626 18.9843 88.3192 19.3211C88.3534 19.4694 88.4216 19.5851 88.5952 19.5925C89.5787 19.7483 89.6336 19.7261 89.6336 19.0466C89.6405 14.1194 89.6445 9.19224 89.6455 4.26505C89.6307 4.10632 89.7093 3.91792 89.5224 3.79627ZM78.3961 18.8389V18.8003C78.411 18.8181 78.4273 18.8345 78.4436 18.8523L78.3961 18.8389ZM89.0654 5.56757C89.0664 5.56777 89.0674 5.56777 89.0684 5.56757H89.0654ZM88.027 3.94611V3.93721L88.0344 3.94611H88.027ZM87.1369 4.87922V4.82878L87.1962 4.80653C87.1859 4.82879 87.1651 4.85252 87.1458 4.87922H87.1369Z" fill="white"/>
<path d="M101.845 12.1825C101.777 11.555 101.678 10.9379 101.225 10.4439C101.031 10.2154 101.13 9.82526 100.795 9.67543C100.785 9.60592 100.755 9.54082 100.709 9.48811C100.662 9.4354 100.602 9.39739 100.534 9.37873C100.491 9.26898 100.426 9.16892 100.344 9.08437C100.262 8.99982 100.163 8.93246 100.055 8.88621C99.9703 8.77791 99.9168 8.60583 99.721 8.72006C99.6454 8.43671 99.3961 8.38923 99.1662 8.31654C98.1989 7.72314 97.1353 7.66232 96.0434 7.75875C95.2379 7.73056 94.4739 7.86259 93.8048 8.35215C93.698 8.36194 93.5946 8.39537 93.5022 8.45002C93.4099 8.50467 93.3308 8.57917 93.2708 8.66813C92.4193 9.08796 91.9089 9.8668 91.541 10.6471C90.5604 12.724 90.6302 14.8617 91.6137 16.9431C91.8036 17.3466 91.9965 17.7931 92.4682 17.9919C92.4718 18.03 92.4886 18.0657 92.5157 18.0928C92.5428 18.1198 92.5784 18.1366 92.6166 18.1403C93.164 18.9814 94.0333 19.2573 94.9456 19.4546C95.9414 19.7556 97.0044 19.7531 97.9987 19.4472C98.1797 19.5199 98.2954 19.3819 98.417 19.2989L98.558 19.2855C99.6795 18.9324 100.414 18.115 101.08 17.2086C101.414 16.7872 101.626 16.2823 101.693 15.7489C102.09 14.5769 102.063 13.3901 101.845 12.1825ZM97.966 17.0618L96.889 17.4949H96.5211C95.0792 17.486 94.2039 16.8066 93.8642 15.4299C93.7945 15.1451 93.7396 14.8558 93.6787 14.5695C93.658 13.8277 93.7766 13.0949 93.6565 12.3591C93.8538 11.9837 93.8523 11.5328 94.1134 11.1827C94.2309 11.127 94.3333 11.0442 94.4123 10.941C94.4912 10.8378 94.5444 10.7172 94.5674 10.5893C94.7676 10.2555 95.2127 10.2926 95.4471 10.0151C96.1114 9.85787 96.8033 9.85787 97.4676 10.0151C97.6562 10.1656 97.8703 10.2812 98.0996 10.3564C98.6203 10.8014 98.8413 11.3948 99.0178 12.0208C99.2834 12.9985 99.1766 13.9954 99.135 14.9878C98.9184 15.513 98.7642 16.0634 98.4378 16.5499C98.3045 16.7426 98.1441 16.915 97.9616 17.0618H97.966Z" fill="white"/>
<path d="M16.0054 18.695C16.0173 13.9537 16.0203 9.21195 16.0143 4.46971C16.0143 4.34806 16.004 4.22345 16.0143 4.1018C16.044 3.76505 15.9179 3.58999 15.5559 3.61818C15.3839 3.63153 15.2103 3.61818 15.0367 3.61818C10.692 3.61818 6.3464 3.61818 1.99975 3.61818C1.33366 3.61818 0.664606 3.63747 0 3.64785V10.4304V17.6565C0.161701 17.5616 0.344169 17.4829 0.317466 17.2456L0.446534 17.1699C0.718014 17.0008 0.964274 16.8109 1.03993 16.4786C1.24026 16.3907 1.40532 16.2382 1.50872 16.0454C1.7464 15.892 1.94869 15.6897 2.10212 15.452C2.13993 15.4476 2.17515 15.4306 2.20207 15.4036C2.229 15.3767 2.24605 15.3415 2.25047 15.3037C2.58809 15.055 2.8879 14.7586 3.14056 14.424C3.47116 14.1864 3.76206 13.898 4.00247 13.5695C4.6745 13.0992 5.31388 12.5933 5.76635 11.8961C5.91526 11.8478 6.05313 11.7705 6.17203 11.6686C6.29093 11.5668 6.38851 11.4424 6.45914 11.3027L7.7216 9.98831C7.95908 9.83464 8.16132 9.6324 8.31499 9.39491C8.38246 9.36899 8.44374 9.32918 8.49485 9.27807C8.54596 9.22696 8.58576 9.16568 8.61169 9.09822C8.85395 8.95053 9.05741 8.74708 9.20509 8.50482L9.61157 8.174C10.0136 8.08796 10.0566 7.634 10.3533 7.44708C10.7984 7.1667 11.1722 6.62522 11.8175 7.02725C11.9097 7.15078 11.9733 7.29328 12.0035 7.44441C12.0338 7.59555 12.0301 7.75153 11.9926 7.90103L10.064 9.8637C9.82622 9.97871 9.63358 10.1698 9.51663 10.4067C9.15084 10.6527 8.83393 10.9646 8.58203 11.3264C8.33063 11.4333 8.12916 11.6316 8.01829 11.8813C7.76017 12.1008 7.49017 12.31 7.24539 12.5444C6.33255 13.4167 5.42465 14.2939 4.5217 15.1761C3.24886 16.4193 1.97849 17.6649 0.710596 18.913C0.562246 18.9575 0.486587 19.1014 0.370874 19.189C0.31147 19.2396 0.235235 19.266 0.15725 19.2631C0.221041 19.3966 0.281866 19.5242 0.474721 19.4634C0.762519 19.3714 1.06812 19.4233 1.35295 19.4233C5.91025 19.4233 10.4666 19.4233 15.0219 19.4233C15.2919 19.4233 15.5619 19.4041 15.8319 19.3937C16.1642 19.2349 16.004 18.9323 16.0054 18.695ZM7.96193 9.38453C8.01992 9.38572 8.07762 9.39318 8.13401 9.40678C8.07569 9.41412 8.01646 9.40646 7.96193 9.38453Z" fill="white"/>
</g>
<defs>
<clipPath id="clip0_1_40303">
<rect width="148.21" height="24" fill="white"/>
</clipPath>
</defs>
</svg>
