<svg width="11" height="6" viewBox="0 0 11 6" fill="none" xmlns="http://www.w3.org/2000/svg">
<path d="M1.10258 0.210564C1.04281 0.273777 0.995405 0.348845 0.963059 0.431475C0.930712 0.514104 0.914063 0.602674 0.914063 0.692122C0.914063 0.781569 0.930712 0.87014 0.963059 0.952769C0.995405 1.0354 1.04281 1.11047 1.10258 1.17368L5.46854 5.80037C5.52824 5.86366 5.59913 5.91386 5.67716 5.94812C5.75519 5.98237 5.83883 6 5.9233 6C6.00777 6 6.09141 5.98237 6.16944 5.94812C6.24747 5.91386 6.31836 5.86366 6.37805 5.80037L10.744 1.17368C10.8062 1.11104 10.8558 1.03587 10.8901 0.952588C10.9244 0.869304 10.9426 0.779596 10.9436 0.688753C10.9446 0.59791 10.9285 0.507769 10.8961 0.423645C10.8637 0.33952 10.8157 0.263115 10.755 0.198932C10.6943 0.134748 10.622 0.0840855 10.5425 0.049931C10.463 0.0157766 10.3779 -0.00117922 10.2921 6.34193e-05C10.2063 0.00130606 10.1216 0.0207214 10.043 0.0571661C9.96445 0.0936108 9.89355 0.146347 9.83451 0.212265L5.9233 4.3574L2.01209 0.212265C1.9525 0.14887 1.88169 0.0985332 1.80372 0.0641336C1.72574 0.0297346 1.64213 0.0119472 1.55766 0.0117893C1.4732 0.011631 1.38953 0.0291061 1.31144 0.0632133C1.23335 0.0973206 1.16238 0.147391 1.10258 0.210564Z" fill="white"/>
</svg>
