<svg width="24" height="24" viewBox="0 0 24 24" fill="none" xmlns="http://www.w3.org/2000/svg">
<g clip-path="url(#clip0_1457_40084)">
<path d="M23.7616 7.20011C23.7616 7.20011 23.5276 5.54561 22.8061 4.81961C21.8926 3.86411 20.8696 3.85811 20.4016 3.80261C17.0461 3.55811 12.0061 3.55811 12.0061 3.55811H11.9971C11.9971 3.55811 6.95857 3.55811 3.60157 3.80261C3.13207 3.85961 2.11057 3.86411 1.19707 4.81961C0.475568 5.54561 0.246068 7.20011 0.246068 7.20011C0.246068 7.20011 0.00756836 9.14111 0.00756836 11.0866V12.9061C0.00756836 14.8471 0.246068 16.7926 0.246068 16.7926C0.246068 16.7926 0.480068 18.4471 1.19707 19.1746C2.11057 20.1301 3.31057 20.0986 3.84607 20.2006C5.76757 20.3836 12.0076 20.4391 12.0076 20.4391C12.0076 20.4391 17.0521 20.4301 20.4076 20.1901C20.8771 20.1346 21.8986 20.1286 22.8121 19.1731C23.5336 18.4471 23.7676 16.7911 23.7676 16.7911C23.7676 16.7911 24.0061 14.8501 24.0061 12.9046V11.0851C24.0016 9.1441 23.7631 7.19861 23.7631 7.19861L23.7616 7.20011ZM9.52057 15.1126V8.36711L16.0036 11.7511L9.52057 15.1126Z" fill="white"/>
</g>
<defs>
<clipPath id="clip0_1457_40084">
<rect width="24" height="24" fill="white"/>
</clipPath>
</defs>
</svg>
